<?xml version="1.0" encoding="UTF-8"?>
<svg width="595px" height="725px" viewBox="0 0 595 725" version="1.1" xmlns="http://www.w3.org/2000/svg" xmlns:xlink="http://www.w3.org/1999/xlink">
    <!-- Generator: Sketch 51.2 (57519) - http://www.bohemiancoding.com/sketch -->
    <title>illustration 3</title>
    <desc>Created with Sketch.</desc>
    <defs>
        <linearGradient x1="0%" y1="-51.444539%" x2="89.8404219%" y2="148.648915%" id="linearGradient-1">
            <stop stop-color="#4F33E2" offset="0%"></stop>
            <stop stop-color="#44C7FF" offset="100%"></stop>
        </linearGradient>
        <path d="M64.1289601,76.5179847 L540.989181,9.49965127 C563.060244,6.39776559 571.386716,7.57100285 580.062038,10.7522685 C588.737361,13.9335342 595.959814,19.3760434 601.409086,26.8384228 C606.858358,34.3008023 610.281233,41.9813325 613.383118,64.0523961 L672.087131,481.753152 C675.189017,503.824215 674.01578,512.150687 670.834514,520.826009 C667.653248,529.501332 662.210739,536.723785 654.74836,542.173057 C647.28598,547.622329 639.60545,551.045203 617.534386,554.147089 L140.674166,621.165423 C118.603102,624.267308 110.27663,623.094071 101.601308,619.912805 C92.9259857,616.73154 85.703532,611.28903 80.2542603,603.826651 C74.8049885,596.364272 71.3821139,588.683741 68.2802282,566.612678 L9.57621534,148.911922 C6.47432965,126.840859 7.64756691,118.514387 10.8288326,109.839065 C14.0100982,101.163742 19.4526074,93.9412886 26.9149869,88.4920168 C34.3773664,83.0427451 42.0578966,79.6198704 64.1289601,76.5179847 Z" id="path-2"></path>
        <path d="M93.7210008,135.960087 C97.2211335,68.5230642 66.2622333,23.5282355 0.844300175,0.975600543 C-3.81687977,80.5214964 17.8366515,127.647272 65.8048939,142.352926 L93.7210008,135.960087 Z" id="path-4"></path>
        <path d="M14.8787768,82.8178406 C-1.20428152,46.3231206 -4.05654764,26.3882812 6.32197841,23.0133227 C16.7005045,19.6383641 23.0127252,31.0758213 25.2586406,57.3256943 C24.1449063,19.1937866 30.4152602,0.127832708 44.0697024,0.127832708 C64.5513656,0.127832708 54.4435119,57.3256943 36.9807041,82.8178406 L14.8787768,82.8178406 Z" id="path-6"></path>
        <path d="M0.134072365,149.270261 C21.1994829,41.0838725 43.2922902,-7.98187666 66.4124942,2.07301358 C89.5326983,12.1279038 73.4324091,61.1936529 18.1116269,149.270261 L0.134072365,149.270261 Z" id="path-8"></path>
        <path d="M12.8434202,0.574405378 L316.47191,0.574405378 C323.517683,0.574405378 329.22941,6.2861325 329.22941,13.331905 L329.22941,224.495227 L0.085920591,224.495227 L0.085920591,13.331905 C0.085920591,6.2861325 5.79764771,0.574405378 12.8434202,0.574405378 Z" id="path-10"></path>
        <polygon id="path-12" points="0.484255019 0.150887422 306.515745 0.150887422 306.515745 208.76271 3.18425513 208.76271"></polygon>
        <polygon id="path-14" points="0.900002182 0.100019276 606.200024 0.100019276 606.200024 85.6000227 0.900002182 85.6000227"></polygon>
        <linearGradient x1="103.798928%" y1="13.8328525%" x2="6.18063869%" y2="24.1084161%" id="linearGradient-16">
            <stop stop-color="#FFFFFF" offset="0%"></stop>
            <stop stop-color="#FFFFFF" stop-opacity="0" offset="100%"></stop>
        </linearGradient>
        <filter x="-186.7%" y="-151.3%" width="473.4%" height="402.6%" filterUnits="objectBoundingBox" id="filter-17">
            <feGaussianBlur stdDeviation="15" in="SourceGraphic"></feGaussianBlur>
        </filter>
        <linearGradient x1="0%" y1="-36.8917067%" x2="100%" y2="126.217511%" id="linearGradient-18">
            <stop stop-color="#FFE3C3" offset="0%"></stop>
            <stop stop-color="#FF7BB5" offset="100%"></stop>
        </linearGradient>
        <linearGradient x1="0%" y1="-38.4321422%" x2="105.69539%" y2="141.807496%" id="linearGradient-19">
            <stop stop-color="#DF81FF" offset="0%"></stop>
            <stop stop-color="#775DFF" offset="100%"></stop>
        </linearGradient>
        <path d="M139.823952,64.996778 C139.823952,64.996778 139.823952,64.996778 139.823952,64.996778 C137.258657,28.6719266 106.977672,0 70,0 C33.3298046,0 3.245391,28.1970837 0.24577744,64.0922327 C0.231030328,64.2687054 0.216774203,64.4575687 0.203009066,64.6588227 L0.203018835,64.6588233 C0.0145867652,67.4138051 2.09518639,69.7999135 4.85016817,69.9883456 C4.96373117,69.9961129 5.0775263,70 5.19135462,70 L135.161594,70.0000087 C137.742956,70.0000087 139.835564,67.9074008 139.835564,65.3260382 C139.835564,65.2161824 139.831691,65.1063608 139.823952,64.996778 Z" id="path-20"></path>
        <linearGradient x1="10.1710262%" y1="29.688512%" x2="100%" y2="78.9267875%" id="linearGradient-22">
            <stop stop-color="#FFFFFF" offset="0%"></stop>
            <stop stop-color="#FFFFFF" stop-opacity="0" offset="100%"></stop>
        </linearGradient>
        <linearGradient x1="12.8170854%" y1="-14.3268853%" x2="82.862172%" y2="131.49914%" id="linearGradient-23">
            <stop stop-color="#7694FF" offset="0%"></stop>
            <stop stop-color="#85F5FF" offset="100%"></stop>
        </linearGradient>
        <path d="M7.10709009,-4.38078775e-14 L16.4115008,3.00591261e-15 L16.4115008,3.68485683e-15 C16.4115008,3.06186679 18.8936342,5.54400025 21.955501,5.54400025 L46.2105021,5.54400025 C49.2723689,5.54400025 51.7545023,3.06186679 51.7545023,3.00591261e-15 L61.058913,-3.81805212e-14 C63.530203,-4.52193293e-14 64.4263525,0.257312606 65.3298192,0.740491888 C66.233286,1.22367117 66.9423319,1.93271713 67.4255112,2.83618384 C67.9086905,3.73965054 68.1660031,4.63580003 68.1660031,7.10709009 L68.1660031,131.744916 C68.1660031,134.216206 67.9086905,135.112356 67.4255112,136.015822 C66.9423319,136.919289 66.233286,137.628335 65.3298192,138.111514 C64.4263525,138.594694 63.530203,138.852006 61.058913,138.852006 L7.10709009,138.852006 C4.63580003,138.852006 3.73965054,138.594694 2.83618384,138.111514 C1.93271713,137.628335 1.22367117,136.919289 0.740491888,136.015822 C0.257312606,135.112356 6.32847139e-15,134.216206 6.02582564e-15,131.744916 L-7.80218248e-15,7.10709009 C-8.10482823e-15,4.63580003 0.257312606,3.73965054 0.740491888,2.83618384 C1.22367117,1.93271713 1.93271713,1.22367117 2.83618384,0.740491888 C3.73965054,0.257312606 4.63580003,-4.33539089e-14 7.10709009,-4.38078775e-14 Z" id="path-24"></path>
        <linearGradient x1="0%" y1="-36.8917067%" x2="100%" y2="120.095071%" id="linearGradient-26">
            <stop stop-color="#FFE3C3" offset="0%"></stop>
            <stop stop-color="#FF7BB5" offset="100%"></stop>
        </linearGradient>
        <linearGradient x1="0%" y1="-38.4321422%" x2="105.69539%" y2="141.807496%" id="linearGradient-27">
            <stop stop-color="#DF81FF" offset="0%"></stop>
            <stop stop-color="#B7AAFF" offset="100%"></stop>
        </linearGradient>
    </defs>
    <g id="Page-1" stroke="none" stroke-width="1" fill="none" fill-rule="evenodd">
        <g id="Final" transform="translate(0.000000, -3293.000000)">
            <g id="high-speed-and-" transform="translate(-103.000000, 3260.000000)">
                <g id="illustration-3" transform="translate(0.000000, 29.000000)">
                    <g id="Group-20" transform="translate(0.000000, 36.000000)">
                        <path d="M55.4516403,190.63838 L475.69133,131.577543 C497.320972,128.537695 505.480914,129.687468 513.98273,132.805108 C522.484546,135.922749 529.56255,141.256408 534.902837,148.56954 C540.243123,155.882671 543.59754,163.409591 546.637388,185.039233 L599.319458,559.891636 C602.359306,581.521278 601.209533,589.681221 598.091893,598.183036 C594.974253,606.684852 589.640594,613.762857 582.327462,619.103143 C575.01433,624.44343 567.48741,627.797847 545.857768,630.837695 L125.618079,689.898531 C103.988436,692.938379 95.8284943,691.788607 87.3266783,688.670967 C78.8248624,685.553326 71.7468578,680.219667 66.4065715,672.906535 C61.0662852,665.593403 57.711868,658.066484 54.67202,636.436842 L1.98995044,261.584439 C-1.04989754,239.954797 0.0998749766,231.794854 3.21751532,223.293038 C6.33515566,214.791222 11.6688147,207.713218 18.9819466,202.372932 C26.2950784,197.032645 33.8219981,193.678228 55.4516403,190.63838 Z" id="Rectangle-11" stroke="#4381FF" opacity="0.300000012"></path>
                        <g id="Group-89" transform="translate(24.000000, 0.000000)">
                            <mask id="mask-3" fill="white">
                                <use xlink:href="#path-2"></use>
                            </mask>
                            <use id="Rectangle-11" fill="url(#linearGradient-1)" xlink:href="#path-2"></use>
                            <circle id="Oval-31" fill="#FFFFFF" opacity="0.200000003" mask="url(#mask-3)" cx="620.5" cy="297.5" r="5.5"></circle>
                            <circle id="Oval-32" fill="#FFFFFF" opacity="0.200000003" mask="url(#mask-3)" cx="471" cy="159" r="4"></circle>
                            <circle id="Oval-33" fill="#FFFFFF" opacity="0.200000003" mask="url(#mask-3)" cx="218" cy="204" r="7"></circle>
                            <polygon id="Rectangle-36" stroke="#FFFFFF" stroke-width="50" opacity="0.0799999982" stroke-linecap="round" stroke-linejoin="round" mask="url(#mask-3)" points="-28.6292868 82.9454292 123.054571 -4.62928681 210.629287 147.054571 58.9454292 234.629287"></polygon>
                            <polygon id="Rectangle-36" stroke="#FFFFFF" stroke-width="50" opacity="0.100000001" stroke-linecap="round" stroke-linejoin="round" mask="url(#mask-3)" points="566.804122 428.696115 717.737294 341.554807 804.878601 492.487979 653.945429 579.629287"></polygon>
                            <polygon id="Rectangle-36" stroke="#FFFFFF" stroke-width="50" opacity="0.049999997" stroke-linecap="round" stroke-linejoin="round" mask="url(#mask-3)" points="-202.861981 36.2599195 169.740081 -178.861981 384.861981 193.740081 12.2599195 408.861981"></polygon>
                            <g id="Group-93" mask="url(#mask-3)">
                                <g transform="translate(100.000000, 411.000000)">
                                    <mask id="mask-5" fill="white">
                                        <use xlink:href="#path-4"></use>
                                    </mask>
                                    <use id="Path-71" stroke="none" fill="#354EEC" fill-rule="evenodd" xlink:href="#path-4"></use>
                                    <path d="M-1.29030948,-2.06184797 C26.7039829,60.6746708 63.1150221,108.12191 107.942808,140.279871" id="Path-79" stroke="#222D9F" stroke-width="0.7" fill="none" mask="url(#mask-5)"></path>
                                    <polyline id="Path-80" stroke="#222D9F" stroke-width="0.7" fill="none" mask="url(#mask-5)" points="-1.44355576 38.1616974 19.1186495 38.1616974 24.1032859 9.15006154"></polyline>
                                    <polyline id="Path-81" stroke="#222D9F" stroke-width="0.7" fill="none" mask="url(#mask-5)" points="2.5736042 66.6733542 37.0107066 66.6733542 50.500736 24.1082992"></polyline>
                                    <polyline id="Path-82" stroke="#222D9F" stroke-width="0.7" fill="none" mask="url(#mask-5)" points="13.4925377 99.1288948 57.720581 93.8239536 79.3506826 50.9888036"></polyline>
                                </g>
                            </g>
                            <g id="Group-92" mask="url(#mask-3)">
                                <g transform="translate(589.000000, 468.000000)">
                                    <mask id="mask-7" fill="white">
                                        <use xlink:href="#path-6"></use>
                                    </mask>
                                    <use id="Path-70" stroke="none" fill="#415AF9" fill-rule="evenodd" xlink:href="#path-6"></use>
                                    <path d="M7.95779704,20.2577464 L25.7711115,83.3794689" id="Path-75" stroke="#222D9F" stroke-width="0.7" fill="none" mask="url(#mask-7)"></path>
                                    <path d="M0.209771845,27.7610924 L20.7367352,80.6395066" id="Path-76" stroke="#222D9F" stroke-width="0.7" fill="none" mask="url(#mask-7)"></path>
                                    <path d="M39.0726083,-2.54003307 C34.7441108,33.7524586 31.5979728,61.6737934 29.6341944,81.2239713" id="Path-77" stroke="#222D9F" stroke-width="0.7" fill="none" mask="url(#mask-7)"></path>
                                    <path d="M47.1883013,-0.879677957 C45.0736106,32.0543754 40.8256849,59.3503193 34.4445242,81.0081539" id="Path-78" stroke="#222D9F" stroke-width="0.7" fill="none" mask="url(#mask-7)"></path>
                                </g>
                            </g>
                            <g id="Group-91" mask="url(#mask-3)">
                                <g transform="translate(507.000000, 401.000000)">
                                    <mask id="mask-9" fill="white">
                                        <use xlink:href="#path-8"></use>
                                    </mask>
                                    <use id="Path-69" stroke="none" fill="#222D9F" fill-rule="evenodd" xlink:href="#path-8"></use>
                                    <path d="M71.8829913,-0.380735913 L8.14727182,141.881679" id="Path-72" stroke="#6D8DE7" stroke-width="0.75600006" fill="none" mask="url(#mask-9)"></path>
                                    <path d="M53.385598,1.97998535 L8.03905984,128.243058" id="Path-73" stroke="#6D8DE7" stroke-width="0.75600006" fill="none" mask="url(#mask-9)"></path>
                                    <path d="M80.4448701,13.8160811 L21.2674761,128.993955" id="Path-74" stroke="#6D8DE7" stroke-width="0.75600006" fill="none" mask="url(#mask-9)"></path>
                                </g>
                            </g>
                            <path d="M409.409713,226 L552.590287,226 C554.819084,226 555.627299,226.232064 556.442114,226.667832 C557.256929,227.103599 557.896401,227.743071 558.332168,228.557886 C558.767936,229.372701 559,230.180916 559,232.409713 L559,324.590287 C559,326.819084 558.767936,327.627299 558.332168,328.442114 C557.896401,329.256929 557.256929,329.896401 556.442114,330.332168 C555.627299,330.767936 554.819084,331 552.590287,331 L409.409713,331 C407.180916,331 406.372701,330.767936 405.557886,330.332168 C404.743071,329.896401 404.103599,329.256929 403.667832,328.442114 C403.232064,327.627299 403,326.819084 403,324.590287 L403,232.409713 C403,230.180916 403.232064,229.372701 403.667832,228.557886 C404.103599,227.743071 404.743071,227.103599 405.557886,226.667832 C406.372701,226.232064 407.180916,226 409.409713,226 Z" id="Rectangle-34" fill="#FFFFFF" opacity="0.200000003" mask="url(#mask-3)"></path>
                            <g id="Group-48" mask="url(#mask-3)">
                                <g transform="translate(134.831673, 299.750000)">
                                    <g id="Group-58" stroke-width="1" fill="none" transform="translate(51.000000, -0.000000)">
                                        <mask id="mask-11" fill="white">
                                            <use xlink:href="#path-10"></use>
                                        </mask>
                                        <use id="Rectangle-20" fill="#EBEBFF" xlink:href="#path-10"></use>
                                        <g id="Group-62" mask="url(#mask-11)">
                                            <g transform="translate(11.291920, 15.883405)">
                                                <g id="Group-123" stroke="none" stroke-width="1" fill-rule="evenodd">
                                                    <mask id="mask-13" fill="white">
                                                        <use xlink:href="#path-12"></use>
                                                    </mask>
                                                    <use id="Rectangle-20" fill="#222D9F" xlink:href="#path-12"></use>
                                                    <circle id="Oval-27" stroke="#FFFFFF" stroke-width="20" opacity="0.100000001" mask="url(#mask-13)" cx="285.949642" cy="199.050358" r="45.0503578"></circle>
                                                    <circle id="Oval-27" stroke="#FFFFFF" stroke-width="20" opacity="0.0700000003" mask="url(#mask-13)" cx="285.949642" cy="199.050358" r="100.651087"></circle>
                                                </g>
                                                <path d="M35.5392713,36.5531517 L90.1330792,36.5531517" id="Path-153" stroke="#FFFFFF" stroke-width="5"></path>
                                                <path d="M35.5392713,54.5531517 L130.133079,54.5531517" id="Path-153" stroke="#FFFFFF" stroke-width="4" opacity="0.5"></path>
                                                <path d="M35.5392713,70.5531517 L90.1330792,70.5531517" id="Path-153" stroke="#FFFFFF" stroke-width="4" opacity="0.5"></path>
                                            </g>
                                        </g>
                                        <polygon id="Path-31" fill="#000B83" opacity="0.25" mask="url(#mask-11)" points="-0.105231692 204.866616 334.664897 224.539677 -0.105231692 231.357365"></polygon>
                                    </g>
                                    <path d="M0.0559222325,224.433648 L431.259408,224.433648 L431.259408,224.433648 C431.259408,237.116038 420.9783,247.397147 408.295909,247.397147 L23.0194215,247.397147 C10.337031,247.397147 0.0559222325,237.116038 0.0559222325,224.433648 Z" id="Rectangle-20" fill="#FFFFFF"></path>
                                    <path d="M185.039666,223.941338 L246.275664,223.941338 L246.275664,223.941338 C246.275664,229.577956 241.706283,234.147338 236.069665,234.147338 L195.245666,234.147338 C189.609048,234.147338 185.039666,229.577956 185.039666,223.941338 Z" id="Rectangle-21" fill="#222D9F" opacity="0.5"></path>
                                </g>
                            </g>
                            <g id="Group-54" mask="url(#mask-3)">
                                <g transform="translate(67.143351, 546.314776)">
                                    <mask id="mask-15" fill="white">
                                        <use xlink:href="#path-14"></use>
                                    </mask>
                                    <use id="Rectangle-31" stroke="none" fill="#222D9F" fill-rule="evenodd" xlink:href="#path-14"></use>
                                    <circle id="Oval-7" stroke="#0E1665" stroke-width="1" fill="none" stroke-linecap="round" stroke-linejoin="round" mask="url(#mask-15)" cx="354.054774" cy="6.05477409" r="29.9452259"></circle>
                                    <polygon id="Rectangle-32" stroke="none" fill="#47A1F8" fill-rule="evenodd" opacity="0.5" mask="url(#mask-15)" points="93 37 160 37 160 104 93 104"></polygon>
                                    <polygon id="Rectangle-32" stroke="#0E1665" stroke-width="1" fill="none" stroke-linecap="round" stroke-linejoin="round" mask="url(#mask-15)" points="109 25 176 25 176 92 109 92"></polygon>
                                    <path d="M23.0032664,84.7352529 L66.01525,-4.02946739" id="Path-12" stroke="#0E1665" stroke-width="1" fill="none" stroke-linecap="round" stroke-linejoin="round" mask="url(#mask-15)"></path>
                                    <path d="M466.820726,19.4319606 C224.6388,51.4850818 89.5651076,65.7448526 61.5996479,62.211273 C33.6341883,58.6776935 16.8486398,48.5526289 11.2430027,31.8360794 L11.2430027,53.8059536 C17.383904,78.7166441 39.6580005,87.8997693 78.0652924,81.355329 C116.472584,74.8108887 246.057729,54.1697659 466.820726,19.4319606 Z" id="Path-26" stroke="none" fill="#000000" fill-rule="evenodd" opacity="0.200000003" mask="url(#mask-15)"></path>
                                </g>
                            </g>
                        </g>
                    </g>
                    <g id="Group-125" transform="translate(60.000000, 254.000000)">
                        <path d="M0.68029466,138.949649 C23.6865433,212.504274 45.8833643,244.216881 67.2707575,234.087472 C99.3518473,218.893357 69.4207701,18.6964406 107.892466,2.74608906 C146.364162,-13.2042625 152.420553,80.8401093 177.346302,80.8401093 C202.272051,80.8401093 201.352349,34.2274779 229.352878,34.2274779 C236.821347,34.2274779 247.529691,34.2274779 261.477909,34.2274779" id="Path-66" stroke="url(#linearGradient-16)" stroke-width="3" stroke-linecap="round" stroke-linejoin="round"></path>
                        <path d="M276.712669,35.5296793 L254.609683,49.0370595 C254.138429,49.3250484 253.52294,49.1764822 253.234951,48.7052277 C253.139002,48.5482197 253.088233,48.3677824 253.088233,48.1837777 L253.088233,20.4460007 C253.088233,19.8937159 253.535948,19.4460007 254.088233,19.4460007 C254.280217,19.4460007 254.468143,19.5012646 254.629565,19.6051915 L276.732551,33.8355884 C277.196917,34.1345576 277.330997,34.7533632 277.032028,35.2177292 C276.950443,35.3444497 276.841269,35.4510903 276.712669,35.5296793 Z" id="Triangle-4" fill="#FFFFFF" opacity="0.5" filter="url(#filter-17)"></path>
                        <path d="M268.139855,35.3013283 L262.02145,39.0403537 C261.550195,39.3283426 260.934707,39.1797764 260.646718,38.7085219 C260.550769,38.551514 260.5,38.3710766 260.5,38.1870719 L260.5,30.5088803 C260.5,29.9565955 260.947715,29.5088803 261.5,29.5088803 C261.691984,29.5088803 261.87991,29.5641442 262.041332,29.6680711 L268.159737,33.6072373 C268.624103,33.9062066 268.758184,34.5250121 268.459214,34.9893782 C268.377629,35.1160987 268.268456,35.2227392 268.139855,35.3013283 Z" id="Triangle-4" fill="#FFFFFF"></path>
                    </g>
                    <g id="Group-130" transform="translate(442.000000, 278.000000)">
                        <rect id="Rectangle-34" fill="url(#linearGradient-18)" x="0" y="0" width="156" height="105" rx="5"></rect>
                        <g id="Group-124" transform="translate(79.000000, 34.000000)" stroke="#FFFFFF">
                            <path d="M0.662864842,1.1865566 L45.2566727,1.1865566" id="Path-153" stroke-width="5"></path>
                            <path d="M0.662864842,21.1865566 L55.2566727,21.1865566" id="Path-153" stroke-width="4" opacity="0.5"></path>
                            <path d="M0.662864842,37.1865566 L45.2566727,37.1865566" id="Path-153" stroke-width="4" opacity="0.5"></path>
                        </g>
                        <path d="M57.8790258,55.9778262 L25.9760376,74.1045241 C24.0552872,75.1958595 21.6135092,74.5234859 20.5221738,72.6027355 C20.1799318,72.0003896 20,71.3194822 20,70.6266978 L20,34.3733022 C20,32.1641632 21.790861,30.3733022 24,30.3733022 C24.6927844,30.3733022 25.3736917,30.5532339 25.9760376,30.8954759 L57.8790258,49.0221738 C59.7997762,50.1135092 60.4721499,52.5552872 59.3808144,54.4760376 C59.0246909,55.102815 58.5058032,55.6217027 57.8790258,55.9778262 Z" id="Triangle-3" fill="#FFFFFF"></path>
                    </g>
                    <g id="Group-90" transform="translate(358.000000, 196.000000) rotate(20.000000) translate(-358.000000, -196.000000) translate(288.000000, 161.000000)">
                        <mask id="mask-21" fill="white">
                            <use xlink:href="#path-20"></use>
                        </mask>
                        <use id="Oval-16" fill="url(#linearGradient-19)" xlink:href="#path-20"></use>
                        <path d="M117.623014,70.5860468 C117.623014,70.5860468 117.623014,70.5860468 117.623014,70.5860468 C115.872591,45.7998757 95.2104367,26.2356586 69.9788151,26.2356586 C44.9569994,26.2356586 24.4289753,45.4758678 22.3821965,69.9688326 C22.3821965,69.9688326 22.3821965,69.9688326 22.3821965,69.9688326 L22.3821965,69.9688326 C22.211048,72.0168976 23.7325894,73.8159257 25.7806544,73.9870743 C25.8837272,73.9956877 25.9871143,74 26.0905463,74 L114.441688,73.9999643 C116.203061,73.9999643 117.630937,72.5720888 117.630937,70.810715 C117.630937,70.7357558 117.628294,70.6608198 117.623014,70.5860468 Z" id="Oval-16" fill="#FFFFFF" opacity="0.100000001" mask="url(#mask-21)" transform="translate(70.000000, 50.117829) scale(-1, 1) translate(-70.000000, -50.117829) "></path>
                        <path d="M114.811859,71.8367755 C114.811859,71.7618162 114.809216,71.6868802 114.803936,71.6121072 C114.803936,71.6121072 114.803936,71.6121072 114.803936,71.6121072 C113.053513,46.8259361 92.3913589,27.261719 67.1597373,27.261719 C53.479008,27.261719 41.1416429,33.0133451 32.4338196,42.2304198" id="Oval-16" stroke="url(#linearGradient-22)" stroke-width="2" stroke-linecap="round" stroke-linejoin="round" mask="url(#mask-21)" transform="translate(68.886718, 51.137427) scale(-1, 1) translate(-68.886718, -51.137427) "></path>
                        <polygon id="Path-67" fill="#FFFFFF" mask="url(#mask-21)" transform="translate(87.033023, 55.354174) rotate(50.000000) translate(-87.033023, -55.354174) " points="81.3977989 69.9283675 92.6682468 69.9283675 87.0330229 40.7799808"></polygon>
                        <path d="M83.1670423,70.05608 C83.1670423,70.05608 83.1670423,70.05608 83.1670423,70.05608 C82.6830768,63.2030789 76.9703041,57.7938691 69.9941427,57.7938691 C63.0759895,57.7938691 57.4003016,63.1134956 56.8343983,69.8854296 C56.8343983,69.8854296 56.8343983,69.8854296 56.8343983,69.8854296 L56.8343983,69.8854296 C56.7870777,70.4516955 57.207766,70.9491056 57.774032,70.9964262 C57.8025304,70.9988077 57.8311157,71 57.8597134,71 L82.2874664,70.999963 C82.7744526,70.999963 83.1692329,70.6051827 83.1692329,70.1181965 C83.1692329,70.0974717 83.1685023,70.0767533 83.1670423,70.05608 Z" id="Oval-16" fill="#FFFFFF" mask="url(#mask-21)"></path>
                        <path d="M70,-2.7451643 L70,3.67929911" id="Path-68" stroke="#FFFFFF" stroke-width="4" stroke-linecap="round" stroke-linejoin="round" mask="url(#mask-21)"></path>
                        <path d="M13.7286092,23.1956766 L18.2713908,27.7384582" id="Path-68" stroke="#FFFFFF" stroke-width="4" stroke-linecap="round" stroke-linejoin="round" mask="url(#mask-21)"></path>
                        <path d="M121.728609,23.1956766 L126.271391,27.7384582" id="Path-68" stroke="#FFFFFF" stroke-width="4" stroke-linecap="round" stroke-linejoin="round" mask="url(#mask-21)" transform="translate(124.000000, 25.467067) scale(-1, 1) translate(-124.000000, -25.467067) "></path>
                    </g>
                    <g id="Group-47" transform="translate(518.637943, 87.558742) rotate(-30.000000) translate(-518.637943, -87.558742) translate(477.637943, 11.058742)">
                        <path d="M12.4374077,-2.27884299e-15 L69.336596,5.02486156e-16 C73.6613536,-2.91958927e-16 75.2296152,0.45029706 76.8106819,1.2958608 C78.3917487,2.14142455 79.6325791,3.38225498 80.4781428,4.96332171 C81.3237066,6.54438845 81.7740036,8.11265006 81.7740036,12.4374077 L81.7740036,140.022599 C81.7740036,144.347357 81.3237066,145.915618 80.4781428,147.496685 C79.6325791,149.077752 78.3917487,150.318582 76.8106819,151.164146 C75.2296152,152.00971 73.6613536,152.460007 69.336596,152.460007 L12.4374077,152.460007 C8.11265006,152.460007 6.54438845,152.00971 4.96332171,151.164146 C3.38225498,150.318582 2.14142455,149.077752 1.2958608,147.496685 C0.45029706,145.915618 1.97099612e-15,144.347357 1.44136607e-15,140.022599 L3.3499077e-16,12.4374077 C-1.94639285e-16,8.11265006 0.45029706,6.54438845 1.2958608,4.96332171 C2.14142455,3.38225498 3.38225498,2.14142455 4.96332171,1.2958608 C6.54438845,0.45029706 8.11265006,-1.48439791e-15 12.4374077,-2.27884299e-15 Z" id="Rectangle-23" fill="url(#linearGradient-23)"></path>
                        <g id="Group-66" transform="translate(7.301095, 6.517002)">
                            <mask id="mask-25" fill="white">
                                <use xlink:href="#path-24"></use>
                            </mask>
                            <use id="Rectangle-23" fill="#222D9F" xlink:href="#path-24"></use>
                            <g id="Group-65" mask="url(#mask-25)">
                                <g transform="translate(7.557305, 20.585385)">
                                    <g id="Group-64" stroke-width="1" fill="none" transform="translate(0.000000, -0.000000)">
                                        <rect id="Rectangle-22" fill="url(#linearGradient-19)" x="0.642951242" y="0.478668241" width="44.6677012" height="79.1868017" rx="2.31000001"></rect>
                                        <g id="Group-60" transform="translate(6.930000, 61.068700)" stroke="#FFFFFF">
                                            <path d="M0,0.392699994 L13.8991721,0.392699994" id="Path-32" stroke-width="1.92500001"></path>
                                            <path d="M0,5.87509993 L23.7166719,5.87509993" id="Path-32" stroke-width="1.38600001" opacity="0.600000024"></path>
                                            <path d="M0,9.72509995 L19.0966719,9.72509995" id="Path-32" stroke-width="1.38600001" opacity="0.600000024"></path>
                                        </g>
                                        <path d="M25.6537469,27.9216212 L19.3895953,31.4807983 C19.012456,31.695082 18.5330128,31.5630614 18.3187291,31.1859221 C18.2515299,31.0676515 18.2162003,30.9339553 18.2162003,30.7979271 L18.2162003,23.679573 C18.2162003,23.2458085 18.5678359,22.894173 19.0016003,22.894173 C19.1376285,22.894173 19.2713247,22.9295026 19.3895953,22.9967018 L25.6537469,26.5558789 C26.0308863,26.7701626 26.1629068,27.2496057 25.9486231,27.626745 C25.8786983,27.7498127 25.7768147,27.8516964 25.6537469,27.9216212 Z" id="Triangle-3" fill="#FFFFFF"></path>
                                    </g>
                                    <rect id="Rectangle-22-Copy" fill="url(#linearGradient-26)" opacity="0.5" x="51.7300003" y="4.32866826" width="44.6677012" height="71.4868017" rx="2.31000001"></rect>
                                </g>
                            </g>
                        </g>
                        <path d="M30.4920014,138.459224 L51.2820023,138.459224" id="Path-8" stroke="#FFFFFF" stroke-width="2.77200012" stroke-linecap="round" stroke-linejoin="round"></path>
                    </g>
                    <g id="Group-131" transform="translate(167.000000, 483.000000)">
                        <rect id="Rectangle-35" fill="url(#linearGradient-27)" x="0.356278788" y="0.756793609" width="330" height="40" rx="5"></rect>
                        <path d="M15.6628648,12.1865566 L40.2566727,12.1865566" id="Path-153" stroke="#FFFFFF" stroke-width="4"></path>
                        <path d="M15.6628648,26.1865566 L315.256673,26.1865566" id="Path-153" stroke="#FFFFFF" stroke-width="3" opacity="0.400000006"></path>
                        <path d="M15.6628648,26.1865566 L219.614558,26.1865566" id="Path-153" stroke="#FFFFFF" stroke-width="3"></path>
                        <path d="M222.639855,26.792448 L216.52145,30.5314734 C216.050195,30.8194623 215.434707,30.6708962 215.146718,30.1996416 C215.050769,30.0426337 215,29.8621964 215,29.6781916 L215,22 C215,21.4477153 215.447715,21 216,21 C216.191984,21 216.37991,21.0552639 216.541332,21.1591909 L222.659737,25.0983571 C223.124103,25.3973263 223.258184,26.0161319 222.959214,26.4804979 C222.877629,26.6072184 222.768456,26.713859 222.639855,26.792448 Z" id="Triangle-4" fill="#FFFFFF"></path>
                    </g>
                </g>
            </g>
        </g>
    </g>
</svg>