<?xml version="1.0" encoding="UTF-8"?>
<svg width="573px" height="665px" viewBox="0 0 573 665" version="1.1" xmlns="http://www.w3.org/2000/svg" xmlns:xlink="http://www.w3.org/1999/xlink">
    <!-- Generator: Sketch 51.2 (57519) - http://www.bohemiancoding.com/sketch -->
    <title>Illustration 2</title>
    <desc>Created with Sketch.</desc>
    <defs>
        <linearGradient x1="0%" y1="-51.444539%" x2="89.8404219%" y2="148.648915%" id="linearGradient-1">
            <stop stop-color="#4F33E2" offset="0%"></stop>
            <stop stop-color="#44C7FF" offset="100%"></stop>
        </linearGradient>
        <path d="M83.7975173,61.6460855 L507.121467,2.15178422 C526.985424,-0.639912828 534.479248,0.41600068 542.287038,3.27913969 C550.094828,6.14227871 556.595036,11.0405369 561.49938,17.7566782 C566.403725,24.4728195 569.484312,31.3852966 572.276009,51.2492532 L625.109619,427.179923 C627.901316,447.04388 626.845403,454.537704 623.982264,462.345494 C621.119125,470.153284 616.220866,476.653492 609.504725,481.557837 C602.788584,486.462181 595.876107,489.542768 576.01215,492.334465 L152.6882,551.828766 C132.824244,554.620464 125.33042,553.56455 117.52263,550.701411 C109.71484,547.838272 103.214632,542.940014 98.3102871,536.223873 C93.4059426,529.507731 90.3253555,522.595254 87.5336584,502.731297 L34.7000483,126.800627 C31.9083512,106.936671 32.9642648,99.4428465 35.8274038,91.6350566 C38.6905428,83.8272666 43.5888009,77.3270585 50.3049423,72.4227141 C57.0210836,67.5183696 63.9335607,64.4377825 83.7975173,61.6460855 Z" id="path-2"></path>
        <path d="M13.1591216,129.334967 C-5.50127881,43.3140738 -2.69974055,0.303627165 21.5637364,0.303627165 C45.8272133,0.303627165 47.2902146,43.3140738 25.9527405,129.334967 L13.1591216,129.334967 Z" id="path-4"></path>
        <path d="M9.7047737,178.90185 C-7.72723929,64.5473624 0.56382741,5.24800534 34.5779738,1.00377908 C68.5921202,-3.24044719 66.8751221,56.0589099 29.4269795,178.90185 L9.7047737,178.90185 Z" id="path-6"></path>
        <path d="M6.65038099,77.4763978 C5.42858971,38.3643057 20.8661019,13.801342 52.9629176,3.78750692 C58.6297923,46.746448 46.2293494,71.8749385 15.7615888,79.1729785 L6.65038099,77.4763978 Z" id="path-8"></path>
        <path d="M38.1822232,19.9657685 L52.3299165,63.4488171 C42.9187144,54.346718 31.0760154,43.9098671 16.8018196,32.1382646 C-4.60947421,14.4808607 6.80958828,-3.27832847 16.8018196,1.45374985 C23.4633071,4.60846873 30.5901083,10.7791416 38.1822232,19.9657685 Z M36.1822232,74.9657685 L50.3299165,118.448817 C40.9187144,112.894472 29.0760154,104.231498 14.8018196,92.4598958 C-6.60947421,74.8024919 0.0325018573,53.3439094 10.0247331,58.0759877 C16.6862207,61.2307066 25.405384,66.8606335 36.1822232,74.9657685 Z M41.1822232,119.965768 L55.3299165,163.448817 C45.9187144,157.894472 34.0760154,149.231498 19.8018196,137.459896 C-1.60947421,119.802492 5.03250186,98.3439094 15.0247331,103.075988 C21.6862207,106.230707 30.405384,111.860634 41.1822232,119.965768 Z M59.6825826,191.389369 L65.3299165,230.448817 C55.9187144,224.894472 44.0760154,216.231498 29.8018196,204.459896 C8.39052579,186.802492 15.0325019,165.343909 25.0247331,170.075988 C31.6862207,173.230707 43.2388371,180.335167 59.6825826,191.389369 Z" id="path-10"></path>
        <path d="M18.0292392,-1.16159497e-13 L44.5924361,1.30934744e-13 L44.5924361,1.32581183e-13 C44.5924361,7.42502731 50.61161,13.4442012 58.0366373,13.4442012 L116.855018,13.4442012 C124.280045,13.4442012 130.299219,7.42502731 130.299219,1.30934744e-13 L156.862416,-8.94240966e-14 C162.855294,-1.27784189e-13 165.028457,0.623983097 167.219364,1.79569291 C169.410271,2.96740273 171.129707,4.68683926 172.301417,6.87774612 C173.473127,9.06865299 174.09711,11.2418156 174.09711,17.2346943 L174.09711,323.481436 C174.09711,329.474315 173.473127,331.647478 172.301417,333.838385 C171.129707,336.029291 169.410271,337.748728 167.219364,338.920438 C165.028457,340.092148 162.855294,340.716131 156.862416,340.716131 L18.0292392,340.716131 C12.0363605,340.716131 9.8631979,340.092148 7.67229104,338.920438 C5.48138417,337.748728 3.76194764,336.029291 2.59023783,333.838385 C1.41852801,331.647478 0.794544915,329.474315 0.794544915,323.481436 L0.794544915,17.2346943 C0.794544915,11.2418156 1.41852801,9.06865299 2.59023783,6.87774612 C3.76194764,4.68683926 5.48138417,2.96740273 7.67229104,1.79569291 C9.8631979,0.623983097 12.0363605,-1.15058623e-13 18.0292392,-1.16159497e-13 Z" id="path-12"></path>
        <linearGradient x1="0%" y1="-38.4321422%" x2="105.69539%" y2="141.807496%" id="linearGradient-14">
            <stop stop-color="#DF81FF" offset="0%"></stop>
            <stop stop-color="#775DFF" offset="100%"></stop>
        </linearGradient>
        <linearGradient x1="0%" y1="-36.8917067%" x2="100%" y2="120.095071%" id="linearGradient-15">
            <stop stop-color="#FFE3C3" offset="0%"></stop>
            <stop stop-color="#FF7BB5" offset="100%"></stop>
        </linearGradient>
        <path d="M86.5314045,62.5145566 C45.7529807,51.9273752 26.7798302,31.2711323 29.611953,0.545827909 C72.0563314,13.7036809 97.6713799,21.4196812 106.457098,23.6938288 C119.635676,27.1050502 148.402317,74.4591737 156.111641,94.0454421 C161.25119,107.102954 169.209938,141.775374 179.987885,198.0627 L228.447111,257.397597 L66.4644515,279.764629 L43.5849452,253.022758 C25.3552119,247.607519 11.0336342,240.254495 0.620212371,230.963684 L82.8317049,219.159522 C96.4297228,217.207079 105.904841,204.648534 104.049524,191.036924 L86.5314045,62.5145566 Z" id="path-16"></path>
        <path d="M37.1762907,177.931786 C0.924823622,73.2645429 -8.13804316,14.6531016 9.9876904,2.09746224 C28.113424,-10.4581772 41.3785193,46.705801 49.7829764,173.589397 L37.1762907,177.931786 Z" id="path-18"></path>
        <path d="M3.05138924,106.701543 C-3.434145,39.7743271 2.58474251,4.41181859 21.1080518,0.614017468 C39.631361,-3.18378365 39.631361,32.1787249 21.1080518,106.701543 L3.05138924,106.701543 Z" id="path-20"></path>
        <linearGradient x1="12.8170854%" y1="-14.3268853%" x2="78.3966336%" y2="126.72065%" id="linearGradient-22">
            <stop stop-color="#77B6FF" offset="0%"></stop>
            <stop stop-color="#85F5FF" offset="100%"></stop>
        </linearGradient>
        <linearGradient x1="-14.8594035%" y1="-12.2058935%" x2="109.179555%" y2="107.813531%" id="linearGradient-23">
            <stop stop-color="#FFFFFF" offset="0%"></stop>
            <stop stop-color="#9DCCFF" offset="100%"></stop>
        </linearGradient>
        <linearGradient x1="7.37834965%" y1="-18.5944524%" x2="89.0122499%" y2="104.696384%" id="linearGradient-24">
            <stop stop-color="#FFC6A3" offset="0%"></stop>
            <stop stop-color="#FF7BA1" offset="100%"></stop>
        </linearGradient>
        <linearGradient x1="0%" y1="-38.4321422%" x2="89.8769442%" y2="120.065613%" id="linearGradient-25">
            <stop stop-color="#E38FFF" offset="0%"></stop>
            <stop stop-color="#9581FF" offset="100%"></stop>
        </linearGradient>
        <linearGradient x1="0%" y1="100%" x2="128.767774%" y2="-33.111868%" id="linearGradient-26">
            <stop stop-color="#FFC5B5" offset="0%"></stop>
            <stop stop-color="#FF83D6" offset="100%"></stop>
        </linearGradient>
        <path d="M47.7869472,80.5813705 C53.3058052,37.5690192 38.9539821,10.8252874 4.73147784,0.350175106 C-5.04509344,37.4971818 3.65197143,65.1145932 30.8226725,83.2024094 L47.7869472,80.5813705 Z" id="path-27"></path>
    </defs>
    <g id="Page-1" stroke="none" stroke-width="1" fill="none" fill-rule="evenodd">
        <g id="Final" transform="translate(-867.000000, -2337.000000)">
            <g id="worldwide-channels" transform="translate(0.000000, 2200.000000)">
                <g id="Illustration-2" transform="translate(867.550008, 136.250008)">
                    <g id="Group-20" transform="translate(0.000000, 61.000000)">
                        <path d="M50.2064748,152.974538 L428.422185,99.8197863 C447.888863,97.0839232 455.23281,98.1187184 462.884445,100.924595 C470.536079,103.730471 476.906283,108.530764 481.71254,115.112582 C486.518798,121.694401 489.537773,128.468628 492.273636,147.935306 L539.687498,485.302459 C542.423361,504.769137 541.388565,512.113085 538.582689,519.764719 C535.776813,527.416353 530.97652,533.786557 524.394701,538.592815 C517.812883,543.399072 511.038655,546.418047 491.571978,549.153911 L113.356268,602.308662 C93.8895902,605.044525 86.5456424,604.00973 78.8940082,601.203854 C71.2423741,598.397978 64.8721701,593.597685 60.0659126,587.015866 C55.259655,580.434048 52.2406796,573.65982 49.5048165,554.193143 L2.09095518,216.825989 C-0.644907928,197.359312 0.38988731,190.015364 3.19576354,182.36373 C6.00163978,174.712095 10.8019328,168.341892 17.3837513,163.535634 C23.9655698,158.729376 30.7397973,155.710401 50.2064748,152.974538 Z" id="Rectangle-11" stroke="#4381FF" opacity="0.300000012"></path>
                        <mask id="mask-3" fill="white">
                            <use xlink:href="#path-2"></use>
                        </mask>
                        <use id="Rectangle-11" fill="url(#linearGradient-1)" xlink:href="#path-2"></use>
                        <circle id="Oval-28" fill="#FFFFFF" opacity="0.200000003" mask="url(#mask-3)" cx="108" cy="188" r="9"></circle>
                        <circle id="Oval-29" fill="#FFFFFF" opacity="0.200000003" mask="url(#mask-3)" cx="479.5" cy="306.5" r="3.5"></circle>
                        <circle id="Oval-30" fill="#FFFFFF" opacity="0.200000003" mask="url(#mask-3)" cx="382.5" cy="72.5" r="3.5"></circle>
                        <circle id="Oval-11" stroke="#FFFFFF" stroke-width="50" opacity="0.100000001" mask="url(#mask-3)" cx="540" cy="41" r="95.3114627"></circle>
                        <circle id="Oval-14" stroke="#FFFFFF" stroke-width="50" opacity="0.119999997" mask="url(#mask-3)" cx="141.052602" cy="536.052602" r="167.382039"></circle>
                        <circle id="Oval-11" stroke="#FFFFFF" stroke-width="50" opacity="0.0799999982" mask="url(#mask-3)" cx="540" cy="41" r="226.900159"></circle>
                        <circle id="Oval-10" fill="#000B83" opacity="0.149999991" mask="url(#mask-3)" cx="273.84298" cy="52" r="35"></circle>
                        <circle id="Oval-10-Copy" fill="#000B83" opacity="0.149999991" mask="url(#mask-3)" cx="52.9578065" cy="259.507926" r="25"></circle>
                        <g id="Group-87" mask="url(#mask-3)">
                            <g transform="translate(234.000000, 413.000000)">
                                <mask id="mask-5" fill="white">
                                    <use xlink:href="#path-4"></use>
                                </mask>
                                <use id="Path-40" stroke="none" fill="#222D9F" fill-rule="evenodd" xlink:href="#path-4"></use>
                                <path d="M21.7869472,125.58137 C27.3058052,82.5690192 12.9539821,55.8252874 -21.2685222,45.3501751 C-31.0450934,82.4971818 -22.3480286,110.114593 4.82267247,128.202409 L21.7869472,125.58137 Z" id="Path-41" stroke="none" fill="#000000" fill-rule="evenodd" opacity="0.200000003" mask="url(#mask-5)"></path>
                                <path d="M37.5259911,10.623781 C21.1805995,58.8695427 13.0079038,100.263603 13.0079038,134.805961" id="Path-64" stroke="#6D8DE7" stroke-width="0.75600006" fill="none" mask="url(#mask-5)"></path>
                                <path d="M55.0439014,28.4473759 C32.2427425,69.2882923 19.6994849,103.351017 17.4141287,130.63555" id="Path-65" stroke="#6D8DE7" stroke-width="0.75600006" fill="none" mask="url(#mask-5)"></path>
                            </g>
                        </g>
                        <g id="Group-69" mask="url(#mask-3)">
                            <g transform="translate(491.000000, 325.000000)">
                                <mask id="mask-7" fill="white">
                                    <use xlink:href="#path-6"></use>
                                </mask>
                                <use id="Path-36" stroke="none" fill="#415AF9" fill-rule="evenodd" xlink:href="#path-6"></use>
                                <path d="M25.650381,171.476398 C24.4285897,132.364306 39.8661019,107.801342 71.9629176,97.7875069 C77.6297923,140.746448 65.2293494,165.874939 34.7615888,173.172978 L25.650381,171.476398 Z" id="Path-37" stroke="none" fill="#000000" fill-rule="evenodd" opacity="0.200000003" mask="url(#mask-7)" transform="translate(49.439585, 135.480243) rotate(10.000000) translate(-49.439585, -135.480243) "></path>
                                <path d="M42.5179816,-9.55457889 C28.4061652,68.0958602 21.350257,136.458685 21.350257,195.533897" id="Path-47" stroke="#222D9F" stroke-width="0.7" fill="none" mask="url(#mask-7)"></path>
                                <path d="M22.3952873,-0.822842621 C12.2416612,53.8908547 10.2876901,115.779564 16.5333742,184.843285" id="Path-48" stroke="#222D9F" stroke-width="0.7" fill="none" mask="url(#mask-7)"></path>
                                <path d="M59.0886087,10.7644127 C38.3336983,86.6453719 27.9562431,146.288349 27.9562431,189.693345" id="Path-49" stroke="#222D9F" stroke-width="0.7" fill="none" mask="url(#mask-7)"></path>
                            </g>
                        </g>
                        <g id="Group-80" mask="url(#mask-3)">
                            <g transform="translate(516.000000, 428.000000)">
                                <mask id="mask-9" fill="white">
                                    <use xlink:href="#path-8"></use>
                                </mask>
                                <use id="Path-37" stroke="none" fill="#222D9F" fill-rule="evenodd" transform="translate(30.439585, 41.480243) rotate(10.000000) translate(-30.439585, -41.480243) " xlink:href="#path-8"></use>
                                <path d="M61.8318982,5.58062149 C41.6702563,38.8899507 20.3896978,62.9602894 -2.0097773,77.7916374" id="Path-57" stroke="#6D8DE7" stroke-width="0.75600006" fill="none" mask="url(#mask-9)"></path>
                                <polyline id="Path-58" stroke="#6D8DE7" stroke-width="0.75600006" fill="none" mask="url(#mask-9)" points="41.658114 10.0018521 46.0193513 29.5859594 61.1582503 29.5859594"></polyline>
                                <polyline id="Path-59" stroke="#6D8DE7" stroke-width="0.75600006" fill="none" mask="url(#mask-9)" points="21.6289611 20.3218726 30.3997189 48.431123 57.5191626 50.8043498"></polyline>
                                <polyline id="Path-60" stroke="#6D8DE7" stroke-width="0.75600006" fill="none" mask="url(#mask-9)" points="9.58123982 37.2126141 15.7231036 63.7348149 42.1377976 63.7348149"></polyline>
                            </g>
                        </g>
                        <g id="Group-68" mask="url(#mask-3)">
                            <g transform="translate(161.000000, 209.000000)">
                                <mask id="mask-11" fill="white">
                                    <use xlink:href="#path-10"></use>
                                </mask>
                                <use id="Combined-Shape" stroke="none" fill="#FFCDCD" fill-rule="evenodd" xlink:href="#path-10"></use>
                                <polygon id="Path-46" stroke="none" fill="#BF5757" fill-rule="evenodd" opacity="0.200000003" mask="url(#mask-11)" points="13.3694664 -5.65784457 32.3571879 210.249591 47.2465884 221.6861"></polygon>
                            </g>
                        </g>
                        <g id="Group-47" mask="url(#mask-3)">
                            <g transform="translate(286.595238, 294.670871) rotate(-8.000000) translate(-286.595238, -294.670871) translate(187.095238, 109.670871)">
                                <path d="M30.160715,2.33418469e-15 L168.141253,-2.33418469e-15 C178.628791,-4.26071411e-15 182.431825,1.09197042 186.265912,3.14246259 C190.099999,5.19295477 193.109013,8.2019687 195.159505,12.0360557 C197.209998,15.8701427 198.301968,19.6731773 198.301968,30.160715 L198.301968,339.554819 C198.301968,350.042356 197.209998,353.845391 195.159505,357.679478 C193.109013,361.513565 190.099999,364.522579 186.265912,366.573071 C182.431825,368.623563 178.628791,369.715534 168.141253,369.715534 L30.160715,369.715534 C19.6731773,369.715534 15.8701427,368.623563 12.0360557,366.573071 C8.2019687,364.522579 5.19295477,361.513565 3.14246259,357.679478 C1.09197042,353.845391 4.02471397e-15,350.042356 2.74036102e-15,339.554819 L-2.74036102e-15,30.160715 C-4.02471397e-15,19.6731773 1.09197042,15.8701427 3.14246259,12.0360557 C5.19295477,8.2019687 8.2019687,5.19295477 12.0360557,3.14246259 C15.8701427,1.09197042 19.6731773,4.26071411e-15 30.160715,2.33418469e-15 Z" id="Rectangle-23" stroke="none" fill="#FFFFFF" fill-rule="evenodd"></path>
                                <g id="Group-88" stroke="none" stroke-width="1" fill="none" fill-rule="evenodd" transform="translate(89.213149, 12.951831)">
                                    <circle id="Oval-15" fill="#222D9F" cx="3.20218994" cy="2.75888234" r="2.5"></circle>
                                    <circle id="Oval-15" fill="#222D9F" cx="13.2440437" cy="3.16034528" r="2.5"></circle>
                                </g>
                                <g id="Group-66" stroke="none" stroke-width="1" fill="none" fill-rule="evenodd" transform="translate(11.705157, 15.803732)">
                                    <mask id="mask-13" fill="white">
                                        <use xlink:href="#path-12"></use>
                                    </mask>
                                    <use id="Rectangle-23" fill="#222D9F" xlink:href="#path-12"></use>
                                    <g id="Group-65" mask="url(#mask-13)">
                                        <g transform="translate(20.613714, 47.243809)">
                                            <g id="Group-64" stroke-width="1" fill="none" transform="translate(-0.000000, -0.000000)">
                                                <rect id="Rectangle-22" fill="url(#linearGradient-14)" x="0.715072554" y="0.27684762" width="119.151101" height="211.230808" rx="6.16192545"></rect>
                                                <g id="Group-60" transform="translate(17.485776, 161.900768)" stroke="#FFFFFF">
                                                    <path d="M0,1.04752731 L37.076044,1.04752731" id="Path-32" stroke-width="5.13493787"></path>
                                                    <path d="M0,15.6718301 L63.2642267,15.6718301" id="Path-32" stroke-width="3.69715527" opacity="0.600000024"></path>
                                                    <path d="M0,25.9417059 L50.9403758,25.9417059" id="Path-32" stroke-width="3.69715527" opacity="0.600000024"></path>
                                                </g>
                                                <path d="M67.4313746,73.4809296 L50.721749,82.9750351 C49.7157297,83.546637 48.4368151,83.1944721 47.8652133,82.1884528 C47.6859594,81.8729659 47.5917177,81.5163314 47.5917177,81.1534762 L47.5917177,62.1652652 C47.5917177,61.0081985 48.5297056,60.0702106 49.6867723,60.0702106 C50.0496275,60.0702106 50.4062621,60.1644523 50.721749,60.3437062 L67.4313746,69.8378117 C68.4373938,70.4094135 68.7895587,71.6883281 68.2179569,72.6943474 C68.0314324,73.0226306 67.7596578,73.2944051 67.4313746,73.4809296 Z" id="Triangle-3" fill="#FFFFFF"></path>
                                            </g>
                                            <rect id="Rectangle-22-Copy" fill="url(#linearGradient-15)" opacity="0.5" x="133.989785" y="10.5467234" width="119.151101" height="190.691057" rx="6.16192545"></rect>
                                        </g>
                                    </g>
                                </g>
                                <path d="M73.9431067,339.763635 L124.358861,339.763635" id="Path-8" stroke="#FFFFFF" stroke-width="6.72210061" fill="none" opacity="0.300000012" stroke-linecap="round" stroke-linejoin="round"></path>
                            </g>
                        </g>
                        <g id="Group-67" mask="url(#mask-3)">
                            <g transform="translate(302.000000, 248.000000)">
                                <mask id="mask-17" fill="white">
                                    <use xlink:href="#path-16"></use>
                                </mask>
                                <use id="Path-34" stroke="none" fill="#FFCDCD" fill-rule="evenodd" xlink:href="#path-16"></use>
                                <path d="M29.5988259,0.689470273 C23.4498335,43.2296113 74.6393644,44.3486829 89.5575543,55.5605112 C104.475744,66.7723394 89.3887057,106.929224 103.080947,187.268935 L81.8534066,68.6920411 C58.1247185,63.8681471 42.7036907,55.3806705 35.590323,43.2296113 C24.9202715,25.0030225 23.2272466,-0.68113114 29.5988259,0.689470273 Z" id="Path-42" stroke="none" fill="#BF5757" fill-rule="evenodd" opacity="0.200000003" mask="url(#mask-17)"></path>
                                <path d="M10.41732,244.037082 C68.322518,235.526124 99.4084108,220.172545 103.674998,197.976346 L-7.77914261,228.986065 L10.41732,244.037082 Z" id="Path-43" stroke="none" fill="#BF5757" fill-rule="evenodd" opacity="0.200000003" mask="url(#mask-17)"></path>
                                <path d="M28.6756346,-0.672657914 C52.0750526,11.1161658 67.5319395,18.1555427 75.0462953,20.4454728 C86.3178289,23.8803678 102.610325,27.4354078 108.399607,31.2777077 C114.188888,35.1200075 142.11434,75.1859527 151.252445,96.6310043 C157.344515,110.927705 166.925546,144.929024 179.995537,198.634959 C177.668597,148.430397 171.431714,112.677996 161.28489,91.3777573 C146.064653,59.4273989 125.043391,21.1276133 112.014511,18.2436207 C103.328591,16.3209589 75.5489652,10.0155327 28.6756346,-0.672657914 Z" id="Path-44" stroke="none" fill="#FFFFFF" fill-rule="evenodd" opacity="0.5" mask="url(#mask-17)"></path>
                                <path d="M58.1425088,275.173814 C140.723296,262.672694 193.143655,248.68663 215.403585,233.215623 L232.126269,254.194719 L58.1425088,275.173814 Z" id="Path-45" stroke="none" fill="#BF5757" fill-rule="evenodd" opacity="0.200000003" mask="url(#mask-17)"></path>
                            </g>
                        </g>
                        <g id="Group-79" mask="url(#mask-3)">
                            <g transform="translate(106.000000, 384.000000)">
                                <mask id="mask-19" fill="white">
                                    <use xlink:href="#path-18"></use>
                                </mask>
                                <use id="Path-38" stroke="none" fill="#354EEC" fill-rule="evenodd" xlink:href="#path-18"></use>
                                <path d="M38.0513892,174.701543 C31.565855,107.774327 37.5847425,72.4118186 56.1080518,68.6140175 C74.631361,64.8162163 74.631361,100.178725 56.1080518,174.701543 L38.0513892,174.701543 Z" id="Path-39" stroke="none" fill="#000000" fill-rule="evenodd" opacity="0.200000003" mask="url(#mask-19)"></path>
                                <path d="M13.208019,-5.52793332 C21.8985221,72.3127478 33.2167378,133.336069 47.1626659,177.54203" id="Path-54" stroke="#222D9F" stroke-width="0.7" fill="none" mask="url(#mask-19)"></path>
                                <path d="M3.53904345,4.40201615 C10.3991345,64.1024942 23.0732642,120.891999 41.5614325,174.77053" id="Path-55" stroke="#222D9F" stroke-width="0.7" fill="none" mask="url(#mask-19)"></path>
                                <path d="M26.0438466,3.29297722 C32.0954157,80.173452 40.5247262,138.036475 51.3317781,176.882046" id="Path-56" stroke="#222D9F" stroke-width="0.7" fill="none" mask="url(#mask-19)"></path>
                            </g>
                        </g>
                        <g id="Group-86" mask="url(#mask-3)">
                            <g transform="translate(151.000000, 452.000000)">
                                <mask id="mask-21" fill="white">
                                    <use xlink:href="#path-20"></use>
                                </mask>
                                <use id="Path-39" stroke="none" fill="#222D9F" fill-rule="evenodd" xlink:href="#path-20"></use>
                                <path d="M27.8524748,-4.42115959 C17.8422166,40.3990335 12.8370875,77.1020324 12.8370875,105.687837" id="Path-61" stroke="#6D8DE7" stroke-width="0.75600006" fill="none" mask="url(#mask-21)"></path>
                                <path d="M14.7183943,-0.133407468 C7.65624936,31.5512456 5.71152438,65.7758772 8.88421933,102.540487" id="Path-62" stroke="#6D8DE7" stroke-width="0.75600006" fill="none" mask="url(#mask-21)"></path>
                                <path d="M38.2395008,13.7371243 C25.8874332,43.7787076 19.2422557,72.6771374 18.3039684,100.432414" id="Path-63" stroke="#6D8DE7" stroke-width="0.75600006" fill="none" mask="url(#mask-21)"></path>
                            </g>
                        </g>
                    </g>
                    <g id="Group-120" transform="translate(238.449992, 64.749992)">
                        <circle id="Oval-10" fill="url(#linearGradient-22)" cx="35.3929882" cy="35.2500082" r="35"></circle>
                        <path d="M16.2126832,35.3311455 L16.2126832,37.4767765 L12.8770382,37.4767765 L12.8770382,40.794391 L10.7494377,40.794391 L10.7494377,37.4767765 L7.41379274,37.4767765 L7.41379274,35.3311455 L10.7494377,35.3311455 L10.7494377,31.9955005 L12.8770382,31.9955005 L12.8770382,35.3311455 L16.2126832,35.3311455 Z M25.7267839,38.9552786 L28.4493914,38.9552786 L28.4493914,41.5877335 L19.686562,41.5877335 L19.686562,38.9552786 L22.4091695,38.9552786 L22.4091695,32.4823244 L20.2635384,33.7083993 L19.0735245,31.3283716 L23.3828172,28.8762218 L25.7267839,28.8762218 L25.7267839,38.9552786 Z M31.3462938,40.0731704 C30.516886,38.955273 30.1021884,37.3385532 30.1021884,35.2229624 C30.1021884,33.1434328 30.5198911,31.5447433 31.355309,30.4268459 C32.190727,29.3089485 33.3897441,28.7500082 34.9523964,28.7500082 C36.5150487,28.7500082 37.7140658,29.3089485 38.5494838,30.4268459 C39.3849018,31.5447433 39.8026045,33.1434328 39.8026045,35.2229624 C39.8026045,37.3385532 39.3879068,38.955273 38.5584991,40.0731704 C37.7290913,41.1910678 36.5270691,41.7500082 34.9523964,41.7500082 C33.3777237,41.7500082 32.1757015,41.1910678 31.3462938,40.0731704 Z M36.1965018,38.3061801 C36.4489303,37.6811192 36.5751426,36.6533903 36.5751426,35.2229624 C36.5751426,33.8165753 36.4489303,32.8038716 36.1965018,32.1848209 C35.9440734,31.5657702 35.5293757,31.2562495 34.9523964,31.2562495 C34.3754171,31.2562495 33.9607195,31.5657702 33.708291,32.1848209 C33.4558626,32.8038716 33.3296502,33.8165753 33.3296502,35.2229624 C33.3296502,36.6533903 33.4558626,37.6811192 33.708291,38.3061801 C33.9607195,38.9312411 34.3754171,39.2437668 34.9523964,39.2437668 C35.5293757,39.2437668 35.9440734,38.9312411 36.1965018,38.3061801 Z M42.915873,40.0731704 C42.0864653,38.955273 41.6717676,37.3385532 41.6717676,35.2229624 C41.6717676,33.1434328 42.0894703,31.5447433 42.9248883,30.4268459 C43.7603062,29.3089485 44.9593234,28.7500082 46.5219757,28.7500082 C48.0846279,28.7500082 49.2836451,29.3089485 50.119063,30.4268459 C50.954481,31.5447433 51.3721837,33.1434328 51.3721837,35.2229624 C51.3721837,37.3385532 50.957486,38.955273 50.1280783,40.0731704 C49.2986705,41.1910678 48.0966483,41.7500082 46.5219757,41.7500082 C44.947303,41.7500082 43.7452808,41.1910678 42.915873,40.0731704 Z M47.7660811,38.3061801 C48.0185095,37.6811192 48.1447218,36.6533903 48.1447218,35.2229624 C48.1447218,33.8165753 48.0185095,32.8038716 47.7660811,32.1848209 C47.5136526,31.5657702 47.098955,31.2562495 46.5219757,31.2562495 C45.9449963,31.2562495 45.5302987,31.5657702 45.2778702,32.1848209 C45.0254418,32.8038716 44.8992295,33.8165753 44.8992295,35.2229624 C44.8992295,36.6533903 45.0254418,37.6811192 45.2778702,38.3061801 C45.5302987,38.9312411 45.9449963,39.2437668 46.5219757,39.2437668 C47.098955,39.2437668 47.5136526,38.9312411 47.7660811,38.3061801 Z M54.2690861,40.0731704 C53.4396783,38.955273 53.0249807,37.3385532 53.0249807,35.2229624 C53.0249807,33.1434328 53.4426834,31.5447433 54.2781013,30.4268459 C55.1135193,29.3089485 56.3125364,28.7500082 57.8751887,28.7500082 C59.437841,28.7500082 60.6368582,29.3089485 61.4722761,30.4268459 C62.3076941,31.5447433 62.7253968,33.1434328 62.7253968,35.2229624 C62.7253968,37.3385532 62.3106991,38.955273 61.4812914,40.0731704 C60.6518836,41.1910678 59.4498614,41.7500082 57.8751887,41.7500082 C56.300516,41.7500082 55.0984938,41.1910678 54.2690861,40.0731704 Z M59.1668516,38.3099307 C59.41928,37.6848697 59.5454924,36.6571408 59.5454924,35.2267129 C59.5454924,33.8203258 59.41928,32.8076221 59.1668516,32.1885714 C58.9144231,31.5695207 58.4997255,31.26 57.9227462,31.26 C57.3457669,31.26 56.9310692,31.5695207 56.6786408,32.1885714 C56.4262123,32.8076221 56.3,33.8203258 56.3,35.2267129 C56.3,36.6571408 56.4262123,37.6848697 56.6786408,38.3099307 C56.9310692,38.9349916 57.3457669,39.2475173 57.9227462,39.2475173 C58.4997255,39.2475173 58.9144231,38.9349916 59.1668516,38.3099307 Z" id="+100" fill="#FFFFFF"></path>
                    </g>
                    <g id="Group-122" transform="translate(441.449992, 248.749992)">
                        <circle id="Oval-10-Copy-2" fill="url(#linearGradient-23)" cx="40.6236274" cy="40.3195595" r="40"></circle>
                        <g id="fox" transform="translate(22.000000, 32.000000)" fill="#415AF9" fill-rule="nonzero">
                            <path d="M0.416666667,15.9430894 C0.0416666667,15.9631436 0,15.9330623 0,15.8428184 C0.0416666667,15.3715447 0,14.9102981 0,14.4390244 C0,9.62601626 0,4.81300813 0,0 C0.166666667,0.0100271003 0.333333333,0.0100271003 0.458333333,0.0200542005 C0.458333333,0.150406504 0.416666667,0.290785908 0.416666667,0.421138211 C0.416666667,5.44471545 0.416666667,10.4682927 0.416666667,15.4918699 C0.416666667,15.6121951 0.458333333,15.7224932 0.5,15.8428184 C0.458333333,15.8728997 0.458333333,15.902981 0.416666667,15.9430894 Z" id="Shape"></path>
                            <path d="M0,16.1940379 C0.0100271003,16.1539295 0.0100271003,16.1238482 0.0200542005,16.0837398 C1.31355014,16.0837398 2.61707317,16.0937669 3.91056911,16.0937669 C4.40189702,16.0937669 4.40189702,16.0937669 4.40189702,15.6124661 C4.40189702,14.2287263 4.39186992,12.8449864 4.40189702,11.4712737 C4.40189702,11.3108401 4.29159892,11.100271 4.54227642,11 C4.52222222,11.1102981 4.49214092,11.2306233 4.49214092,11.3409214 C4.49214092,12.9552846 4.50216802,14.5696477 4.51219512,16.1940379 C3.00813008,16.1940379 1.50406504,16.1940379 0,16.1940379 Z" id="Shape"></path>
                            <path d="M10,7.7710239 C10,3.46939789 13.3691057,0.0100482931 17.5905149,2.11928479e-05 C21.9121951,-0.0100059074 25.100813,3.53958759 25.201084,7.4902651 C25.3113821,11.9122163 21.902168,15.3715659 17.7609756,15.4517827 C13.4894309,15.5420266 10.0902439,12.1628938 10,7.7710239 Z M16.3471545,7.7008342 C16.3471545,8.77373393 16.3371274,9.83660656 16.3471545,10.9095063 C16.3571816,11.7016472 16.9888889,12.2631648 17.7609756,12.1929751 C18.4728997,12.1328125 18.9642276,11.5913491 18.9742547,10.8393166 C18.9842818,9.46560385 18.9742547,8.10191821 18.9742547,6.72820547 C18.9742547,6.00625426 18.9842818,5.29433014 18.9642276,4.57237892 C18.9441734,3.7902651 18.3224932,3.16858488 17.6105691,3.17861198 C16.9186992,3.18863908 16.3872629,3.76018379 16.3471545,4.54229762 C16.3371274,4.64256862 16.3371274,4.74283962 16.3371274,4.84311062 C16.3471545,5.79568515 16.3471545,6.74825968 16.3471545,7.7008342 Z" id="Shape"></path>
                            <path d="M37.2485095,15.8227642 C35.5739837,15.8227642 33.9094851,15.8327913 32.2349593,15.8327913 C31.502981,14.5392954 30.7710027,13.2357724 30.0089431,11.8821138 C29.2569106,13.2457995 28.5349593,14.5392954 27.8230352,15.8327913 C26.3490515,15.8327913 24.8850949,15.8327913 23.4111111,15.8327913 C23.2607046,15.8327913 23.0200542,15.9531165 23,15.6322493 C24.403794,13.195664 25.797561,10.7691057 27.201355,8.33252033 C27.5723577,7.68075881 27.5823848,7.68075881 27.2113821,7.04905149 C25.9479675,4.87317073 24.6745257,2.68726287 23.4111111,0.501355014 C23.3308943,0.36097561 23.200542,0.240650407 23.2105691,0.0701897019 C23.3108401,-0.0200542005 23.4111111,0.0100271003 23.501355,0.0100271003 C24.9352304,0.0100271003 26.3791328,0.0200542005 27.8130081,0 C28.103794,0 28.2642276,0.0902439024 28.3945799,0.350948509 C28.8357724,1.21327913 29.3070461,2.05555556 29.7682927,2.90785908 C29.8485095,3.04823848 29.8785908,3.22872629 30.0490515,3.30894309 C30.2195122,3.22872629 30.2596206,3.05826558 30.3298103,2.91788618 C30.8111111,2.05555556 31.2823848,1.19322493 31.7536585,0.330894309 C31.8539295,0.150406504 31.9441734,0 32.1948509,0 C33.7189702,0.0100271003 35.2330623,0 36.7672087,0 C36.79729,0.220596206 36.6468835,0.36097561 36.5666667,0.511382114 C35.303252,2.75745257 34.0298103,4.98346883 32.7363144,7.20948509 C32.5658537,7.5102981 32.5558266,7.72086721 32.7363144,8.02168022 C34.1902439,10.498374 35.6341463,12.9850949 37.0780488,15.4718157 C37.1382114,15.5821138 37.2384824,15.6823848 37.2485095,15.8227642 Z" id="Shape"></path>
                            <path d="M4.54227642,10.7590786 C4.29159892,10.8493225 4.40189702,11.0699187 4.40189702,11.2303523 C4.39186992,12.6140921 4.40189702,13.997832 4.40189702,15.3715447 C4.40189702,15.8528455 4.40189702,15.8528455 3.91056911,15.8528455 C2.61707317,15.8528455 1.31355014,15.8428184 0.0200542005,15.8428184 C0.0100271003,15.7224932 0,15.6121951 0,15.4918699 C0,10.4682927 0,5.44471545 0,0.421138211 C0,0.290785908 0.0100271003,0.150406504 0.0100271003,0.0200542005 C3.06829268,0.0200542005 6.13658537,0.0200542005 9.19485095,0 C9.49566396,0 9.60596206,0.0802168022 9.60596206,0.391056911 C9.61598916,0.73197832 9.58590786,1.09295393 9.70623306,1.42384824 C9.68617886,2.24607046 9.80650407,3.05826558 9.83658537,3.8704607 C9.85663957,4.34173442 9.92682927,4.34173442 9.40542005,4.34173442 C7.93143631,4.34173442 6.46747967,4.34173442 4.99349593,4.34173442 C4.50216802,4.34173442 4.50216802,4.34173442 4.49214092,4.83306233 C4.49214092,5.25420054 4.50216802,5.66531165 4.48211382,6.08644986 C4.47208672,6.35718157 4.57235772,6.42737127 4.82303523,6.42737127 C6.00623306,6.41734417 7.19945799,6.42737127 8.38265583,6.42737127 C8.87398374,6.42737127 8.87398374,6.42737127 8.87398374,6.90867209 C8.87398374,8.06178862 8.86395664,9.21490515 8.88401084,10.3680217 C8.88401084,10.6788618 8.80379404,10.7691057 8.49295393,10.7590786 C7.17940379,10.7490515 5.86585366,10.7590786 4.54227642,10.7590786 Z" id="Shape"></path>
                        </g>
                    </g>
                    <g id="Group-121" transform="translate(388.449992, 0.749992)">
                        <circle id="Oval-10-Copy-3" fill="url(#linearGradient-24)" cx="30.6236274" cy="30.2500082" r="30"></circle>
                        <g id="bbc" transform="translate(13.000000, 25.000000)" fill="#FFFFFF" fill-rule="nonzero">
                            <path d="M12.173913,9.89130435 C12.1829403,9.81326644 12.1919676,9.73522854 12.1919676,9.63768116 C12.3725129,9.65719064 12.5530582,9.67670011 12.7336035,9.67670011 C15.6133014,9.67670011 18.4929993,9.67670011 21.3726971,9.67670011 C21.8511422,9.67670011 22.3295873,9.63768116 22.8080324,9.63768116 C22.8170597,9.71571906 22.826087,9.79375697 22.826087,9.89130435 C19.2783714,9.89130435 15.7216286,9.89130435 12.173913,9.89130435 Z" id="Shape"></path>
                            <path d="M0,9.89130435 C0,9.79907773 0.00910442215,9.70685112 0.00910442215,9.63768116 C3.55982906,9.63768116 7.10144928,9.66073781 10.6521739,9.66073781 C10.6521739,9.72990777 10.6521739,9.82213439 10.6521739,9.89130435 C7.10144928,9.89130435 3.55072464,9.89130435 0,9.89130435 Z" id="Shape"></path>
                            <path d="M34.9908956,9.63768116 C34.9908956,9.72990777 35,9.82213439 35,9.89130435 C31.4492754,9.89130435 27.8985507,9.89130435 24.3478261,9.89130435 C24.3478261,9.82213439 24.3478261,9.72990777 24.3478261,9.66073781 C27.8985507,9.66073781 31.4401709,9.63768116 34.9908956,9.63768116 Z" id="Shape"></path>
                            <path d="M34.9818377,9.62876564 C31.4401942,9.62876564 27.9076319,9.63768116 24.3659884,9.63768116 C24.3569072,7.14133451 24.3569072,4.64498787 24.3478261,2.14864122 C24.3478261,1.43539932 24.3569072,0.722157423 24.3659884,0.00891552374 C27.7623337,0.00891552374 31.158679,0.00891552374 34.5641054,0 C34.8910264,0 35,0.0713241899 35,0.419029616 C34.9818377,3.48596978 34.9818377,6.55290995 34.9818377,9.62876564 Z M32.8931762,6.43700814 C32.68431,6.54399442 32.5571741,6.61531861 32.420957,6.67772728 C31.4855999,7.14133451 30.5229994,7.41771575 29.4514252,7.22157423 C28.2436339,7.00760166 27.3718448,6.1606269 27.2810334,5.03727091 C27.1811409,3.85150625 27.8985507,2.87079864 29.1154231,2.49634665 C29.8782386,2.26454303 30.631973,2.34478274 31.3857074,2.54983979 C31.8670077,2.68357264 32.3119834,2.89754521 32.8114459,3.09368674 C32.8114459,2.72815026 32.8023648,2.40719141 32.8114459,2.08623255 C32.8205271,1.90792208 32.7206346,1.81876684 32.5662552,1.7652737 C31.2313281,1.26600437 29.8782386,1.06094732 28.4979058,1.53347008 C26.990437,2.05057046 26.0459987,3.08477121 25.9551874,4.67173444 C25.8734571,6.08930271 26.5454613,7.2126587 27.8349828,7.88132298 C29.1608288,8.56781831 30.5684051,8.54107174 31.9759813,8.1131266 C32.8931762,7.83674536 32.8931762,7.82782984 32.8931762,6.9095309 C32.8931762,6.77579804 32.8931762,6.65098071 32.8931762,6.43700814 Z" id="Shape"></path>
                            <path d="M12.2642899,0 C15.7618729,0 19.259456,0 22.7480014,0 C22.8564536,0.0981615674 22.8203028,0.223094471 22.8203028,0.330179817 C22.8203028,3.42673108 22.8203028,6.52328234 22.8112652,9.6198336 C22.332268,9.62875738 21.8532708,9.63768116 21.3742737,9.63768116 C18.491253,9.63768116 15.6082323,9.63768116 12.7252117,9.63768116 C12.544458,9.63768116 12.3637044,9.6198336 12.1829507,9.6198336 C12.1829507,6.52328234 12.1829507,3.42673108 12.173913,0.330179817 C12.1919884,0.223094471 12.1558377,0.0981615674 12.2642899,0 Z M18.7894965,4.62251744 C19.4040589,4.20309984 19.7474908,3.67659689 19.6209633,2.94484702 C19.4763604,2.14170692 18.8979487,1.61520397 17.9851428,1.44565217 C17.0723369,1.27610038 16.1504933,1.40103328 15.2376874,1.36533816 C14.9484815,1.35641439 14.9846323,1.55273752 14.9846323,1.7312131 C14.9846323,3.81045357 14.9846323,5.88969404 14.9755946,7.97785829 C14.9755946,8.25449544 15.0659714,8.33480945 15.3371019,8.33480945 C16.2227947,8.31696189 17.1175253,8.33480945 18.0032182,8.32588567 C18.5093284,8.31696189 18.9792878,8.17418143 19.4221343,7.92431562 C20.1541865,7.50489801 20.4614677,6.67498658 20.2084126,5.88969404 C19.9824706,5.19363929 19.4673227,4.84561192 18.7894965,4.62251744 Z" id="Shape"></path>
                            <path d="M10.6521739,9.63768116 C7.10448149,9.63768116 3.56588572,9.62876564 0.0181932945,9.62876564 C0.0181932945,6.56182547 0.0181932945,3.48596978 0,0.419029616 C0,0.0802397136 0.109159767,0 0.436639067,0 C3.84788178,0.0178310475 7.25002785,0.00891552374 10.6521739,0.00891552374 C10.6521739,3.21850407 10.6521739,6.42809261 10.6521739,9.63768116 Z M6.64964913,4.60041025 C7.13177143,4.27053587 7.45015409,3.89608387 7.47744403,3.3433214 C7.52292726,2.35369827 6.92254855,1.64045637 5.83095088,1.44431485 C4.91218951,1.27491989 3.98433149,1.39973723 3.06557012,1.36407513 C2.810864,1.35515961 2.81996064,1.52455456 2.81996064,1.69394951 C2.81996064,3.78909759 2.82905729,5.87533014 2.810864,7.97047822 C2.810864,8.25577498 2.91092712,8.31818365 3.17472989,8.31818365 C4.06620131,8.3003526 4.95767274,8.31818365 5.85824082,8.30926812 C6.37674971,8.3003526 6.87706531,8.15770422 7.31370438,7.88132298 C8.29614228,7.26615185 8.41439869,5.95556986 7.58660379,5.15317272 C7.33189767,4.89462253 7.00441837,4.77872072 6.64964913,4.60041025 Z" id="Shape"></path>
                            <path d="M16.2318841,6.58703027 C16.2318841,5.57875003 16.2318841,5.57875003 17.1449275,5.58826211 C17.5084541,5.58826211 17.8804348,5.53118964 18.2270531,5.71191912 C18.5567633,5.88313652 18.7681159,6.14947469 18.7681159,6.58703027 C18.7681159,7.02458585 18.5567633,7.30994818 18.218599,7.45262935 C17.6183575,7.71896752 16.9927536,7.5572622 16.384058,7.58579843 C16.2572464,7.59531051 16.2403382,7.46214142 16.2403382,7.34799649 C16.2318841,7.10068247 16.2318841,6.84385637 16.2318841,6.58703027 Z" id="Shape"></path>
                            <path d="M16.2326554,3.54175672 C16.2592124,2.38974277 16.0467561,2.54864124 17.144447,2.53871009 C17.3037892,2.53871009 17.4631314,2.56850355 17.6224736,2.62809048 C17.9854198,2.75719549 18.2421378,3.00547436 18.2598425,3.46230748 C18.2775472,3.90920945 18.0650909,4.21707524 17.7198494,4.38590487 C17.3214939,4.58452797 16.887729,4.56466566 16.4628164,4.56466566 C16.2946218,4.56466566 16.2326554,4.4454918 16.2415077,4.27666217 C16.2326554,4.03831446 16.2326554,3.79003559 16.2326554,3.54175672 Z" id="Shape"></path>
                            <path d="M5.0081103,5.58162065 C5.29633601,5.60069739 5.62694785,5.54346718 5.95755969,5.66746598 C6.33903489,5.82007989 6.57639724,6.0966926 6.59335169,6.56407269 C6.61030614,6.97422258 6.3729438,7.31760387 5.97451414,7.47975615 C5.39806273,7.69913864 4.80465686,7.56560147 4.21972822,7.59421658 C4.05866091,7.59421658 4.06713814,7.44160267 4.06713814,7.31760387 C4.06713814,6.85976214 4.07561536,6.40192042 4.05866091,5.94407869 C4.05018368,5.68654272 4.1180015,5.56254392 4.36384107,5.58162065 C4.55881728,5.59115902 4.76227073,5.58162065 5.0081103,5.58162065 Z" id="Shape"></path>
                            <path d="M4.74531206,2.54216586 C4.95024779,2.52238594 5.19973477,2.55205582 5.4403115,2.63117553 C5.80563172,2.73996512 6.04620845,3.00699412 6.08184945,3.42237257 C6.11749045,3.81797109 5.96601621,4.13444991 5.64524724,4.3223592 C5.20864502,4.58938821 4.73640181,4.58938821 4.2641586,4.53993839 C4.08595362,4.52015846 4.05031262,4.40147891 4.05922287,4.23334954 C4.06813312,3.90698076 4.05922287,3.57072202 4.05922287,3.24435324 C4.06813312,2.45315619 3.96121013,2.55205582 4.74531206,2.54216586 Z" id="Shape"></path>
                        </g>
                    </g>
                    <g id="Group-119" transform="translate(39.449992, 16.749992)">
                        <circle id="Oval-10-Copy-2" fill="url(#linearGradient-25)" cx="40.507815" cy="40.2500082" r="40"></circle>
                        <g id="espn" transform="translate(16.000000, 34.000000)" fill="#FFFFFF" fill-rule="nonzero">
                            <path d="M47.9868519,2.81469847 C47.8290748,3.04291727 47.6450014,3.16970549 47.3294472,3.15702667 C43.9372387,3.14434784 40.5450303,3.14434784 37.1396737,3.15702667 C36.7057866,3.15702667 36.5743056,3.08095373 36.6531942,2.62451614 C36.7978232,1.77503507 36.8767118,0.912875181 36.9818966,0.0507152878 C37.2711547,0.0380364659 37.5472646,0.0253576439 37.8365227,0.0253576439 C40.5318822,0.012678822 43.2140935,0.012678822 45.9094529,0 C47.0138929,0.0760729317 47.6318533,0.735371673 48,1.6736045 C47.9868519,2.05396916 47.9868519,2.43433381 47.9868519,2.81469847 Z" id="Shape"></path>
                            <path d="M15.1578947,0.252631579 C15.1578947,0.157894737 15.1578947,0.0631578947 15.1711478,0 C21.2675756,0 27.3640034,0 33.4604311,0 C33.4604311,0.0947368421 33.4736842,0.157894737 33.4736842,0.252631579 C31.3399345,0.284210526 29.1929317,0.315789474 27.059182,0.315789474 C23.0965039,0.315789474 19.1205728,0.284210526 15.1578947,0.252631579 Z" id="Shape"></path>
                            <path d="M15.3172323,0 C19.3246432,0.0126823082 23.3454568,0.0126823082 27.3528677,0.0253646164 C29.5107044,0.0253646164 31.6819437,0.0126823082 33.8397803,0 C35.5017166,0.253646164 36.185255,1.15409004 35.9574088,2.70133164 C35.903798,3.04375396 35.7697709,3.15789474 35.4078977,3.15789474 C27.9827952,3.14521243 20.5576927,3.14521243 13.1191875,3.15789474 C12.676898,3.15789474 12.6098845,3.03107166 12.6366899,2.65060241 C12.770717,1.0779962 13.5748797,0.266328472 15.3172323,0 Z" id="Shape"></path>
                            <path d="M20.3180908,11.3684211 C17.3304216,11.3684211 14.3560902,11.3684211 11.3684211,11.3684211 C11.4617857,10.4919441 11.5684882,9.62835661 11.648515,8.7518797 C11.6751907,8.35230934 11.9419468,8.40386681 12.208703,8.40386681 C14.3827658,8.40386681 16.5568287,8.40386681 18.7442293,8.40386681 C18.9442964,8.40386681 19.2644039,8.53276047 19.3444307,8.28786251 C19.464471,7.95273899 19.5044844,7.566058 19.4778088,7.20515575 C19.464471,7.01181525 19.1710392,7.10204082 19.0109855,7.10204082 C17.4371241,7.10204082 15.8499248,7.11493018 14.2760634,7.08915145 C12.83558,7.07626208 12.0753249,6.25134264 12.1553518,4.87218045 C12.1686896,4.56283566 12.2487164,4.42105263 12.6088373,4.42105263 C15.4364527,4.433942 18.2507304,4.40816327 21.0783459,4.44683136 C22.6522073,4.4726101 23.4658136,5.40064447 23.3591112,6.92158969 C23.3057599,7.6433942 23.1990575,8.37808808 23.0656794,9.08700322 C22.812261,10.5177229 21.8652766,11.2910849 20.3180908,11.3684211 Z" id="Shape"></path>
                            <path d="M10.6041436,11.1093149 C10.4289799,11.4053859 10.1190748,11.366768 9.83611796,11.366768 C6.56190335,11.366768 3.27421461,11.366768 0,11.366768 C0.269482684,9.17841709 0.552439502,6.99006622 0.794973917,4.78884269 C0.848870454,4.33829987 1.13182727,4.42840843 1.41478409,4.42840843 C4.28477467,4.42840843 7.15476525,4.42840843 10.03823,4.42840843 C11.4530141,4.42840843 11.4530141,4.42840843 11.3047986,5.78003691 C11.1700572,7.09304744 11.1700572,7.09304744 9.82264382,7.09304744 C8.23269599,7.09304744 6.62927402,7.13166539 5.03932619,7.08017478 C4.09613679,7.05442948 4.45993842,7.72380739 4.37909361,8.10998696 C4.27130054,8.6120204 4.7698435,8.38031266 4.97195552,8.39318531 C6.79096363,8.41893061 8.60997175,8.41893061 10.4289799,8.39318531 C10.8332039,8.39318531 10.9948935,8.45754857 10.9140487,8.88234609 C10.7927815,9.61608727 10.7119367,10.3627011 10.6041436,11.1093149 Z" id="Shape"></path>
                            <path d="M27.3139993,11.2082136 C25.9942714,11.400303 24.6745435,11.4515269 23.3684211,11.1826017 C23.6405299,9.04400566 23.9126387,6.90540966 24.1711421,4.76681366 C24.198353,4.48508245 24.320802,4.42105263 24.6065163,4.42105263 C28.075904,4.4338586 31.5452918,4.42105263 35.0146796,4.42105263 C35.2595775,4.42105263 35.3684211,4.45947052 35.3684211,4.74120173 C35.3548156,6.2138876 34.4976728,7.05908123 32.9330469,7.07188719 C31.4364483,7.09749912 29.9398496,7.09749912 28.443251,7.07188719 C28.0078768,7.05908123 27.8718224,7.18714087 27.8310061,7.58412575 C27.6677408,8.80069234 27.4772646,10.004453 27.3139993,11.2082136 Z" id="Shape"></path>
                            <path d="M1.65727279,0.00457549245 C4.89669027,0.00457549245 8.13610774,0.00457549245 11.3887473,0.00457549245 C11.6796338,0.00457549245 12.0366308,-0.0717144893 11.9969645,0.398740398 C11.9044097,1.17435521 11.7854107,1.94997003 11.706078,2.72558484 C11.6796338,3.04345976 11.5474127,3.15789474 11.2168599,3.15789474 C8.03033085,3.14517974 4.84380182,3.14517974 1.6704949,3.15789474 C1.36638633,3.15789474 1.22094309,3.09431975 1.27383154,2.76372983 C1.40605266,1.83553505 1.52505167,0.920055273 1.65727279,0.00457549245 Z" id="Shape"></path>
                            <path d="M38.9852142,11.358903 C37.9715109,11.358903 36.9578077,11.358903 35.9441044,11.358903 C35.7438667,11.358903 35.5185993,11.4232452 35.3684211,11.2173502 C35.6187182,9.06832099 35.8690153,6.93216025 36.1067975,4.78313108 C36.1443421,4.46142013 36.2820055,4.40994637 36.5448174,4.42281481 C37.4834316,4.43568325 38.4220457,4.44855169 39.348145,4.42281481 C39.7736501,4.40994637 39.8237095,4.56436763 39.7736501,4.93755234 C39.5108381,7.07371307 39.2480261,9.20987381 38.9852142,11.358903 Z" id="Shape"></path>
                            <path d="M46.5594095,11.3555346 C45.351244,11.3555346 44.1555339,11.3555346 42.9473684,11.3684211 C43.1092875,9.13905796 43.4580363,6.94835434 43.6822319,4.73187774 C43.7071426,4.4741479 43.8192404,4.40971544 44.0434361,4.42260193 C45.0398612,4.43548842 46.0362863,4.43548842 47.0327114,4.42260193 C47.4686474,4.40971544 47.3690049,4.68033177 47.331639,4.92517511 C47.0825327,7.05144627 46.8209711,9.20349042 46.5594095,11.3555346 Z" id="Shape"></path>
                        </g>
                    </g>
                    <g id="Group-118" transform="translate(25.449992, 285.749992)">
                        <circle id="Oval-10-Copy" fill="url(#linearGradient-26)" cx="25.507815" cy="25.7579338" r="25"></circle>
                        <g id="cnn" transform="translate(13.000000, 20.000000)" fill="#FFFFFF" fill-rule="nonzero">
                            <path d="M24.9899214,0.0892926704 C24.9899214,3.30410583 25,6.52887198 25,9.74368514 C24.8689785,10.6693125 24.4658355,11.3859272 23.4781352,11.6247987 C22.5206707,11.8537173 21.5027346,11.4257391 20.9282559,10.5200177 C20.1723628,9.34556587 19.4668626,8.14125505 18.7311266,6.9568502 C18.6404195,6.80755547 18.5396337,6.64830776 18.3481408,6.50896602 C18.3481408,6.70802565 18.3481408,6.91703828 18.3481408,7.11609791 C18.3481408,7.96210138 18.3582194,8.80810484 18.3481408,9.65410831 C18.3179051,11.2863973 16.8061189,12.1722127 15.3245684,11.4456451 C14.8407968,11.2067735 14.4880467,10.8484661 14.2058466,10.400582 C13.4902679,9.23608307 12.7746891,8.08153716 12.0691888,6.91703828 C11.9885602,6.77769653 11.8877745,6.64830776 11.7164387,6.518919 C11.7164387,7.21562773 11.7164387,7.92228945 11.7164387,8.61899819 C11.7164387,8.74838695 11.7164387,8.8877287 11.7164387,9.01711746 C11.7164387,10.8385132 11.0008599,11.5650808 9.15648079,11.5451749 C7.7656375,11.5252689 6.36471564,11.6546577 4.98395092,11.455598 C1.90998568,10.9977609 -0.115807807,8.53937433 0.00513508756,5.43404397 C0.115999408,2.51782026 2.36352153,0.278399327 5.39717248,0.0793396884 C6.11275127,0.0295747788 6.83840864,0.0594337246 7.56406601,0.0196217968 C7.87650182,0.00966881491 7.95713042,0.119151616 7.95713042,0.417741074 C7.95713042,1.48271014 7.97728757,1.48271014 6.89888009,1.49266312 C6.16314414,1.49266312 5.41732963,1.45285119 4.69167226,1.62205189 C2.6154859,2.109748 1.33550693,3.92119071 1.48668555,6.17056463 C1.62778559,8.24078487 3.2101218,9.88302689 5.33670103,10.0223686 C6.70738717,10.1119455 8.08815189,10.0721335 9.4689166,10.0522276 C9.9829239,10.0522276 10.2248097,9.70387322 10.2248097,9.07683535 C10.2248097,7.10614493 10.2248097,5.12550153 10.2248097,3.15481111 C10.2248097,2.88608059 10.2248097,2.62730306 10.2248097,2.35857255 C10.2248097,2.17941888 10.2248097,1.97040626 10.4465383,1.91068836 C10.668267,1.85097047 10.7690527,2.04007713 10.8698385,2.18937186 C11.5753387,3.31405882 12.2909175,4.43874577 12.9964177,5.56343273 C13.8530965,6.90708529 14.7097754,8.26069084 15.5563756,9.6043434 C15.7579471,9.92283882 15.9998329,10.1716634 16.4130545,10.0323216 C16.7960403,9.90293285 16.8363546,9.56453147 16.8363546,9.2161771 C16.8363546,7.09619195 16.8363546,4.9762068 16.8363546,2.84626867 C16.8363546,2.74673885 16.8363546,2.64720903 16.8363546,2.54767921 C16.8464332,2.30880764 16.755726,2.0002652 17.0782404,1.92064135 C17.3705191,1.85097047 17.4612262,2.13960695 17.5821691,2.3287136 C19.1040339,4.72738225 20.6258986,7.1260509 22.1477634,9.53467252 C22.2586277,9.70387322 22.3493349,9.88302689 22.5307492,9.98255671 C22.9238136,10.2015223 23.3672709,10.0024627 23.4579781,9.55457849 C23.4982924,9.36547183 23.4882138,9.15645921 23.4882138,8.95739957 C23.4882138,6.14070568 23.4982924,3.3240118 23.4781352,0.49736493 C23.4781352,0.0992456523 23.5889996,-0.0400960947 23.982064,0.00966881491 C24.3247355,0.0693867065 24.667407,-0.0301431128 24.9899214,0.0892926704 Z" id="Shape"></path>
                            <path d="M15.0301208,5.33687367 C15.0301208,4.30383473 15.0200486,3.26076628 15.0301208,2.22772734 C15.040193,1.24483592 15.5135855,0.482593599 16.3395045,0.161649462 C17.246001,-0.189383188 18.0114869,0.0814134276 18.6863231,0.713272197 C18.9683442,0.974039308 19.1798601,1.30501295 19.3712316,1.63598659 C20.1065009,2.87964512 20.8417702,4.13333316 21.6676892,5.35693268 C21.6676892,5.01592953 21.6676892,4.67492639 21.6676892,4.33392324 C21.6676892,3.03008769 21.6777614,1.72625213 21.6576171,0.422416573 C21.6576171,0.151619958 21.7180502,0.0513249147 22.0101435,0.0412954105 C23.1382279,0.0212364019 23.1382279,0.00117739335 23.1382279,1.11445237 C23.1382279,3.74218249 23.1382279,6.35988311 23.1382279,8.98761323 C23.1382279,9.10796728 23.1382279,9.21829183 23.1382279,9.33864588 C23.1382279,9.51917695 23.1483001,9.73982605 22.9267121,9.81003258 C22.7051241,9.8702096 22.6144744,9.66961952 22.5137526,9.51917695 C21.3353072,7.61357114 20.1467896,5.71799483 18.9582721,3.82241852 C18.5856013,3.23067777 18.2129305,2.62890751 17.850332,2.03716676 C17.6488883,1.70619312 17.3769394,1.49557353 16.9740521,1.62595709 C16.5913091,1.74631114 16.5208038,2.06725527 16.5208038,2.42831743 C16.5208038,4.60471986 16.5208038,6.77109278 16.5208038,8.94749521 C16.5208038,9.07787877 16.5208038,9.21829183 16.5208038,9.34867538 C16.5208038,9.53923596 16.5208038,9.74985555 16.309288,9.81003258 C16.0776278,9.88023911 15.9970503,9.65959001 15.9064007,9.50914745 C14.5970169,7.43304006 13.2977053,5.34690317 11.9883216,3.27079579 C11.7264448,2.85958611 11.4645681,2.44837644 11.2228357,2.03716676 C11.021392,1.69616362 10.7494431,1.49557353 10.3465558,1.62595709 C9.973885,1.74631114 9.88323536,2.06725527 9.88323536,2.42831743 C9.88323536,4.65486738 9.88323536,6.87138782 9.88323536,9.09793777 C9.88323536,9.71976704 9.78251353,9.83009159 9.15803819,9.82006208 C7.86879879,9.80000307 6.56948721,9.91032762 5.28024781,9.75988506 C3.20537816,9.50914745 1.7751282,7.81416123 1.86577784,5.72802434 C1.95642749,3.5415924 3.48739927,1.97698974 5.61262985,1.90678321 C6.28746609,1.8867242 6.95223016,1.90678321 7.62706641,1.8967537 C7.87887098,1.8867242 7.96952062,1.94690122 7.97959281,2.22772734 C8.00980935,3.34100232 8.02995372,3.34100232 6.91194143,3.34100232 C6.55941503,3.34100232 6.20688863,3.33097281 5.85436223,3.34100232 C4.42411228,3.41120885 3.37660526,4.42418878 3.33631653,5.76814235 C3.2960278,7.13215494 4.21259644,8.16519388 5.65291858,8.30560694 C6.41840447,8.37581347 7.19396255,8.33569545 7.96952062,8.33569545 C8.37240794,8.33569545 8.3925523,8.04483982 8.3925523,7.7439547 C8.3925523,5.8884964 8.38248012,4.03303811 8.3925523,2.17757982 C8.40262448,1.26489493 8.79543961,0.562829633 9.65157515,0.18170847 C10.5177829,-0.199412692 11.2933409,0.0513249147 11.9782494,0.633036163 C12.2602705,0.873744266 12.4717863,1.17462939 12.6631578,1.49557353 C13.1466226,2.31799288 13.6200152,3.14041223 14.10348,3.96283158 C14.3754289,4.43421828 14.65745,4.90560499 14.9293989,5.36696218 C14.9696877,5.36696218 14.9999042,5.34690317 15.0301208,5.33687367 Z" id="Shape"></path>
                        </g>
                    </g>
                    <g id="Group-78" transform="translate(199.000000, 519.000000)">
                        <mask id="mask-28" fill="white">
                            <use xlink:href="#path-27"></use>
                        </mask>
                        <use id="Path-41" fill="#415AF9" xlink:href="#path-27"></use>
                        <path d="M3.3220347,-4.65337 C11.8918327,33.8426984 26.5487416,65.0967322 47.2927614,89.1087316" id="Path-50" stroke="#222D9F" stroke-width="0.7" mask="url(#mask-28)"></path>
                        <polyline id="Path-51" stroke="#222D9F" stroke-width="0.7" mask="url(#mask-28)" points="-0.854582716 23.2283292 12.7474501 28.1853453 24.7864963 6.85341229"></polyline>
                        <polyline id="Path-52" stroke="#222D9F" stroke-width="0.7" mask="url(#mask-28)" points="1.43887745 46.1807473 21.5924967 49.5877342 39.7020858 22.9732303"></polyline>
                        <polyline id="Path-53" stroke="#222D9F" stroke-width="0.7" mask="url(#mask-28)" points="9.8417527 66.6542524 32.578754 69.2335853 49.1018712 48.4094204"></polyline>
                    </g>
                </g>
            </g>
        </g>
    </g>
</svg>