<?xml version="1.0" encoding="UTF-8"?>
<svg width="561px" height="618px" viewBox="0 0 561 618" version="1.1" xmlns="http://www.w3.org/2000/svg" xmlns:xlink="http://www.w3.org/1999/xlink">
    <!-- Generator: Sketch 51.2 (57519) - http://www.bohemiancoding.com/sketch -->
    <title>Illustration 1</title>
    <desc>Created with Sketch.</desc>
    <defs>
        <linearGradient x1="0%" y1="-51.444539%" x2="89.8404219%" y2="148.648915%" id="linearGradient-1">
            <stop stop-color="#4F33E2" offset="0%"></stop>
            <stop stop-color="#44C7FF" offset="100%"></stop>
        </linearGradient>
        <path d="M58.0084469,69.0780711 L488.690282,8.54968649 C508.55424,5.75798926 516.048065,6.81390283 523.855855,9.67704204 C531.663646,12.5401812 538.163854,17.4384397 543.068199,24.1545815 C547.972544,30.8707233 551.053131,37.7832008 553.844829,57.6471587 L606.678442,433.577854 C609.470139,453.441812 608.414226,460.935636 605.551087,468.743427 C602.687947,476.551217 597.789689,483.051426 591.073547,487.955771 C584.357405,492.860115 577.444928,495.940703 557.58097,498.7324 L126.899135,559.260785 C107.035177,562.052482 99.5413519,560.996568 91.7335614,558.133429 C83.925771,555.27029 77.4255624,550.372031 72.5212177,543.65589 C67.6168729,536.939748 64.5362856,530.02727 61.7445883,510.163312 L8.91097469,134.232617 C6.11927745,114.368659 7.17519103,106.874835 10.0383302,99.0670442 C12.9014694,91.2592537 17.7997279,84.7590452 24.5158697,79.8547004 C31.2320115,74.9503557 38.144489,71.8697683 58.0084469,69.0780711 Z" id="path-2"></path>
        <path d="M55.0071642,124.84635 C61.3211063,92.6770441 58.4721843,66.8218126 46.4603983,47.2806557 C33.7483269,26.6002524 16.07647,13.4301881 9.35949558,0.136698807 C-4.20131072,39.0209331 -2.52471466,72.3979029 14.3892837,100.267608 C18.7847746,107.510191 26.4130637,116.500714 37.2741511,127.239178 L55.0071642,124.84635 Z" id="path-4"></path>
        <polygon id="path-6" points="0.900002182 0.100019276 556.200024 0.100019276 556.200024 85.6000227 0.900002182 85.6000227"></polygon>
        <path d="M18.6550064,0.272009386 L63.2050079,0.272009386 L81.0250086,48.2770111 L0.835005756,48.2770111 L18.6550064,0.272009386 Z M36.475007,5.61800957 L36.475007,18.98301 C36.475007,21.4434387 38.4695785,23.4380102 40.9300072,23.4380102 C43.3904358,23.4380102 45.3850073,21.4434387 45.3850073,18.98301 L45.3850073,5.61800957 L36.475007,5.61800957 Z" id="path-8"></path>
        <path d="M2.79692607,0.776442727 L163.063088,0.776442727 C163.857431,0.776442727 164.14548,0.85915035 164.43588,1.01445797 C164.72628,1.1697656 164.954187,1.39767323 165.109495,1.68807324 C165.264802,1.97847325 165.34751,2.2665213 165.34751,3.06086452 L165.34751,13.5182939 C165.34751,14.3126371 165.264802,14.6006852 165.109495,14.8910852 C164.954187,15.1814852 164.72628,15.4093928 164.43588,15.5647005 C164.14548,15.7200081 163.857431,15.8027157 163.063088,15.8027157 L2.79692607,15.8027157 C2.00258285,15.8027157 1.7145348,15.7200081 1.42413479,15.5647005 C1.13373478,15.4093928 0.90582715,15.1814852 0.750519526,14.8910852 C0.595211901,14.6006852 0.512504278,14.3126371 0.512504278,13.5182939 L0.512504278,3.06086452 C0.512504278,2.2665213 0.595211901,1.97847325 0.750519526,1.68807324 C0.90582715,1.39767323 1.13373478,1.1697656 1.42413479,1.01445797 C1.7145348,0.85915035 2.00258285,0.776442727 2.79692607,0.776442727 Z" id="path-10"></path>
        <rect id="path-12" x="0" y="0.054866728" width="409.860014" height="276.21001" rx="7.12800025"></rect>
        <linearGradient x1="0%" y1="-38.4321422%" x2="105.69539%" y2="141.807496%" id="linearGradient-14">
            <stop stop-color="#DF81FF" offset="0%"></stop>
            <stop stop-color="#775DFF" offset="100%"></stop>
        </linearGradient>
        <linearGradient x1="0%" y1="-36.8917067%" x2="100%" y2="120.095071%" id="linearGradient-15">
            <stop stop-color="#FFE3C3" offset="0%"></stop>
            <stop stop-color="#FF7BB5" offset="100%"></stop>
        </linearGradient>
        <linearGradient x1="12.8170854%" y1="-14.3268853%" x2="82.862172%" y2="131.49914%" id="linearGradient-16">
            <stop stop-color="#7694FF" offset="0%"></stop>
            <stop stop-color="#85F5FF" offset="100%"></stop>
        </linearGradient>
        <linearGradient x1="-13.4685229%" y1="-63.0781762%" x2="105.73102%" y2="144.960773%" id="linearGradient-17">
            <stop stop-color="#F2CBFF" offset="0%"></stop>
            <stop stop-color="#775DFF" offset="100%"></stop>
        </linearGradient>
        <path d="M8.56228012,0.382936919 L210.981274,0.382936919 C215.678455,0.382936919 219.486273,4.190755 219.486273,8.88793665 L219.486273,149.663485 L0.057280394,149.663485 L0.057280394,8.88793665 C0.057280394,4.190755 3.86509847,0.382936919 8.56228012,0.382936919 Z" id="path-18"></path>
        <linearGradient x1="5.3101678%" y1="-146.551704%" x2="90.6301194%" y2="185.288377%" id="linearGradient-20">
            <stop stop-color="#F2CBFF" offset="0%"></stop>
            <stop stop-color="#A695FF" offset="100%"></stop>
        </linearGradient>
        <path d="M5.07649301,-3.61763224e-14 L11.7225007,-2.92822426e-15 L11.7225007,-2.4432641e-15 C11.7225007,2.18704774 13.4954532,3.96000024 15.682501,3.96000024 L33.007502,3.96000024 C35.1945498,3.96000024 36.9675023,2.18704774 36.9675023,3.13622893e-15 L43.61351,-3.09113721e-14 C45.3787172,-3.75069112e-14 46.018824,0.183794721 46.6641574,0.528922786 C47.3094908,0.874050851 47.8159522,1.38051226 48.1610802,2.02584563 C48.5062083,2.671179 48.690003,3.31128579 48.690003,5.07649301 L48.690003,94.1035131 C48.690003,95.8687203 48.5062083,96.5088271 48.1610802,97.1541605 C47.8159522,97.7994939 47.3094908,98.3059553 46.6641574,98.6510833 C46.018824,98.9962114 45.3787172,99.1800061 43.61351,99.1800061 L5.07649301,99.1800061 C3.31128579,99.1800061 2.671179,98.9962114 2.02584563,98.6510833 C1.38051226,98.3059553 0.874050851,97.7994939 0.528922786,97.1541605 C0.183794721,96.5088271 4.0762475e-15,95.8687203 3.86007196e-15,94.1035131 L-6.52460722e-15,5.07649301 C-6.74078276e-15,3.31128579 0.183794721,2.671179 0.528922786,2.02584563 C0.874050851,1.38051226 1.38051226,0.874050851 2.02584563,0.528922786 C2.671179,0.183794721 3.31128579,-3.58520591e-14 5.07649301,-3.61763224e-14 Z" id="path-21"></path>
        <linearGradient x1="0%" y1="-36.8917067%" x2="91.8130338%" y2="163.494929%" id="linearGradient-23">
            <stop stop-color="#FFE8E8" offset="0%"></stop>
            <stop stop-color="#FF7BB5" offset="100%"></stop>
        </linearGradient>
        <rect id="path-24" x="0.835001609" y="0.621647064" width="98.0100013" height="132.840002"></rect>
        <path d="M0.521797203,174.983939 C2.15335587,76.9930733 13.8671851,20.0164662 35.6632849,4.05411801 C48.0293784,-5.00217607 69.527142,-0.0848125994 61.1983962,46.1946795 C57.8172783,64.9821922 44.1875322,106.938966 20.3091577,172.065002 L0.521797203,174.983939 Z" id="path-26"></path>
        <path d="M0.187982599,75.6527119 C7.54929787,23.0527906 18.0534891,-1.81363191 31.7005561,1.05344439 C45.3476232,3.9205207 42.5334909,22.2486507 23.2581591,56.0378343 C45.1809719,37.30549 58.2799956,33.0356803 62.5552302,43.2284051 C68.9680821,58.5174924 26.5382274,69.5977782 20.3595045,71.5403515 C16.1272749,72.8709527 9.40343431,74.2417395 0.187982599,75.6527119 Z" id="path-28"></path>
    </defs>
    <g id="Page-1" stroke="none" stroke-width="1" fill="none" fill-rule="evenodd">
        <g id="Final" transform="translate(0.000000, -1672.000000)">
            <g id="easy-to-use-" transform="translate(-89.000000, 1540.000000)">
                <g id="Illustration-1" transform="translate(0.000000, 126.000000)">
                    <path d="M86.4406118,143.027684 L468.373264,143.027684 C488.031252,143.027684 495.159713,145.074489 502.34638,148.91796 C509.533046,152.761432 515.173184,158.40157 519.016656,165.588236 C522.860127,172.774903 524.906932,179.903364 524.906932,199.561352 L524.906932,540.244005 C524.906932,559.901993 522.860127,567.030454 519.016656,574.217121 C515.173184,581.403787 509.533046,587.043925 502.34638,590.887396 C495.159713,594.730868 488.031252,596.777672 468.373264,596.777672 L86.4406118,596.777672 C66.7826241,596.777672 59.6541628,594.730868 52.4674963,590.887396 C45.2808298,587.043925 39.6406919,581.403787 35.7972206,574.217121 C31.9537493,567.030454 29.9069447,559.901993 29.9069447,540.244005 L29.9069447,199.561352 C29.9069447,179.903364 31.9537493,172.774903 35.7972206,165.588236 C39.6406919,158.40157 45.2808298,152.761432 52.4674963,148.91796 C59.6541628,145.074489 66.7826241,143.027684 86.4406118,143.027684 Z" id="Rectangle-11" stroke="#4381FF" opacity="0.300000012" transform="translate(277.406938, 369.902678) rotate(-8.000000) translate(-277.406938, -369.902678) "></path>
                    <g id="Group-20" transform="translate(22.299988, 0.549989)">
                        <g id="Group-49">
                            <mask id="mask-3" fill="white">
                                <use xlink:href="#path-2"></use>
                            </mask>
                            <use id="Rectangle-11" fill="url(#linearGradient-1)" xlink:href="#path-2"></use>
                            <polygon id="Path-28" fill="#FFFFFF" opacity="0.049999997" mask="url(#mask-3)" points="420.350619 3.7916414 66.7000123 230.079702 68.4664024 572.219589 515.133254 507.110468 578.139483 183.298004 547.797289 -2.8623899"></polygon>
                            <polygon id="Path-28" fill="#FFFFFF" opacity="0.0700000003" mask="url(#mask-3)" points="420.350619 3.7916414 66.7000123 376.368641 68.4664024 572.219589 433.617506 519.626117 578.139483 183.298004 547.797289 -2.8623899"></polygon>
                            <path d="M254.070145,12.0542638 L289.26739,32.3754028 C291.94264,33.9199591 292.75193,34.7586016 293.427974,35.8463253 C294.104018,36.9340489 294.428429,38.1447674 294.38682,39.4247859 C294.34521,40.7048044 294.063666,41.835735 292.519109,44.510985 L246.952969,123.433856 C245.408412,126.109106 244.56977,126.918396 243.482046,127.59444 C242.394323,128.270484 241.183604,128.594895 239.903586,128.553286 C238.623567,128.511676 237.492636,128.230131 234.817386,126.685575 L199.620141,106.364436 C196.944891,104.81988 196.135601,103.981237 195.459557,102.893514 C194.783513,101.80579 194.459101,100.595071 194.500711,99.315053 C194.542321,98.0350345 194.823865,96.9041038 196.368422,94.2288538 L241.934562,15.3059832 C243.479119,12.6307332 244.317761,11.8214433 245.405485,11.145399 C246.493208,10.4693546 247.703927,10.1449436 248.983945,10.1865533 C250.263964,10.2281631 251.394895,10.5097075 254.070145,12.0542638 Z" id="Rectangle-23" fill="#000B83" opacity="0.100000001" mask="url(#mask-3)"></path>
                            <path d="M446.769204,186.715204 L527.080958,140.347191 C529.58249,138.902931 530.639984,138.639669 531.836884,138.600761 C533.033785,138.561853 534.165885,138.865199 535.182977,139.497344 C536.200069,140.129489 536.984254,140.886228 538.428515,143.38776 L607.071528,262.280946 C608.515788,264.782478 608.77905,265.839972 608.817958,267.036872 C608.856866,268.233773 608.553521,269.365873 607.921375,270.382965 C607.28923,271.400057 606.532491,272.184243 604.030959,273.628503 L523.719205,319.996515 C521.217673,321.440776 520.160179,321.704038 518.963279,321.742946 C517.766379,321.781854 516.634278,321.478508 515.617186,320.846363 C514.600094,320.214218 513.815909,319.457479 512.371649,316.955947 L443.728636,198.062761 C442.284375,195.561229 442.021113,194.503735 441.982205,193.306835 C441.943297,192.109934 442.246643,190.977834 442.878788,189.960742 C443.510933,188.94365 444.267672,188.159464 446.769204,186.715204 Z" id="Rectangle-22" fill="#000B83" opacity="0.100000001" mask="url(#mask-3)"></path>
                            <circle id="Oval-12" fill="#FFFFFF" opacity="0.149999991" mask="url(#mask-3)" cx="421" cy="42" r="4"></circle>
                            <circle id="Oval-13" fill="#FFFFFF" opacity="0.200000003" mask="url(#mask-3)" cx="421.5" cy="223.5" r="5.5"></circle>
                            <circle id="Oval-8" fill="#FFFFFF" opacity="0.100000001" mask="url(#mask-3)" cx="73.5" cy="179.5" r="51.5"></circle>
                            <circle id="Oval-9" fill="#FFFFFF" opacity="0.100000001" mask="url(#mask-3)" cx="138.5" cy="96.5" r="4.5"></circle>
                            <g id="Group-53" mask="url(#mask-3)">
                                <g transform="translate(502.940019, 370.890012)">
                                    <mask id="mask-5" fill="white">
                                        <use xlink:href="#path-4"></use>
                                    </mask>
                                    <use id="Path-11" stroke="none" fill="#222D9F" fill-rule="evenodd" xlink:href="#path-4"></use>
                                    <path d="M41.8755779,121.827363 C27.0774611,25.4224499 30.5764527,-30.7611805 52.3725525,-46.7235287 C64.7386459,-55.7798228 87.3765454,-51.0060906 79.0477996,-4.72659853 C75.6666818,14.0609142 66.2471352,55.7064473 50.7891599,120.210001 L41.8755779,121.827363 Z" id="Path-9" stroke="none" fill="#000000" fill-rule="evenodd" opacity="0.149999991" mask="url(#mask-5)"></path>
                                    <path d="M9.00036515,-1.77679801 C10.8878437,25.1984724 16.2195944,49.1202378 24.9956172,69.988498 C33.77164,90.8567582 43.861371,109.237026 55.26481,125.1293" id="Path-22" stroke="#6D8DE7" stroke-width="0.75600006" fill="none" mask="url(#mask-5)"></path>
                                    <polyline id="Path-23" stroke="#6D8DE7" stroke-width="0.75600006" fill="none" mask="url(#mask-5)" points="-2.95116826 31.3756112 15.0248277 38.9518523 25.9770364 16.7943312"></polyline>
                                    <polyline id="Path-24" stroke="#6D8DE7" stroke-width="0.75600006" fill="none" mask="url(#mask-5)" points="-0.996956765 63.0067147 24.5202833 69.0449595 42.7225103 38.7131223"></polyline>
                                    <polyline id="Path-25" stroke="#6D8DE7" stroke-width="0.75600006" fill="none" mask="url(#mask-5)" points="8.51099773 92.9917059 37.7860484 97.2763474 56.733838 66.6970309"></polyline>
                                </g>
                            </g>
                            <g id="Group-54" mask="url(#mask-3)">
                                <g transform="translate(54.000000, 485.000000)">
                                    <mask id="mask-7" fill="white">
                                        <use xlink:href="#path-6"></use>
                                    </mask>
                                    <use id="Rectangle-31" stroke="none" fill="#222D9F" fill-rule="evenodd" xlink:href="#path-6"></use>
                                    <circle id="Oval-7" stroke="#0E1665" stroke-width="1" fill="none" stroke-linecap="round" stroke-linejoin="round" mask="url(#mask-7)" cx="354.054774" cy="6.05477409" r="29.9452259"></circle>
                                    <polygon id="Rectangle-32" stroke="none" fill="#47A1F8" fill-rule="evenodd" opacity="0.5" mask="url(#mask-7)" points="93 37 160 37 160 104 93 104"></polygon>
                                    <polygon id="Rectangle-32" stroke="#0E1665" stroke-width="1" fill="none" stroke-linecap="round" stroke-linejoin="round" mask="url(#mask-7)" points="109 25 176 25 176 92 109 92"></polygon>
                                    <path d="M23.0032664,84.7352529 L66.01525,-4.02946739" id="Path-12" stroke="#0E1665" stroke-width="1" fill="none" stroke-linecap="round" stroke-linejoin="round" mask="url(#mask-7)"></path>
                                    <path d="M466.820726,19.4319606 C224.6388,51.4850818 89.5651076,65.7448526 61.5996479,62.211273 C33.6341883,58.6776935 16.8486398,48.5526289 11.2430027,31.8360794 L11.2430027,53.8059536 C17.383904,78.7166441 39.6580005,87.8997693 78.0652924,81.355329 C116.472584,74.8108887 246.057729,54.1697659 466.820726,19.4319606 Z" id="Path-26" stroke="none" fill="#000000" fill-rule="evenodd" opacity="0.200000003" mask="url(#mask-7)"></path>
                                </g>
                            </g>
                            <g mask="url(#mask-3)">
                                <g transform="translate(-31.230001, 168.975007)">
                                    <g id="Group-57" transform="translate(164.000000, 268.000000)">
                                        <mask id="mask-9" fill="white">
                                            <use xlink:href="#path-8"></use>
                                        </mask>
                                        <use id="Combined-Shape" fill="#EBEBFF" xlink:href="#path-8"></use>
                                        <polygon id="Path-30" fill="#001375" opacity="0.200000003" mask="url(#mask-9)" points="74.2486326 7.53533556 8.57252404 21.7243095 15.4231641 3.57959635"></polygon>
                                    </g>
                                    <g id="Group-55" transform="translate(122.000000, 301.000000)">
                                        <mask id="mask-11" fill="white">
                                            <use xlink:href="#path-10"></use>
                                        </mask>
                                        <use id="Rectangle-29" fill="#FFFFFF" xlink:href="#path-10"></use>
                                    </g>
                                    <g id="Group-56">
                                        <mask id="mask-13" fill="white">
                                            <use xlink:href="#path-12"></use>
                                        </mask>
                                        <use id="Rectangle-27" fill="#FFFFFF" xlink:href="#path-12"></use>
                                        <g id="Group-49" mask="url(#mask-13)">
                                            <g transform="translate(7.128000, 11.232867)" id="Group-56">
                                                <g>
                                                    <polygon id="Rectangle-27" fill="#222D9F" points="0.128000249 0.232867031 391.682014 0.232867031 391.682014 247.444876 0.128000249 247.444876"></polygon>
                                                    <g id="Group-59" transform="translate(141.000000, 199.000000)" stroke="#FFFFFF">
                                                        <path d="M39.7469347,1.47594524 L100.140803,1.47594524" id="Path-32" stroke-width="4"></path>
                                                        <polyline id="Path-33" stroke-width="4" points="0.799333335 12.8901883 7.56516946 19.6560244 18.8772183 8.34397557"></polyline>
                                                        <path d="M39.7469347,16.4759452 L80.1408034,16.4759452" id="Path-32" stroke-width="3" opacity="0.600000024"></path>
                                                        <path d="M39.7469347,26.4759452 L87.1408034,26.4759452" id="Path-32" stroke-width="3" opacity="0.600000024"></path>
                                                    </g>
                                                    <g id="Group-61" opacity="0.699999988" transform="translate(20.000000, 21.000000)">
                                                        <path d="M4.25083493,-2.85770855e-14 L103.229177,-2.45101034e-14 C104.566456,-3.06944652e-14 105.051385,0.139238417 105.540274,0.400699056 C106.029163,0.662159695 106.412846,1.04584256 106.674306,1.53473144 C106.935767,2.02362033 107.075005,2.50854969 107.075005,3.8458278 L107.075005,151.154172 C107.075005,152.49145 106.935767,152.97638 106.674306,153.465269 C106.412846,153.954157 106.029163,154.33784 105.540274,154.599301 C105.051385,154.860762 104.566456,155 103.229177,155 L4.25083493,155 C2.91355682,155 2.42862746,154.860762 1.93973857,154.599301 C1.45084969,154.33784 1.06716682,153.954157 0.805706185,153.465269 C0.544245546,152.97638 0.405007129,152.49145 0.405007129,151.154172 L0.405007129,3.8458278 C0.405007129,2.50854969 0.544245546,2.02362033 0.805706185,1.53473144 C1.06716682,1.04584256 1.45084969,0.662159695 1.93973857,0.400699056 C2.42862746,0.139238417 2.91355682,-2.83314315e-14 4.25083493,-2.85770855e-14 Z" id="Rectangle-33" fill="url(#linearGradient-14)"></path>
                                                        <g id="Group-60" transform="translate(16.000000, 126.000000)" opacity="0.600000024" stroke="#8D65FF" stroke-width="3">
                                                            <path d="M0,13 L60.3938688,13" id="Path-32"></path>
                                                        </g>
                                                    </g>
                                                    <g id="Group-61-Copy" transform="translate(141.905007, 21.000000)">
                                                        <path d="M4.25083493,-2.85770855e-14 L103.229177,-2.45101034e-14 C104.566456,-3.06944652e-14 105.051385,0.139238417 105.540274,0.400699056 C106.029163,0.662159695 106.412846,1.04584256 106.674306,1.53473144 C106.935767,2.02362033 107.075005,2.50854969 107.075005,3.8458278 L107.075005,151.154172 C107.075005,152.49145 106.935767,152.97638 106.674306,153.465269 C106.412846,153.954157 106.029163,154.33784 105.540274,154.599301 C105.051385,154.860762 104.566456,155 103.229177,155 L4.25083493,155 C2.91355682,155 2.42862746,154.860762 1.93973857,154.599301 C1.45084969,154.33784 1.06716682,153.954157 0.805706185,153.465269 C0.544245546,152.97638 0.405007129,152.49145 0.405007129,151.154172 L0.405007129,3.8458278 C0.405007129,2.50854969 0.544245546,2.02362033 0.805706185,1.53473144 C1.06716682,1.04584256 1.45084969,0.662159695 1.93973857,0.400699056 C2.42862746,0.139238417 2.91355682,-2.83314315e-14 4.25083493,-2.85770855e-14 Z" id="Rectangle-33" fill="url(#linearGradient-15)"></path>
                                                        <g id="Group-60" transform="translate(16.000000, 126.000000)" stroke="#FFFFFF">
                                                            <path d="M0,1 L35.3938688,1" id="Path-32" stroke-width="4"></path>
                                                            <path d="M0,13 L60.3938688,13" id="Path-32" stroke-width="3" opacity="0.600000024"></path>
                                                        </g>
                                                        <path d="M63.6795191,59.2389131 L47.728025,68.302262 C46.7676498,68.8479298 45.5467608,68.5117429 45.0010931,67.5513677 C44.8299721,67.2501948 44.7400062,66.9097411 44.7400062,66.5633489 L44.7400062,48.4366511 C44.7400062,47.3320816 45.6354367,46.4366511 46.7400062,46.4366511 C47.0863984,46.4366511 47.4268521,46.526617 47.728025,46.697738 L63.6795191,55.7610869 C64.6398943,56.3067546 64.9760812,57.5276436 64.4304134,58.4880188 C64.2523517,58.8014075 63.9929078,59.0608514 63.6795191,59.2389131 Z" id="Triangle-3" fill="#FFFFFF"></path>
                                                    </g>
                                                    <g id="Group-61-Copy-2" opacity="0.5" transform="translate(264.000000, 21.000000)">
                                                        <path d="M4.25083493,-2.85770855e-14 L103.229177,-2.45101034e-14 C104.566456,-3.06944652e-14 105.051385,0.139238417 105.540274,0.400699056 C106.029163,0.662159695 106.412846,1.04584256 106.674306,1.53473144 C106.935767,2.02362033 107.075005,2.50854969 107.075005,3.8458278 L107.075005,151.154172 C107.075005,152.49145 106.935767,152.97638 106.674306,153.465269 C106.412846,153.954157 106.029163,154.33784 105.540274,154.599301 C105.051385,154.860762 104.566456,155 103.229177,155 L4.25083493,155 C2.91355682,155 2.42862746,154.860762 1.93973857,154.599301 C1.45084969,154.33784 1.06716682,153.954157 0.805706185,153.465269 C0.544245546,152.97638 0.405007129,152.49145 0.405007129,151.154172 L0.405007129,3.8458278 C0.405007129,2.50854969 0.544245546,2.02362033 0.805706185,1.53473144 C1.06716682,1.04584256 1.45084969,0.662159695 1.93973857,0.400699056 C2.42862746,0.139238417 2.91355682,-2.83314315e-14 4.25083493,-2.85770855e-14 Z" id="Rectangle-33" fill="url(#linearGradient-16)"></path>
                                                        <g id="Group-60" transform="translate(16.000000, 126.000000)" stroke="#8D65FF">
                                                            <path d="M0,1 L35.3938688,1" id="Path-32" stroke-width="4"></path>
                                                            <path d="M0,13 L60.3938688,13" id="Path-32" stroke-width="3" opacity="0.600000024"></path>
                                                        </g>
                                                        <path d="M63.6795191,59.2389131 L47.728025,68.302262 C46.7676498,68.8479298 45.5467608,68.5117429 45.0010931,67.5513677 C44.8299721,67.2501948 44.7400062,66.9097411 44.7400062,66.5633489 L44.7400062,48.4366511 C44.7400062,47.3320816 45.6354367,46.4366511 46.7400062,46.4366511 C47.0863984,46.4366511 47.4268521,46.526617 47.728025,46.697738 L63.6795191,55.7610869 C64.6398943,56.3067546 64.9760812,57.5276436 64.4304134,58.4880188 C64.2523517,58.8014075 63.9929078,59.0608514 63.6795191,59.2389131 Z" id="Triangle-3" fill="#FFFFFF"></path>
                                                    </g>
                                                </g>
                                            </g>
                                        </g>
                                        <path d="M299.62466,168.775939 L272.155971,168.775939 C267.737693,168.775939 264.155971,172.357661 264.155971,176.775939 L264.155971,280.158169 L299.62466,280.158169 L299.62466,168.775939 Z" id="Path-29" fill="#000B83" opacity="0.400000006" mask="url(#mask-13)"></path>
                                    </g>
                                </g>
                            </g>
                        </g>
                        <g id="Group-48" transform="translate(216.701291, 321.073532)">
                            <g id="Group-58" transform="translate(34.000000, -0.000000)">
                                <mask id="mask-19" fill="white">
                                    <use xlink:href="#path-18"></use>
                                </mask>
                                <use id="Rectangle-20" fill="url(#linearGradient-17)" xlink:href="#path-18"></use>
                                <g id="Group-62" mask="url(#mask-19)">
                                    <g transform="translate(6.861280, 10.588937)">
                                        <polygon id="Rectangle-20" fill="#222D9F" points="0.989503346 0.100591615 205.010497 0.100591615 205.010497 139.17514 2.78950342 139.17514"></polygon>
                                        <g id="Group-59" stroke-width="1" fill="none" transform="translate(70.500000, 113.775140)">
                                            <path d="M23.8481594,0.885567094 L60.0844785,0.885567094" id="Path-32" stroke="#FFFFFF" stroke-width="2.39999986"></path>
                                            <polyline id="Path-33" stroke="#FFFFFF" stroke-width="2.39999986" points="0.479599973 4.73411252 4.53910141 8.79361396 11.3263303 2.00638504"></polyline>
                                            <path d="M23.8481594,9.88556656 L48.0844792,9.88556656" id="Path-32" stroke="#FFFFFF" stroke-width="1.79999989" opacity="0.600000024"></path>
                                        </g>
                                        <g id="Group-61" stroke-width="1" fill="none" transform="translate(10.989503, 10.100592)">
                                            <path d="M4.05238143,-2.14716581e-14 L50.7624239,-2.1160906e-14 C52.099702,-2.140656e-14 52.5846313,0.139238417 53.0735202,0.400699056 C53.5624091,0.662159695 53.946092,1.04584256 54.2075526,1.53473144 C54.4690133,2.02362033 54.6082517,2.50854969 54.6082517,3.8458278 L54.6082517,85.1541722 C54.6082517,86.4914503 54.4690133,86.9763797 54.2075526,87.4652686 C53.946092,87.9541574 53.5624091,88.3378403 53.0735202,88.5993009 C52.5846313,88.8607616 52.099702,89 50.7624239,89 L4.05238143,89 C2.71510332,89 2.23017397,88.8607616 1.74128508,88.5993009 C1.25239619,88.3378403 0.868713327,87.9541574 0.607252688,87.4652686 C0.345792049,86.9763797 0.206553632,86.4914503 0.206553632,85.1541722 L0.206553632,3.8458278 C0.206553632,2.50854969 0.345792049,2.02362033 0.607252688,1.53473144 C0.868713327,1.04584256 1.25239619,0.662159695 1.74128508,0.400699056 C2.23017397,0.139238417 2.71510332,-2.12260041e-14 4.05238143,-2.14716581e-14 Z" id="Rectangle-33" fill="url(#linearGradient-14)"></path>
                                            <g id="Group-60" transform="translate(8.160000, 66.259999)" stroke="#FFFFFF">
                                                <path d="M0,0.50999999 L18.0508727,0.50999999" id="Path-32" stroke-width="2.5"></path>
                                                <path d="M0,7.62999988 L30.8008725,7.62999988" id="Path-32" stroke-width="1.8" opacity="0.600000024"></path>
                                                <path d="M0,12.6299999 L24.8008725,12.6299999" id="Path-32" stroke-width="1.8" opacity="0.600000024"></path>
                                            </g>
                                            <path d="M32.4765541,30.2118451 L24.3412923,34.834153 C23.851501,35.1124435 23.2288476,34.9409882 22.9505571,34.4511969 C22.8632853,34.2975987 22.8174027,34.1239673 22.8174027,33.9473073 L22.8174027,24.7026916 C22.8174027,24.1393612 23.2740723,23.6826916 23.8374027,23.6826916 C24.0140627,23.6826916 24.1876941,23.7285742 24.3412923,23.8158459 L32.4765541,28.4381538 C32.9663455,28.7164443 33.1378008,29.3390977 32.8595102,29.828889 C32.7686987,29.9887173 32.6363824,30.1210336 32.4765541,30.2118451 Z" id="Triangle-3" fill="#FFFFFF"></path>
                                        </g>
                                        <g id="Group-61-Copy-3" stroke-width="1" fill="none" transform="translate(75.000000, 10.100592)">
                                            <path d="M4.05238143,-2.14716581e-14 L50.7624239,-2.1160906e-14 C52.099702,-2.140656e-14 52.5846313,0.139238417 53.0735202,0.400699056 C53.5624091,0.662159695 53.946092,1.04584256 54.2075526,1.53473144 C54.4690133,2.02362033 54.6082517,2.50854969 54.6082517,3.8458278 L54.6082517,85.1541722 C54.6082517,86.4914503 54.4690133,86.9763797 54.2075526,87.4652686 C53.946092,87.9541574 53.5624091,88.3378403 53.0735202,88.5993009 C52.5846313,88.8607616 52.099702,89 50.7624239,89 L4.05238143,89 C2.71510332,89 2.23017397,88.8607616 1.74128508,88.5993009 C1.25239619,88.3378403 0.868713327,87.9541574 0.607252688,87.4652686 C0.345792049,86.9763797 0.206553632,86.4914503 0.206553632,85.1541722 L0.206553632,3.8458278 C0.206553632,2.50854969 0.345792049,2.02362033 0.607252688,1.53473144 C0.868713327,1.04584256 1.25239619,0.662159695 1.74128508,0.400699056 C2.23017397,0.139238417 2.71510332,-2.12260041e-14 4.05238143,-2.14716581e-14 Z" id="Rectangle-33" fill="url(#linearGradient-15)"></path>
                                            <g id="Group-60" transform="translate(8.160000, 66.259999)" stroke="#FFFFFF">
                                                <path d="M0,0.50999999 L18.0508727,0.50999999" id="Path-32" stroke-width="2.5"></path>
                                                <path d="M0,7.62999988 L30.8008725,7.62999988" id="Path-32" stroke-width="1.8" opacity="0.600000024"></path>
                                                <path d="M0,12.6299999 L24.8008725,12.6299999" id="Path-32" stroke-width="1.8" opacity="0.600000024"></path>
                                            </g>
                                            <path d="M32.4765541,30.2118451 L24.3412923,34.834153 C23.851501,35.1124435 23.2288476,34.9409882 22.9505571,34.4511969 C22.8632853,34.2975987 22.8174027,34.1239673 22.8174027,33.9473073 L22.8174027,24.7026916 C22.8174027,24.1393612 23.2740723,23.6826916 23.8374027,23.6826916 C24.0140627,23.6826916 24.1876941,23.7285742 24.3412923,23.8158459 L32.4765541,28.4381538 C32.9663455,28.7164443 33.1378008,29.3390977 32.8595102,29.828889 C32.7686987,29.9887173 32.6363824,30.1210336 32.4765541,30.2118451 Z" id="Triangle-3" fill="#FFFFFF"></path>
                                        </g>
                                        <g id="Group-61-Copy-4" stroke-width="1" fill="none" transform="translate(139.000000, 11.100592)">
                                            <path d="M4.05238143,-2.14716581e-14 L50.7624239,-2.1160906e-14 C52.099702,-2.140656e-14 52.5846313,0.139238417 53.0735202,0.400699056 C53.5624091,0.662159695 53.946092,1.04584256 54.2075526,1.53473144 C54.4690133,2.02362033 54.6082517,2.50854969 54.6082517,3.8458278 L54.6082517,85.1541722 C54.6082517,86.4914503 54.4690133,86.9763797 54.2075526,87.4652686 C53.946092,87.9541574 53.5624091,88.3378403 53.0735202,88.5993009 C52.5846313,88.8607616 52.099702,89 50.7624239,89 L4.05238143,89 C2.71510332,89 2.23017397,88.8607616 1.74128508,88.5993009 C1.25239619,88.3378403 0.868713327,87.9541574 0.607252688,87.4652686 C0.345792049,86.9763797 0.206553632,86.4914503 0.206553632,85.1541722 L0.206553632,3.8458278 C0.206553632,2.50854969 0.345792049,2.02362033 0.607252688,1.53473144 C0.868713327,1.04584256 1.25239619,0.662159695 1.74128508,0.400699056 C2.23017397,0.139238417 2.71510332,-2.12260041e-14 4.05238143,-2.14716581e-14 Z" id="Rectangle-33" fill="url(#linearGradient-16)"></path>
                                            <g id="Group-60" transform="translate(8.160000, 66.259999)" stroke="#FFFFFF">
                                                <path d="M0,0.50999999 L18.0508727,0.50999999" id="Path-32" stroke-width="2.5"></path>
                                                <path d="M0,7.62999988 L30.8008725,7.62999988" id="Path-32" stroke-width="1.8" opacity="0.600000024"></path>
                                                <path d="M0,12.6299999 L24.8008725,12.6299999" id="Path-32" stroke-width="1.8" opacity="0.600000024"></path>
                                            </g>
                                            <path d="M32.4765541,30.2118451 L24.3412923,34.834153 C23.851501,35.1124435 23.2288476,34.9409882 22.9505571,34.4511969 C22.8632853,34.2975987 22.8174027,34.1239673 22.8174027,33.9473073 L22.8174027,24.7026916 C22.8174027,24.1393612 23.2740723,23.6826916 23.8374027,23.6826916 C24.0140627,23.6826916 24.1876941,23.7285742 24.3412923,23.8158459 L32.4765541,28.4381538 C32.9663455,28.7164443 33.1378008,29.3390977 32.8595102,29.828889 C32.7686987,29.9887173 32.6363824,30.1210336 32.4765541,30.2118451 Z" id="Triangle-3" fill="#FFFFFF"></path>
                                        </g>
                                    </g>
                                </g>
                                <polygon id="Path-31" fill="#000B83" opacity="0.25" mask="url(#mask-19)" points="-0.070154461 136.577744 223.109931 149.693118 -0.070154461 154.238243"></polygon>
                            </g>
                            <path d="M0.0372814883,149.622432 L287.506272,149.622432 L287.506272,149.622432 C287.506272,158.077359 280.6522,164.931432 272.197273,164.931432 L15.346281,164.931432 C6.89135403,164.931432 0.0372814883,158.077359 0.0372814883,149.622432 Z" id="Rectangle-20" fill="url(#linearGradient-20)"></path>
                            <path d="M123.359778,149.294226 L164.183776,149.294226 L164.183776,149.294226 C164.183776,153.051971 161.137522,156.098225 157.379776,156.098225 L130.163777,156.098225 C126.406032,156.098225 123.359778,153.051971 123.359778,149.294226 Z" id="Rectangle-21" fill="#222D9F" opacity="0.5"></path>
                        </g>
                        <g id="Group-47" transform="translate(259.986516, 64.868301) rotate(30.000000) translate(-259.986516, -64.868301) translate(230.486516, 10.368301)">
                            <path d="M8.88386276,-3.58918689e-16 L49.5261408,3.58918689e-16 C52.6152534,-2.08542094e-16 53.7354403,0.321640762 54.8647737,0.925614875 C55.9941071,1.52958899 56.8804146,2.41589645 57.4843887,3.54522985 C58.0883628,4.67456326 58.4100036,5.79475014 58.4100036,8.88386276 L58.4100036,100.016144 C58.4100036,103.105257 58.0883628,104.225443 57.4843887,105.354777 C56.8804146,106.48411 55.9941071,107.370418 54.8647737,107.974392 C53.7354403,108.578366 52.6152534,108.900007 49.5261408,108.900007 L8.88386276,108.900007 C5.79475014,108.900007 4.67456326,108.578366 3.54522985,107.974392 C2.41589645,107.370418 1.52958899,106.48411 0.925614875,105.354777 C0.321640762,104.225443 1.39028063e-16,103.105257 -2.39279126e-16,100.016144 L2.39279126e-16,8.88386276 C-1.39028063e-16,5.79475014 0.321640762,4.67456326 0.925614875,3.54522985 C1.52958899,2.41589645 2.41589645,1.52958899 3.54522985,0.925614875 C4.67456326,0.321640762 5.79475014,2.08542094e-16 8.88386276,-3.58918689e-16 Z" id="Rectangle-23" fill="url(#linearGradient-16)"></path>
                            <g id="Group-66" transform="translate(5.215068, 4.655002)">
                                <mask id="mask-22" fill="white">
                                    <use xlink:href="#path-21"></use>
                                </mask>
                                <use id="Rectangle-23" fill="#222D9F" xlink:href="#path-21"></use>
                                <g id="Group-65" mask="url(#mask-22)">
                                    <g transform="translate(5.398075, 14.703847)">
                                        <g id="Group-64" stroke-width="1" fill="none" transform="translate(0.000000, -0.000000)">
                                            <rect id="Rectangle-22" fill="url(#linearGradient-14)" x="0.459250895" y="0.341905892" width="31.9055014" height="56.5620022" rx="1.65000004"></rect>
                                            <g id="Group-60" transform="translate(4.950000, 43.620501)" stroke="#FFFFFF">
                                                <path d="M0,0.280500001 L9.92798022,0.280500001" id="Path-32" stroke-width="1.37500003"></path>
                                                <path d="M0,4.19650002 L16.9404802,4.19650002" id="Path-32" stroke-width="0.990000021" opacity="0.600000024"></path>
                                                <path d="M0,6.94650008 L13.6404802,6.94650008" id="Path-32" stroke-width="0.990000021" opacity="0.600000024"></path>
                                            </g>
                                            <path d="M18.3241053,19.9440155 L13.8497112,22.4862849 C13.5803259,22.6393447 13.2378665,22.5450443 13.0848067,22.275659 C13.0368073,22.19118 13.0115719,22.0956827 13.0115719,21.9985197 L13.0115719,16.913981 C13.0115719,16.6041492 13.2627401,16.352981 13.5725719,16.352981 C13.6697349,16.352981 13.7652321,16.3782164 13.8497112,16.4262158 L18.3241053,18.9684852 C18.5934905,19.121545 18.6877909,19.4640044 18.5347311,19.7333896 C18.4847848,19.8212952 18.4120108,19.8940692 18.3241053,19.9440155 Z" id="Triangle-3" fill="#FFFFFF"></path>
                                        </g>
                                        <rect id="Rectangle-22-Copy" fill="url(#linearGradient-15)" opacity="0.5" x="36.9500008" y="3.09190595" width="31.9055014" height="51.0620021" rx="1.65000004"></rect>
                                    </g>
                                </g>
                            </g>
                            <path d="M21.7800013,98.8994477 L36.6300022,98.8994477" id="Path-8" stroke="#FFFFFF" stroke-width="1.98000012" stroke-linecap="round" stroke-linejoin="round"></path>
                        </g>
                        <g id="Group-46" transform="translate(530.856478, 214.080809) rotate(-30.000000) translate(-530.856478, -214.080809) translate(475.856478, 137.080809)">
                            <path d="M8.30698816,-3.35612264e-16 L101.043013,1.22379068e-15 C103.931534,6.93178029e-16 104.978981,0.300754984 106.034981,0.865509972 C107.090981,1.43026496 107.919736,2.25901995 108.484491,3.31501996 C109.049246,4.37101998 109.350001,5.4184674 109.350001,8.30698816 L109.350001,145.593014 C109.350001,148.481535 109.049246,149.528982 108.484491,150.584982 C107.919736,151.640982 107.090981,152.469737 106.034981,153.034492 C104.978981,153.599247 103.931534,153.900002 101.043013,153.900002 L8.30698816,153.900002 C5.4184674,153.900002 4.37101998,153.599247 3.31501996,153.034492 C2.25901995,152.469737 1.43026496,151.640982 0.865509972,150.584982 C0.300754984,149.528982 4.84415237e-15,148.481535 -8.3371984e-15,145.593014 L2.23741509e-16,8.30698816 C-1.3000026e-16,5.4184674 0.300754984,4.37101998 0.865509972,3.31501996 C1.43026496,2.25901995 2.25901995,1.43026496 3.31501996,0.865509972 C4.37101998,0.300754984 5.4184674,1.9500039e-16 8.30698816,-3.35612264e-16 Z" id="Rectangle-22" fill="url(#linearGradient-23)"></path>
                            <circle id="Oval-6" fill="#FFFFFF" cx="54.6750007" cy="147.420002" r="3.24000004"></circle>
                            <g id="Group-63" transform="translate(4.556475, 8.028682)">
                                <mask id="mask-25" fill="white">
                                    <use xlink:href="#path-24"></use>
                                </mask>
                                <use id="Rectangle-22" fill="#222D9F" xlink:href="#path-24"></use>
                                <g id="Group-65" mask="url(#mask-25)">
                                    <g transform="translate(15.000000, 15.000000)">
                                        <g id="Group-64" stroke-width="1" fill="none" transform="translate(0.000000, -0.000000)">
                                            <rect id="Rectangle-22" fill="url(#linearGradient-15)" x="0.835001609" y="0.621647064" width="58.0100013" height="102.840002" rx="3"></rect>
                                            <g id="Group-60" transform="translate(9.000000, 79.309999)" stroke="#FFFFFF">
                                                <path d="M0,0.50999999 L18.0508727,0.50999999" id="Path-32" stroke-width="2.5"></path>
                                                <path d="M0,7.62999988 L30.8008725,7.62999988" id="Path-32" stroke-width="1.8" opacity="0.600000024"></path>
                                                <path d="M0,12.6299999 L24.8008725,12.6299999" id="Path-32" stroke-width="1.8" opacity="0.600000024"></path>
                                            </g>
                                            <path d="M33.3165543,36.2618456 L25.1812925,40.8841534 C24.6915011,41.162444 24.0688477,40.9909887 23.7905572,40.5011973 C23.7032855,40.3475991 23.6574029,40.1739678 23.6574029,39.9973077 L23.6574029,30.752692 C23.6574029,30.1893616 24.1140724,29.732692 24.6774029,29.732692 C24.8540629,29.732692 25.0276943,29.7785746 25.1812925,29.8658463 L33.3165543,34.4881542 C33.8063456,34.7664447 33.9778009,35.3890981 33.6995104,35.8788895 C33.6086989,36.0387177 33.4763825,36.1710341 33.3165543,36.2618456 Z" id="Triangle-3" fill="#FFFFFF"></path>
                                        </g>
                                        <rect id="Rectangle-22-Copy" fill="url(#linearGradient-16)" opacity="0.5" x="69" y="5.62164706" width="58.0100013" height="92.8400018" rx="3"></rect>
                                    </g>
                                </g>
                            </g>
                        </g>
                        <g id="Group-52" transform="translate(543.420021, 326.035011)">
                            <mask id="mask-27" fill="white">
                                <use xlink:href="#path-26"></use>
                            </mask>
                            <use id="Path-9" fill="#5269FF" xlink:href="#path-26"></use>
                            <path d="M54.0159197,-2.31767948 C33.242657,44.1383418 20.4732792,104.644697 15.7077863,179.201387" id="Path-19" stroke="#222D9F" stroke-width="0.7" mask="url(#mask-27)"></path>
                            <path d="M36.7583957,-0.370242601 C19.2510158,32.4441246 10.4973258,91.4722127 10.4973258,176.714022" id="Path-20" stroke="#222D9F" stroke-width="0.7" mask="url(#mask-27)"></path>
                            <path d="M65.6136343,11.8284558 C40.5238068,68.9310123 26.1890761,123.2996 22.6094423,174.93422" id="Path-21" stroke="#222D9F" stroke-width="0.7" mask="url(#mask-27)"></path>
                            <path d="M20.4786497,173.089405 C18.3990344,117.864417 28.4586326,88.3334873 50.6574442,84.4966169 L26.1938569,173.089405 L20.4786497,173.089405 Z" id="Path-27" fill="#000000" opacity="0.149999991" mask="url(#mask-27)"></path>
                        </g>
                    </g>
                    <g id="Group-51" transform="translate(586.099999, 422.549999)">
                        <mask id="mask-29" fill="white">
                            <use xlink:href="#path-28"></use>
                        </mask>
                        <use id="Path-10" fill="#222D9F" xlink:href="#path-28"></use>
                        <path d="M34.1757409,0.213101847 C21.8566604,22.9530646 13.6747139,48.3216888 9.62990131,76.3189745" id="Path-13" stroke="#6D8DE7" stroke-width="0.770000017" mask="url(#mask-29)"></path>
                        <path d="M62.5675423,39.4944565 C50.4912115,52.4373878 32.8108783,64.0948689 9.52654266,74.4668997" id="Path-14" stroke="#6D8DE7" stroke-width="0.770000017" mask="url(#mask-29)"></path>
                        <polyline id="Path-15" stroke="#6D8DE7" stroke-width="0.770000017" mask="url(#mask-29)" points="14.9120532 8.82016977 23.3406403 23.4850421 41.3030681 16.1526059"></polyline>
                        <polyline id="Path-16" stroke="#6D8DE7" stroke-width="0.770000017" mask="url(#mask-29)" points="7.89527798 29.3460579 16.9346322 42.6061657 35.2429657 37.2372873"></polyline>
                        <polyline id="Path-17" stroke="#6D8DE7" stroke-width="0.770000017" mask="url(#mask-29)" points="46.2121093 37.8727201 47.4095653 52.9516221 61.1295104 56.3079052"></polyline>
                        <polyline id="Path-18" stroke="#6D8DE7" stroke-width="0.770000017" mask="url(#mask-29)" points="34.2187561 44.5154004 35.0961466 61.1464732 45.5572964 64.5808641"></polyline>
                    </g>
                </g>
            </g>
        </g>
    </g>
</svg>