<?xml version="1.0" encoding="UTF-8"?>
<svg width="775px" height="557px" viewBox="0 0 775 557" version="1.1" xmlns="http://www.w3.org/2000/svg" xmlns:xlink="http://www.w3.org/1999/xlink">
    <!-- Generator: Sketch 51.2 (57519) - http://www.bohemiancoding.com/sketch -->
    <title>Illustration header</title>
    <desc>Created with Sketch.</desc>
    <defs>
        <linearGradient x1="77.4824969%" y1="30.0878769%" x2="36.0275022%" y2="62.0081742%" id="linearGradient-1">
            <stop stop-color="#FFFFFF" stop-opacity="0.2" offset="0%"></stop>
            <stop stop-color="#4A77EE" stop-opacity="0" offset="100%"></stop>
        </linearGradient>
        <path d="M3.2948036,59.4098859 L330.294804,0.842721743 C332.46934,0.453252526 334.547877,1.90033545 334.937347,4.07487192 C334.979033,4.30762349 335,4.54361306 335,4.78006832 L335,295.521132 C335,297.730271 333.209139,299.521132 331,299.521132 C330.849512,299.521132 330.699145,299.51264 330.549614,299.495696 L3.54961431,262.441027 C1.52768574,262.211908 -1.3517566e-14,260.501333 -1.37667655e-14,258.466464 L1.86517468e-14,63.3472325 C1.49735206e-14,61.4101224 1.38803519,59.7513967 3.2948036,59.4098859 Z" id="path-2"></path>
        <linearGradient x1="0%" y1="-38.4321422%" x2="105.69539%" y2="141.807496%" id="linearGradient-4">
            <stop stop-color="#DF81FF" offset="0%"></stop>
            <stop stop-color="#775DFF" offset="100%"></stop>
        </linearGradient>
        <linearGradient x1="0%" y1="-36.8917067%" x2="100%" y2="120.095071%" id="linearGradient-5">
            <stop stop-color="#FFE3C3" offset="0%"></stop>
            <stop stop-color="#FF7BB5" offset="100%"></stop>
        </linearGradient>
        <linearGradient x1="12.8170854%" y1="-14.3268853%" x2="82.862172%" y2="131.49914%" id="linearGradient-6">
            <stop stop-color="#7694FF" offset="0%"></stop>
            <stop stop-color="#85F5FF" offset="100%"></stop>
        </linearGradient>
        <linearGradient x1="50%" y1="0%" x2="83.8351722%" y2="100%" id="linearGradient-7">
            <stop stop-color="#FFFFFF" offset="0%"></stop>
            <stop stop-color="#FFDBEF" offset="100%"></stop>
        </linearGradient>
        <linearGradient x1="-34.4048006%" y1="-29.2163439%" x2="123.161943%" y2="133.884994%" id="linearGradient-8">
            <stop stop-color="#FFE3C3" offset="0%"></stop>
            <stop stop-color="#FF7BB5" offset="100%"></stop>
        </linearGradient>
        <linearGradient x1="12.8170854%" y1="-14.3268853%" x2="78.3966336%" y2="126.72065%" id="linearGradient-9">
            <stop stop-color="#77B6FF" offset="0%"></stop>
            <stop stop-color="#85F5FF" offset="100%"></stop>
        </linearGradient>
        <linearGradient x1="0%" y1="-38.4321422%" x2="89.8769442%" y2="120.065613%" id="linearGradient-10">
            <stop stop-color="#E28CFF" offset="0%"></stop>
            <stop stop-color="#654AFA" offset="100%"></stop>
        </linearGradient>
        <path d="M42.8438017,23.2238317 C50.1019025,15.3806233 50.8538247,8.87286738 45.0995681,3.70056406 C39.8547319,-1.01383883 34.202866,0.899114713 26.3517169,2.27758531 C18.5005678,3.65605592 7.67112703,0.128428712 6.23896321,13.097522 C0.836401801,16.8432411 -0.984048276,22.2972901 0.777612983,29.4596689 C2.53927424,36.6220476 7.15159732,43.1755516 14.6145822,49.1201807 L22.364943,48.5241593 L42.8438017,23.2238317 Z" id="path-11"></path>
        <linearGradient x1="92.2852912%" y1="36.724034%" x2="27.0851433%" y2="36.7240333%" id="linearGradient-13">
            <stop stop-color="#FFDDE2" offset="0%"></stop>
            <stop stop-color="#FFB8C1" offset="100%"></stop>
        </linearGradient>
        <path d="M34.4283159,17.3340544 C33.4470198,26.7584659 27.6646709,31.1792974 17.0812695,30.5965487 L16.0296418,38.0415081 L0.480540901,38.0415081 L2.21534349,29.6184797 L10.1084068,29.1075142 L11.7761965,22.157531 C8.40584276,20.1302636 6.53606539,17.9015648 6.16686436,15.4714347 C5.61306281,11.8262394 7.38682375,9.75115938 10.1084068,9.16693375 C12.8299899,8.58270813 15.8428145,9.67201308 18.3474722,15.8150414 C20.7457867,12.3852892 21.9449439,8.43213959 21.9449439,3.95559265 C25.0376598,3.95559265 28.5626694,2.73471835 32.5199727,0.292969747 C33.5057892,4.1573138 34.1375712,7.65268874 34.4153187,10.7790946 L34.5307867,9.90805399 L36.6284424,14.5035666 C37.0871082,15.5084046 36.6443481,16.6948089 35.63951,17.1534746 C35.3788149,17.2724709 35.0955917,17.3340544 34.8090222,17.3340544 L34.4283159,17.3340544 Z" id="path-14"></path>
        <path d="M0.449096513,21.0858109 C-0.49030361,32.8924028 3.00671768,42.3974354 10.9401604,49.6009087 C31.4946783,68.264171 126.370317,59.5975196 128.229068,26.3574623 C129.468235,4.19742416 115.088195,-3.53007799 85.0889476,3.17495589 L0.449096513,21.0858109 Z" id="path-16"></path>
        <linearGradient x1="42.6611312%" y1="-6.08912755%" x2="100%" y2="116.365318%" id="linearGradient-18">
            <stop stop-color="#FFFFFF" offset="0%"></stop>
            <stop stop-color="#D8CBFF" offset="100%"></stop>
        </linearGradient>
        <path d="M58.8272006,2.08078247 C41.8435264,-2.31893209 25.0069696,1.90597781 15.687784,31.6756827 C7.8636324,56.669571 6.75765382,68.4765919 4.47407746,75.597031 C2.19050111,82.7174701 -3.51595055,93.1959442 6.33801127,100.347734 C14.7316557,106.439658 58.8272006,104.427886 71.8629364,94.7461037 C75.4553584,92.0779728 73.1090914,86.4001453 69.8811467,66.9833977 C74.9053113,85.3301863 79.6520783,87.4322932 83.7702674,90.4284792 C89.3528357,94.4900734 105.187775,89.8831921 101.222556,74.597031 C96.2388655,55.3846008 81.0809025,7.84572678 58.8272006,2.08078247 Z" id="path-19"></path>
        <linearGradient x1="7.75026843%" y1="-11.625099%" x2="82.862172%" y2="131.49914%" id="linearGradient-21">
            <stop stop-color="#93ABFF" offset="0%"></stop>
            <stop stop-color="#9FE8FF" offset="100%"></stop>
        </linearGradient>
        <path d="M24.6270955,33.7735439 C24.6275366,33.7864293 24.6277577,33.7993316 24.6277577,33.8122505 C24.6277577,35.7207395 19.802391,37.2678755 13.8499996,37.2678755 C7.89760818,37.2678755 3.07224152,35.7207395 3.07224152,33.8122505 C3.07224152,33.808165 3.07226363,33.8040812 3.07230782,33.799999 L3.05654124,33.799999 L0.356541316,0.553754072 L27.324947,0.553754072 L24.6270955,33.7735439 Z" id="path-22"></path>
        <linearGradient x1="4.01579928%" y1="-27.19753%" x2="78.076813%" y2="113.197147%" id="linearGradient-24">
            <stop stop-color="#B89EFF" offset="0%"></stop>
            <stop stop-color="#A08FFF" offset="100%"></stop>
        </linearGradient>
        <path d="M8.75898965,23.4192181 L48.9751228,0.538382214 C49.5453487,0.213954064 50.2062031,0.085391991 50.8564669,0.172387048 L119.128109,9.30605691 L132.248347,7.62834097 L132.248347,11.6375072 C132.292374,11.7745374 132.307374,11.9232688 132.287018,12.075421 C132.245571,12.3852243 132.061653,12.6578288 131.7899,12.8122511 L84.5662581,39.6468517 C84.0011146,39.9679917 83.3469557,40.0968903 82.7022295,40.0141488 L1.53753292,29.5978067 C0.989740842,29.5275054 0.602658145,29.0264416 0.672959518,28.4786495 C0.675537687,28.4585603 0.67871483,28.4386245 0.682476155,28.4188642 L0.682476155,24.451981 L8.75898965,23.4192181 Z" id="path-25"></path>
        <linearGradient x1="27.0385328%" y1="-31.0481238%" x2="90.6301194%" y2="185.288377%" id="linearGradient-27">
            <stop stop-color="#F7DDFF" offset="0%"></stop>
            <stop stop-color="#A695FF" offset="100%"></stop>
        </linearGradient>
        <path d="M3.17031293,28.544474 L50.9751228,1.34608564 C51.5453487,1.02165749 52.2062031,0.89309542 52.8564669,0.980090477 L133.428452,11.7593523 C133.975859,11.8325868 134.360252,12.3357167 134.287018,12.8831244 C134.245571,13.1929277 134.061653,13.4655322 133.7899,13.6199545 L86.5662581,40.4545551 C86.0011146,40.7756951 85.3469557,40.9045937 84.7022295,40.8218522 L3.53753292,30.4055102 C2.98974084,30.3352088 2.60265814,29.8341451 2.67295952,29.286353 C2.71296241,28.9746483 2.89716636,28.6998798 3.17031293,28.544474 Z" id="path-28"></path>
        <linearGradient x1="42.3137976%" y1="0%" x2="37.6084748%" y2="131.052235%" id="linearGradient-30">
            <stop stop-color="#FFFFFF" stop-opacity="0.8" offset="0%"></stop>
            <stop stop-color="#A695FF" stop-opacity="0" offset="100%"></stop>
        </linearGradient>
        <path d="M3.17031293,28.544474 L50.9751228,1.34608564 C51.5453487,1.02165749 52.2062031,0.89309542 52.8564669,0.980090477 L133.428452,11.7593523 C133.975859,11.8325868 134.360252,12.3357167 134.287018,12.8831244 C134.245571,13.1929277 134.061653,13.4655322 133.7899,13.6199545 L86.5662581,40.4545551 C86.0011146,40.7756951 85.3469557,40.9045937 84.7022295,40.8218522 L3.53753292,30.4055102 C2.98974084,30.3352088 2.60265814,29.8341451 2.67295952,29.286353 C2.71296241,28.9746483 2.89716636,28.6998798 3.17031293,28.544474 Z" id="path-31"></path>
        <linearGradient x1="26.6732285%" y1="-13.3987741%" x2="82.3230636%" y2="100%" id="linearGradient-33">
            <stop stop-color="#FFFFFF" offset="0%"></stop>
            <stop stop-color="#A6A3FF" offset="100%"></stop>
        </linearGradient>
        <path d="M32.3999972,25.1999978 C32.3999972,28.7788027 25.1470108,31.6799973 16.1999986,31.6799973 C7.25298643,31.6799973 0,28.7788027 0,25.1999978 L0,0.498560524 L32.3999972,0.498560524 L32.3999972,25.1999978 Z" id="path-34"></path>
        <linearGradient x1="50%" y1="0%" x2="100%" y2="100%" id="linearGradient-36">
            <stop stop-color="#666FF4" offset="0%"></stop>
            <stop stop-color="#7B52FF" offset="100%"></stop>
        </linearGradient>
        <path d="M52.5066254,138.832491 C55.0515843,94.4622695 51.209346,60.9780181 40.9799105,38.3797372 C30.2555133,14.6880154 9.16650649,-5.89283204 1.28313822,2.70359106 C-6.60023004,11.3000142 43.6988174,61.859586 48.0947543,74.0833518 C51.0253789,82.232529 51.9385496,103.869765 50.8342664,138.99506 L52.5066254,138.832491 Z" id="path-37"></path>
        <linearGradient x1="74.3461378%" y1="-26.9775757%" x2="50%" y2="100%" id="linearGradient-39">
            <stop stop-color="#9B89FF" offset="0%"></stop>
            <stop stop-color="#7B52FF" offset="100%"></stop>
        </linearGradient>
        <path d="M0.667638548,80.3684731 C-0.657514438,38.7425339 12.8051837,13.9882741 41.0557331,6.10569388 C66.6691314,-1.04105804 81.7025343,-0.390843745 83.2215694,2.85742507 C84.7406045,6.10569388 33.9417314,26.4633642 18.542583,30.7205862 C8.27648406,33.5587343 2.90007381,49.9949769 2.41335225,80.029314 L0.667638548,80.3684731 Z" id="path-40"></path>
        <linearGradient x1="50%" y1="0%" x2="100%" y2="100%" id="linearGradient-42">
            <stop stop-color="#7079FF" offset="0%"></stop>
            <stop stop-color="#7B52FF" offset="100%"></stop>
        </linearGradient>
        <path d="M69.4486704,87.0746179 C70.8181395,41.2449943 68.2134148,13.9293097 61.634496,5.12756394 C51.7661179,-8.07505465 0.783254556,9.68622266 0.783254556,18.4672308 C0.783254556,27.248239 57.2837203,12.1948555 62.4257359,15.3686052 C65.8537463,17.4844384 67.5853948,41.3636881 67.6206815,87.0063543 L69.4486704,87.0746179 Z" id="path-43"></path>
        <path d="M59.6778524,48.6112166 C58.8532318,20.4993929 53.3364981,4.83111683 43.1276515,1.6063884 C27.8143816,-3.23070425 -3.59403753,19.3972856 1.34236133,25.9835503 C6.27876019,32.5698151 39.3962637,3.27434673 48.2631127,9.68139227 C54.1743454,13.952756 57.4191702,26.8286155 57.997587,48.3089709 L59.6778524,48.6112166 Z" id="path-45"></path>
    </defs>
    <g id="Page-1" stroke="none" stroke-width="1" fill="none" fill-rule="evenodd">
        <g id="Final" transform="translate(-582.000000, -192.000000)">
            <g id="header" transform="translate(-1.000000, -5.000000)">
                <g id="Illustration-header" transform="translate(582.000000, 197.000000)">
                    <path d="M513.935361,554.083717 L773.608793,381.382553 C775.448261,380.159177 775.947703,377.67625 774.724326,375.836781 C774.062243,374.841273 772.989567,374.194114 771.800185,374.072611 L301.692777,326.047946 C299.151884,325.788376 296.594448,326.346294 294.392526,327.640532 L33.7206313,480.857388 C31.8161172,481.976817 31.17968,484.428207 32.2991089,486.332721 C32.9151418,487.380794 33.9743834,488.091827 35.1776949,488.265018 L505.580478,555.969365 C508.502576,556.389938 511.477165,555.71859 513.935361,554.083717 Z" id="Path-124" fill="#FFFFFF" opacity="0.100000001"></path>
                    <path d="M219.026027,490.372505 L283.944385,447.197214 C284.404252,446.89137 284.529112,446.270638 284.223268,445.810771 C284.057747,445.561894 283.789578,445.400104 283.492233,445.369729 L165.965381,433.363562 C165.330157,433.29867 164.690798,433.438149 164.140318,433.761709 L98.9723442,472.065923 C98.4962157,472.34578 98.3371064,472.958628 98.6169636,473.434756 C98.7709718,473.696774 99.0357822,473.874533 99.3366101,473.91783 L216.937306,490.843917 C217.66783,490.94906 218.411478,490.781223 219.026027,490.372505 Z" id="Path-124" fill="#FFFFFF" opacity="0.100000001"></path>
                    <path d="M93.6762582,430.018046 L140.793203,404.678744 C141.133687,404.495633 141.261263,404.071175 141.078152,403.730691 C140.968145,403.52614 140.763844,403.389471 140.532791,403.365867 L58.4822619,394.983848 C58.1065279,394.945464 57.7273964,395.009124 57.384804,395.16812 L10.1136673,417.106555 C9.76299313,417.269303 9.61064817,417.685513 9.77339533,418.036187 C9.87302361,418.250858 10.0743757,418.400652 10.3086248,418.434368 L92.382436,430.247125 C92.827111,430.311126 93.2805904,430.230835 93.6762582,430.018046 Z" id="Path-124" fill="#FFFFFF" opacity="0.0700000003"></path>
                    <path d="M581.772313,547.835444 L619.341117,520.65554 C619.654339,520.428933 619.724555,519.991315 619.497948,519.678092 C619.38267,519.518751 619.205679,519.415255 619.010281,519.392927 L545.641866,511.009041 C545.167016,510.954779 544.687862,511.064117 544.283555,511.318994 L506.544307,535.109977 C506.217268,535.316143 506.119282,535.748392 506.325448,536.075431 C506.432673,536.245519 506.607859,536.361288 506.806369,536.393238 L580.207683,548.207342 C580.757912,548.295903 581.32078,548.162115 581.772313,547.835444 Z" id="Path-124" fill="#FFFFFF" opacity="0.100000001"></path>
                    <path d="M51.3797475,454.059131 L79.6499126,438.855551 C79.8542031,438.745684 79.9307487,438.49101 79.8208822,438.286719 C79.754878,438.163988 79.6322973,438.081987 79.4936653,438.067825 L30.263351,433.038614 C30.0379106,433.015583 29.8104317,433.053779 29.6048763,433.149177 L1.24219602,446.312237 C1.03179151,446.409885 0.940384534,446.659612 1.03803282,446.870016 C1.09780979,446.998819 1.21862103,447.088695 1.3591705,447.108924 L50.6034543,454.196578 C50.8702593,454.234979 51.1423469,454.186804 51.3797475,454.059131 Z" id="Path-124" fill="#FFFFFF" opacity="0.0700000003"></path>
                    <path d="M484.735093,483.901384 L530.177943,453.67868 C530.49985,453.46459 530.587252,453.030077 530.373161,452.70817 C530.257296,452.533956 530.069578,452.420704 529.861436,452.399441 L447.592641,443.995124 C447.147985,443.9497 446.700434,444.047335 446.315097,444.273827 L400.697517,471.086776 C400.364227,471.282676 400.25285,471.71167 400.44875,472.04496 C400.556556,472.228372 400.741923,472.352803 400.952503,472.383111 L483.272988,484.231372 C483.784355,484.304972 484.304909,484.187486 484.735093,483.901384 Z" id="Path-124" fill="#FFFFFF" opacity="0.100000001"></path>
                    <path d="M622.870886,75.0740182 L628.958364,79.7233997 C630.196855,80.6693115 630.923482,82.1385994 630.923482,83.696999 L630.923482,382.38405 C630.923482,383.846886 630.28287,385.236353 629.170453,386.18631 L622.870886,391.565875 L622.870886,75.0740182 Z" id="Path-83" fill="#CEC7F1"></path>
                    <g id="Group-94" transform="translate(357.000000, 359.000000)">
                        <polygon id="Path-86" fill="#CEC7F1" points="0.357579419 23.7993079 13.581062 18.7125124 166.758468 41.7448112 166.758468 49.3822209 159.065943 54.1095823"></polygon>
                        <polygon id="Path-84" fill="#EFEFF7" points="159.106076 54.1259675 0.443304534 30.6881355 0.443304534 23.6424598 159.106076 46.2756475"></polygon>
                        <polygon id="Path-85" fill="#CEC7F1" points="99.0089441 11.1670533 99.0089441 31.6570084 93.9401091 36.9482983 92.3080954 9.84494356"></polygon>
                        <polygon id="Rectangle-38" fill="#EFEFF7" points="59 0 94 0 94 37.4722068 59 32.0694257"></polygon>
                    </g>
                    <path d="M276.99459,132.151061 L619.162158,73.9922677 C621.884537,73.5295405 624.466575,75.3613498 624.929302,78.0837283 C624.976351,78.3605285 625,78.6407998 625,78.92157 L625,387.40143 C625,390.162853 622.761424,392.40143 620,392.40143 C619.811895,392.40143 619.62394,392.390815 619.437031,392.369635 L277.324437,353.603336 C274.291537,353.259664 272,350.693798 272,347.641489 L272,138.066224 C272,135.140479 274.110213,132.641323 276.99459,132.151061 Z" id="Rectangle-37" fill="#FFFFFF"></path>
                    <path d="M8.00082167,63.3721956 L611.129276,82.874837 C613.28696,82.9446075 615,84.7139352 615,86.8727475 L615,381.894484 C615,382.617934 614.803797,383.32784 614.432283,383.948611 L512.216181,554.743608 C511.38472,556.132914 509.797732,556.883959 508.196199,556.646072 L31.5835672,485.851526 L3.8802931,67.6344921 C3.73427669,65.430184 5.4028518,63.5248695 7.60715993,63.3788531 C7.73819168,63.3701734 7.86957136,63.3679515 8.00082167,63.3721956 Z" id="Rectangle-37" fill="url(#linearGradient-1)"></path>
                    <circle id="Oval-21" fill="#FFFFFF" opacity="0.400000006" cx="168" cy="234" r="5"></circle>
                    <circle id="Oval-22" fill="#FFFFFF" opacity="0.400000006" cx="284.5" cy="98.5" r="2.5"></circle>
                    <circle id="Oval-23" fill="#FFFFFF" opacity="0.400000006" cx="311.5" cy="373.5" r="3.5"></circle>
                    <circle id="Oval-24" fill="#FFFFFF" opacity="0.200000003" cx="301" cy="497" r="3"></circle>
                    <circle id="Oval-26" fill="#FFFFFF" opacity="0.100000001" cx="91.5" cy="202.5" r="8.5"></circle>
                    <circle id="Oval-25" fill="#FFFFFF" opacity="0.300000012" cx="113.5" cy="361.5" r="4.5"></circle>
                    <g id="Group-116" transform="translate(280.000000, 83.000000)">
                        <mask id="mask-3" fill="white">
                            <use xlink:href="#path-2"></use>
                        </mask>
                        <use id="Rectangle-37" fill="#222D9F" xlink:href="#path-2"></use>
                        <ellipse id="Oval-18" stroke="#FFFFFF" stroke-width="20" opacity="0.100000001" mask="url(#mask-3)" cx="316.347592" cy="266.13075" rx="37.7635192" ry="47.8692497"></ellipse>
                        <ellipse id="Oval-18" stroke="#FFFFFF" stroke-width="20" opacity="0.0799999982" mask="url(#mask-3)" cx="96.3475919" cy="196.13075" rx="37.7635192" ry="47.8692497"></ellipse>
                        <ellipse id="Oval-18" stroke="#FFFFFF" stroke-width="20" opacity="0.0700000003" mask="url(#mask-3)" cx="316.347592" cy="266.13075" rx="84.8094884" ry="107.504985"></ellipse>
                    </g>
                    <ellipse id="Oval-18" fill="#FFFFFF" cx="300.311111" cy="322" rx="6.31111111" ry="8"></ellipse>
                    <path d="M263.954006,118.122926 L354.798337,102.039539 C357.517474,101.558133 360.112027,103.372174 360.593433,106.091312 C360.644378,106.37907 360.669998,106.67074 360.669998,106.962973 L360.669998,290.591115 C360.669998,293.352539 358.431422,295.591115 355.669998,295.591115 C355.539108,295.591115 355.408268,295.585976 355.277781,295.575708 L264.529339,288.435081 C261.407812,288.189461 259,285.584746 259,282.45357 L259,124.031047 C259,121.120859 261.088382,118.630266 263.954006,118.122926 Z" id="Rectangle-37" fill="url(#linearGradient-4)"></path>
                    <path d="M378.954006,98.122926 L469.798337,82.0395388 C472.517474,81.5581335 475.112027,83.372174 475.593433,86.0913117 C475.644378,86.3790697 475.669998,86.6707402 475.669998,86.9629732 L475.669998,302.484086 C475.669998,305.245509 473.431422,307.484086 470.669998,307.484086 C470.506562,307.484086 470.343224,307.476072 470.180573,307.460074 L379.412689,298.532378 C376.341265,298.230281 374,295.647437 374,292.561192 L374,104.031047 C374,101.120859 376.088382,98.6302658 378.954006,98.122926 Z" id="Rectangle-37" fill="url(#linearGradient-5)"></path>
                    <g id="Group-115" transform="translate(389.000000, 114.000000)">
                        <path d="M21.1337622,58.6447491 L21.1337622,81.3018898 C21.1337622,82.4064593 22.0291927,83.3018898 23.1337622,83.3018898 C23.5185287,83.3018898 23.8951282,83.1909019 24.2183987,82.982236 L41.7689049,71.6536657 C42.6969345,71.0546375 42.9636428,69.8167125 42.3646146,68.8886829 C42.2105932,68.6500691 42.0075187,68.4469946 41.7689049,68.2929732 L24.2183987,56.9644029 C23.2903691,56.3653747 22.0524441,56.632083 21.4534159,57.5601126 C21.24475,57.8833831 21.1337622,58.2599826 21.1337622,58.6447491 Z" id="Path-149" fill="#FFFFFF"></path>
                        <path d="M0.768711812,140.048207 L37.4332482,140.766167" id="Path-150" stroke="#FFFFFF" stroke-width="4"></path>
                        <path d="M0.768711812,2.04820728 L22.6532852,0.0482072805" id="Path-150" stroke="#FFFFFF" stroke-width="4"></path>
                        <path d="M0.768711812,153.048207 L58.1891402,155.782683" id="Path-150" stroke="#FFFFFF" stroke-width="3" opacity="0.600000024"></path>
                        <path d="M0.768711812,166.048207 L47.6532852,169.048207" id="Path-150" stroke="#FFFFFF" stroke-width="3" opacity="0.600000024"></path>
                    </g>
                    <path d="M494.973589,77.1364463 L587.814656,61.0166505 C590.535374,60.5442581 593.123901,62.3668861 593.596294,65.0876041 C593.645339,65.3700778 593.669998,65.6562464 593.669998,65.9429463 L593.669998,313.494493 C593.669998,316.255917 591.431422,318.494493 588.669998,318.494493 C588.509697,318.494493 588.349488,318.486784 588.189927,318.471393 L495.423914,309.52319 C492.347628,309.226452 490,306.641476 490,303.550911 L490,83.0480012 C490,80.1303062 492.098904,77.6355719 494.973589,77.1364463 Z" id="Rectangle-37" fill="url(#linearGradient-6)"></path>
                    <g id="Group-115" transform="translate(505.000000, 93.000000)">
                        <path d="M21.1337622,74.6447491 L21.1337622,97.3018898 C21.1337622,98.4064593 22.0291927,99.3018898 23.1337622,99.3018898 C23.5185287,99.3018898 23.8951282,99.1909019 24.2183987,98.982236 L41.7689049,87.6536657 C42.6969345,87.0546375 42.9636428,85.8167125 42.3646146,84.8886829 C42.2105932,84.6500691 42.0075187,84.4469946 41.7689049,84.2929732 L24.2183987,72.9644029 C23.2903691,72.3653747 22.0524441,72.632083 21.4534159,73.5601126 C21.24475,73.8833831 21.1337622,74.2599826 21.1337622,74.6447491 Z" id="Path-149" fill="#FFFFFF"></path>
                        <path d="M0.768711812,169.048207 L37.4332482,169.766167" id="Path-150" stroke="#FFFFFF" stroke-width="4"></path>
                        <path d="M0.768711812,2.04820728 L22.6532852,0.0482072805" id="Path-150" stroke="#FFFFFF" stroke-width="4"></path>
                        <path d="M0.768711812,182.048207 L58.1891402,184.782683" id="Path-150" stroke="#FFFFFF" stroke-width="3" opacity="0.600000024"></path>
                        <path d="M0.768711812,195.048207 L47.6532852,198.048207" id="Path-150" stroke="#FFFFFF" stroke-width="3" opacity="0.600000024"></path>
                    </g>
                    <path d="M158.121605,136.539529 L236.634651,122.543027 C237.722076,122.349172 238.760759,123.073554 238.954614,124.160979 C238.975268,124.27684 238.985656,124.394298 238.985656,124.511985 L238.985656,180.770107 C238.985656,181.860143 238.112788,182.749439 237.022941,182.76976 L158.509896,184.233686 C157.405518,184.254278 156.49355,183.375696 156.472959,182.271319 C156.472727,182.258892 156.472611,182.246463 156.472611,182.234034 L156.472611,138.508486 C156.472611,137.539321 157.167482,136.70962 158.121605,136.539529 Z" id="Path-125" fill="#FFFFFF" opacity="0.200000003"></path>
                    <polygon id="Path-148" fill="#FFFFFF" fill-rule="nonzero" points="165.741431 148.87773 165.741431 145.016785 196.421264 142.016785 196.421264 145.947257"></polygon>
                    <polygon id="Path-148" fill="#FFFFFF" fill-rule="nonzero" opacity="0.669999957" points="166.054828 162.498998 165.945172 159.501002 212.625005 157.501002 212.734661 160.498998"></polygon>
                    <polygon id="Path-148" fill="#FFFFFF" fill-rule="nonzero" opacity="0.669999957" points="166.015596 173.499919 165.984404 170.500081 198.39181 170.163114 198.423002 173.162952"></polygon>
                    <g id="Group-127" transform="translate(434.000000, 43.000000)">
                        <ellipse id="Oval-18" stroke="#FFFFFF" opacity="0.400000006" cx="40.5555556" cy="48" rx="31.5555556" ry="40"></ellipse>
                        <ellipse id="Oval-18" fill="url(#linearGradient-7)" cx="31.5555556" cy="40" rx="31.5555556" ry="40"></ellipse>
                        <g id="bbc" transform="translate(12.000000, 34.000000)" fill-rule="nonzero">
                            <path d="M13.5652174,11.0217391 C13.5752763,10.9347826 13.5853353,10.8478261 13.5853353,10.7391304 C13.7865144,10.7608696 13.9876934,10.7826087 14.1888725,10.7826087 C17.3976787,10.7826087 20.6064849,10.7826087 23.8152911,10.7826087 C24.3484156,10.7826087 24.8815402,10.7391304 25.4146647,10.7391304 C25.4247237,10.826087 25.4347826,10.9130435 25.4347826,11.0217391 C21.4816139,11.0217391 17.5183861,11.0217391 13.5652174,11.0217391 Z" id="Shape" fill="#FED0E1"></path>
                            <path d="M0,11.0217391 C0,10.9189723 0.0101449275,10.8162055 0.0101449275,10.7391304 C3.96666667,10.7391304 7.91304348,10.7648221 11.8695652,10.7648221 C11.8695652,10.8418972 11.8695652,10.944664 11.8695652,11.0217391 C7.91304348,11.0217391 3.95652174,11.0217391 0,11.0217391 Z" id="Shape" fill="#FED0E1"></path>
                            <path d="M38.9898551,10.7391304 C38.9898551,10.8418972 39,10.944664 39,11.0217391 C35.0434783,11.0217391 31.0869565,11.0217391 27.1304348,11.0217391 C27.1304348,10.944664 27.1304348,10.8418972 27.1304348,10.7648221 C31.0869565,10.7648221 35.0333333,10.7391304 38.9898551,10.7391304 Z" id="Shape" fill="#FED0E1"></path>
                            <path d="M38.979762,10.729196 C35.0333593,10.729196 31.0970755,10.7391304 27.1506727,10.7391304 C27.1405538,7.95748703 27.1405538,5.17584362 27.1304348,2.39420022 C27.1304348,1.59944496 27.1405538,0.8046897 27.1506727,0.00993444074 C30.9351718,0.00993444074 34.7196709,0.00993444074 38.5142889,0 C38.8785722,0 39,0.0794755259 39,0.466918715 C38.979762,3.88436633 38.979762,7.30181394 38.979762,10.729196 Z M36.6523963,7.17266621 C36.4196597,7.2918795 36.277994,7.37135503 36.1262093,7.44089611 C35.0839542,7.95748703 34.0113422,8.26545469 32.8173023,8.046897 C31.4714778,7.80847042 30.5000556,6.86469855 30.3988658,5.61295902 C30.287557,4.2916784 31.0869565,3.19888992 32.4429,2.78164341 C33.2928945,2.52334795 34.1327699,2.61275791 34.9726454,2.84125005 C35.5089514,2.99026666 36.0047815,3.22869324 36.5613255,3.44725094 C36.5613255,3.03993886 36.5512065,2.682299 36.5613255,2.32465913 C36.5714445,2.12597032 36.4601357,2.02662591 36.288113,1.96701927 C34.8006227,1.41069058 33.2928945,1.18219845 31.7548093,1.70872381 C30.0750584,2.28492137 29.0226843,3.43731649 28.9214945,5.20564695 C28.8304237,6.78522302 29.5792283,8.03696255 31.0161237,8.78204561 C32.4934949,9.54699755 34.0619371,9.51719422 35.6303792,9.04034107 C36.6523963,8.73237341 36.6523963,8.72243897 36.6523963,7.69919157 C36.6523963,7.55017496 36.6523963,7.41109279 36.6523963,7.17266621 Z" id="Shape" fill="#FE67A1"></path>
                            <path d="M13.665923,0 C17.5632298,0 21.4605367,0 25.347773,0 C25.4686197,0.109380032 25.4283375,0.248590982 25.4283375,0.367914654 C25.4283375,3.81835749 25.4283375,7.26880032 25.4182669,10.7192432 C24.8845272,10.7291868 24.3507875,10.7391304 23.8170478,10.7391304 C20.6045391,10.7391304 17.3920303,10.7391304 14.1795216,10.7391304 C13.9781104,10.7391304 13.7766992,10.7192432 13.575288,10.7192432 C13.575288,7.26880032 13.575288,3.81835749 13.5652174,0.367914654 C13.5853585,0.248590982 13.5450763,0.109380032 13.665923,0 Z M20.9368675,5.15080515 C21.6216656,4.68345411 22.0043469,4.09677939 21.8633591,3.28140097 C21.7022301,2.38647343 21.0577143,1.79979871 20.0405877,1.61086957 C19.0234611,1.42194042 17.9962639,1.56115137 16.9791373,1.52137681 C16.6568794,1.51143317 16.6971617,1.73019324 16.6971617,1.92906602 C16.6971617,4.24593398 16.6971617,6.56280193 16.6870911,8.88961353 C16.6870911,9.19786634 16.7877967,9.2873591 17.0899135,9.2873591 C18.0768284,9.26747182 19.0738139,9.2873591 20.0607288,9.27741546 C20.6246802,9.26747182 21.1483493,9.10837359 21.6418068,8.82995169 C22.4575222,8.36260064 22.7999212,7.43784219 22.5179455,6.56280193 C22.2661815,5.78719807 21.6921596,5.39939614 20.9368675,5.15080515 Z" id="Shape" fill="#FE67A1"></path>
                            <path d="M11.8695652,10.7391304 C7.91642223,10.7391304 3.97341551,10.729196 0.0202725281,10.729196 C0.0202725281,7.31174838 0.0202725281,3.88436633 0,0.466918715 C0,0.0894099666 0.121635169,0 0.486540675,0 C4.2876397,0.0198688815 8.07860246,0.00993444074 11.8695652,0.00993444074 C11.8695652,3.58633311 11.8695652,7.16273177 11.8695652,10.7391304 Z M7.40960903,5.12617142 C7.94683103,4.75859711 8.30160027,4.3413506 8.33200906,3.72541528 C8.38269038,2.62269235 7.71369695,1.8279371 6.49734526,1.6093794 C5.47358259,1.42062503 4.43968366,1.5597072 3.41592099,1.51996943 C3.1321056,1.51003499 3.14224186,1.69878937 3.14224186,1.88754374 C3.14224186,4.22213731 3.15237812,6.54679644 3.1321056,8.88139002 C3.1321056,9.19929212 3.2436045,9.26883321 3.53755616,9.26883321 C4.53091004,9.24896432 5.52426391,9.26883321 6.52775406,9.25889877 C7.10552111,9.24896432 7.66301563,9.09001327 8.14955631,8.78204561 C9.24427283,8.0965692 9.37604426,6.63620641 8.45364423,5.74210674 C8.16982883,5.45400796 7.80492333,5.32486023 7.40960903,5.12617142 Z" id="Shape" fill="#FE67A1"></path>
                            <path d="M18.0869565,7.33983373 C18.0869565,6.21632146 18.0869565,6.21632146 19.1043478,6.22692063 C19.5094203,6.22692063 19.923913,6.1633256 20.3101449,6.36470987 C20.6775362,6.55549498 20.9130435,6.8522718 20.9130435,7.33983373 C20.9130435,7.82739566 20.6775362,8.14537083 20.3007246,8.30435841 C19.6318841,8.60113524 18.9347826,8.42094931 18.2565217,8.45274683 C18.1152174,8.463346 18.0963768,8.31495759 18.0963768,8.18776752 C18.0869565,7.91218904 18.0869565,7.62601138 18.0869565,7.33983373 Z" id="Shape" fill="#FE67A2"></path>
                            <path d="M18.087816,3.94652892 C18.1174081,2.66285623 17.8806711,2.83991453 19.1038123,2.82884839 C19.2813651,2.82884839 19.4589179,2.86204682 19.6364706,2.92844368 C20.0408964,3.07230355 20.3269536,3.34895715 20.3466817,3.85799977 C20.3664098,4.35597624 20.1296727,4.6990267 19.7449751,4.88715115 C19.3010932,5.10847402 18.8177551,5.08634174 18.3442811,5.08634174 C18.1568643,5.08634174 18.087816,4.95354801 18.09768,4.76542356 C18.087816,4.49983611 18.087816,4.22318251 18.087816,3.94652892 Z" id="Shape" fill="#FE68A2"></path>
                            <path d="M5.58046576,6.21952016 C5.90163155,6.2407771 6.2700276,6.17700628 6.63842365,6.31517638 C7.06349602,6.48523187 7.32798549,6.79345747 7.3468776,7.31425243 C7.3657697,7.77127658 7.10128023,8.15390146 6.65731576,8.33458542 C6.01498418,8.5790402 5.3537605,8.43024164 4.70198287,8.46212705 C4.52250787,8.46212705 4.53195392,8.29207155 4.53195392,8.15390146 C4.53195392,7.64373496 4.54139998,7.13356846 4.52250787,6.62340197 C4.51306182,6.33643331 4.58863024,6.19826322 4.86256576,6.21952016 C5.07982497,6.23014863 5.30653024,6.21952016 5.58046576,6.21952016 Z" id="Shape" fill="#FE67A2"></path>
                            <path d="M5.28763344,2.8326991 C5.5159904,2.81065861 5.79399018,2.84371935 6.06206139,2.9318813 C6.46913249,3.05310399 6.73720371,3.35065059 6.77691796,3.81350086 C6.81663221,4.25431064 6.64784663,4.60695847 6.29041835,4.81634311 C5.80391874,5.11388971 5.27770488,5.11388971 4.75149101,5.05878849 C4.55291974,5.036748 4.51320549,4.90450507 4.52313405,4.71716091 C4.53306262,4.35349284 4.52313405,3.97880453 4.52313405,3.61513646 C4.53306262,2.7335169 4.41391985,2.84371935 5.28763344,2.8326991 Z" id="Shape" fill="#FE67A2"></path>
                        </g>
                    </g>
                    <ellipse id="Oval-18" stroke="#FFFFFF" opacity="0.300000012" cx="226.722222" cy="201" rx="19.7222222" ry="25"></ellipse>
                    <ellipse id="Oval-18" fill="url(#linearGradient-8)" cx="220.722222" cy="196" rx="19.7222222" ry="25"></ellipse>
                    <g id="cnn" transform="translate(206.000000, 190.000000)" fill="#FFFFFF" fill-rule="nonzero">
                        <path d="M24.9899214,0.0892926704 C24.9899214,3.30410583 25,6.52887198 25,9.74368514 C24.8689785,10.6693125 24.4658355,11.3859272 23.4781352,11.6247987 C22.5206707,11.8537173 21.5027346,11.4257391 20.9282559,10.5200177 C20.1723628,9.34556587 19.4668626,8.14125505 18.7311266,6.9568502 C18.6404195,6.80755547 18.5396337,6.64830776 18.3481408,6.50896602 C18.3481408,6.70802565 18.3481408,6.91703828 18.3481408,7.11609791 C18.3481408,7.96210138 18.3582194,8.80810484 18.3481408,9.65410831 C18.3179051,11.2863973 16.8061189,12.1722127 15.3245684,11.4456451 C14.8407968,11.2067735 14.4880467,10.8484661 14.2058466,10.400582 C13.4902679,9.23608307 12.7746891,8.08153716 12.0691888,6.91703828 C11.9885602,6.77769653 11.8877745,6.64830776 11.7164387,6.518919 C11.7164387,7.21562773 11.7164387,7.92228945 11.7164387,8.61899819 C11.7164387,8.74838695 11.7164387,8.8877287 11.7164387,9.01711746 C11.7164387,10.8385132 11.0008599,11.5650808 9.15648079,11.5451749 C7.7656375,11.5252689 6.36471564,11.6546577 4.98395092,11.455598 C1.90998568,10.9977609 -0.115807807,8.53937433 0.00513508756,5.43404397 C0.115999408,2.51782026 2.36352153,0.278399327 5.39717248,0.0793396884 C6.11275127,0.0295747788 6.83840864,0.0594337246 7.56406601,0.0196217968 C7.87650182,0.00966881491 7.95713042,0.119151616 7.95713042,0.417741074 C7.95713042,1.48271014 7.97728757,1.48271014 6.89888009,1.49266312 C6.16314414,1.49266312 5.41732963,1.45285119 4.69167226,1.62205189 C2.6154859,2.109748 1.33550693,3.92119071 1.48668555,6.17056463 C1.62778559,8.24078487 3.2101218,9.88302689 5.33670103,10.0223686 C6.70738717,10.1119455 8.08815189,10.0721335 9.4689166,10.0522276 C9.9829239,10.0522276 10.2248097,9.70387322 10.2248097,9.07683535 C10.2248097,7.10614493 10.2248097,5.12550153 10.2248097,3.15481111 C10.2248097,2.88608059 10.2248097,2.62730306 10.2248097,2.35857255 C10.2248097,2.17941888 10.2248097,1.97040626 10.4465383,1.91068836 C10.668267,1.85097047 10.7690527,2.04007713 10.8698385,2.18937186 C11.5753387,3.31405882 12.2909175,4.43874577 12.9964177,5.56343273 C13.8530965,6.90708529 14.7097754,8.26069084 15.5563756,9.6043434 C15.7579471,9.92283882 15.9998329,10.1716634 16.4130545,10.0323216 C16.7960403,9.90293285 16.8363546,9.56453147 16.8363546,9.2161771 C16.8363546,7.09619195 16.8363546,4.9762068 16.8363546,2.84626867 C16.8363546,2.74673885 16.8363546,2.64720903 16.8363546,2.54767921 C16.8464332,2.30880764 16.755726,2.0002652 17.0782404,1.92064135 C17.3705191,1.85097047 17.4612262,2.13960695 17.5821691,2.3287136 C19.1040339,4.72738225 20.6258986,7.1260509 22.1477634,9.53467252 C22.2586277,9.70387322 22.3493349,9.88302689 22.5307492,9.98255671 C22.9238136,10.2015223 23.3672709,10.0024627 23.4579781,9.55457849 C23.4982924,9.36547183 23.4882138,9.15645921 23.4882138,8.95739957 C23.4882138,6.14070568 23.4982924,3.3240118 23.4781352,0.49736493 C23.4781352,0.0992456523 23.5889996,-0.0400960947 23.982064,0.00966881491 C24.3247355,0.0693867065 24.667407,-0.0301431128 24.9899214,0.0892926704 Z" id="Shape"></path>
                        <path d="M15.0301208,5.33687367 C15.0301208,4.30383473 15.0200486,3.26076628 15.0301208,2.22772734 C15.040193,1.24483592 15.5135855,0.482593599 16.3395045,0.161649462 C17.246001,-0.189383188 18.0114869,0.0814134276 18.6863231,0.713272197 C18.9683442,0.974039308 19.1798601,1.30501295 19.3712316,1.63598659 C20.1065009,2.87964512 20.8417702,4.13333316 21.6676892,5.35693268 C21.6676892,5.01592953 21.6676892,4.67492639 21.6676892,4.33392324 C21.6676892,3.03008769 21.6777614,1.72625213 21.6576171,0.422416573 C21.6576171,0.151619958 21.7180502,0.0513249147 22.0101435,0.0412954105 C23.1382279,0.0212364019 23.1382279,0.00117739335 23.1382279,1.11445237 C23.1382279,3.74218249 23.1382279,6.35988311 23.1382279,8.98761323 C23.1382279,9.10796728 23.1382279,9.21829183 23.1382279,9.33864588 C23.1382279,9.51917695 23.1483001,9.73982605 22.9267121,9.81003258 C22.7051241,9.8702096 22.6144744,9.66961952 22.5137526,9.51917695 C21.3353072,7.61357114 20.1467896,5.71799483 18.9582721,3.82241852 C18.5856013,3.23067777 18.2129305,2.62890751 17.850332,2.03716676 C17.6488883,1.70619312 17.3769394,1.49557353 16.9740521,1.62595709 C16.5913091,1.74631114 16.5208038,2.06725527 16.5208038,2.42831743 C16.5208038,4.60471986 16.5208038,6.77109278 16.5208038,8.94749521 C16.5208038,9.07787877 16.5208038,9.21829183 16.5208038,9.34867538 C16.5208038,9.53923596 16.5208038,9.74985555 16.309288,9.81003258 C16.0776278,9.88023911 15.9970503,9.65959001 15.9064007,9.50914745 C14.5970169,7.43304006 13.2977053,5.34690317 11.9883216,3.27079579 C11.7264448,2.85958611 11.4645681,2.44837644 11.2228357,2.03716676 C11.021392,1.69616362 10.7494431,1.49557353 10.3465558,1.62595709 C9.973885,1.74631114 9.88323536,2.06725527 9.88323536,2.42831743 C9.88323536,4.65486738 9.88323536,6.87138782 9.88323536,9.09793777 C9.88323536,9.71976704 9.78251353,9.83009159 9.15803819,9.82006208 C7.86879879,9.80000307 6.56948721,9.91032762 5.28024781,9.75988506 C3.20537816,9.50914745 1.7751282,7.81416123 1.86577784,5.72802434 C1.95642749,3.5415924 3.48739927,1.97698974 5.61262985,1.90678321 C6.28746609,1.8867242 6.95223016,1.90678321 7.62706641,1.8967537 C7.87887098,1.8867242 7.96952062,1.94690122 7.97959281,2.22772734 C8.00980935,3.34100232 8.02995372,3.34100232 6.91194143,3.34100232 C6.55941503,3.34100232 6.20688863,3.33097281 5.85436223,3.34100232 C4.42411228,3.41120885 3.37660526,4.42418878 3.33631653,5.76814235 C3.2960278,7.13215494 4.21259644,8.16519388 5.65291858,8.30560694 C6.41840447,8.37581347 7.19396255,8.33569545 7.96952062,8.33569545 C8.37240794,8.33569545 8.3925523,8.04483982 8.3925523,7.7439547 C8.3925523,5.8884964 8.38248012,4.03303811 8.3925523,2.17757982 C8.40262448,1.26489493 8.79543961,0.562829633 9.65157515,0.18170847 C10.5177829,-0.199412692 11.2933409,0.0513249147 11.9782494,0.633036163 C12.2602705,0.873744266 12.4717863,1.17462939 12.6631578,1.49557353 C13.1466226,2.31799288 13.6200152,3.14041223 14.10348,3.96283158 C14.3754289,4.43421828 14.65745,4.90560499 14.9293989,5.36696218 C14.9696877,5.36696218 14.9999042,5.34690317 15.0301208,5.33687367 Z" id="Shape"></path>
                    </g>
                    <g id="Group-126" transform="translate(276.000000, 0.000000)">
                        <ellipse id="Oval-18" stroke="#FFFFFF" opacity="0.300000012" cx="35.6111111" cy="44" rx="27.6111111" ry="35"></ellipse>
                        <ellipse id="Oval-18" fill="url(#linearGradient-9)" cx="27.6111111" cy="35" rx="27.6111111" ry="35"></ellipse>
                        <g id="espn" transform="translate(8.000000, 30.000000)" fill="#FFFFFF" fill-rule="nonzero">
                            <path d="M35.9901389,2.11102385 C35.8718061,2.28218795 35.7337511,2.37727912 35.4970854,2.36777 C32.952929,2.35826088 30.4087727,2.35826088 27.8547553,2.36777 C27.5293399,2.36777 27.4307292,2.3107153 27.4898956,1.96838711 C27.5983674,1.3312763 27.6575339,0.684656385 27.7364224,0.0380364659 C27.953366,0.0285273494 28.1604485,0.0190182329 28.377392,0.0190182329 C30.3989116,0.00950911646 32.4105701,0.00950911646 34.4320897,0 C35.2604197,0.0570546988 35.72389,0.551528755 36,1.25520337 C35.9901389,1.54047687 35.9901389,1.82575036 35.9901389,2.11102385 Z" id="Shape"></path>
                            <path d="M11.3684211,0.2 C11.3684211,0.125 11.3684211,0.05 11.3783609,0 C15.9506817,0 20.5230025,0 25.0953233,0 C25.0953233,0.075 25.1052632,0.125 25.1052632,0.2 C23.5049509,0.225 21.8946988,0.25 20.2943865,0.25 C17.3223779,0.25 14.3404296,0.225 11.3684211,0.2 Z" id="Shape"></path>
                            <path d="M11.4879242,0 C14.4934824,0.00951173114 17.5090926,0.00951173114 20.5146508,0.0190234623 C22.1330283,0.0190234623 23.7614578,0.00951173114 25.3798353,0 C26.6262875,0.190234623 27.1389412,0.865567533 26.9680566,2.02599873 C26.9278485,2.28281547 26.8273282,2.36842105 26.5559232,2.36842105 C20.9870964,2.35890932 15.4182695,2.35890932 9.83939064,2.36842105 C9.50767352,2.36842105 9.45741335,2.27330374 9.47751742,1.98795181 C9.57803776,0.808497146 10.1811598,0.199746354 11.4879242,0 Z" id="Shape"></path>
                            <path d="M15.2385681,8.52631579 C12.9978162,8.52631579 10.7670677,8.52631579 8.52631579,8.52631579 C8.59633929,7.86895811 8.67636614,7.22126745 8.73638628,6.56390977 C8.75639299,6.26423201 8.95646012,6.30290011 9.15652725,6.30290011 C10.7870744,6.30290011 12.4176215,6.30290011 14.058172,6.30290011 C14.2082223,6.30290011 14.4483029,6.39957035 14.508323,6.21589689 C14.5983532,5.96455424 14.6283633,5.6745435 14.6083566,5.40386681 C14.5983532,5.25886144 14.3782794,5.32653061 14.2582391,5.32653061 C13.077843,5.32653061 11.8874436,5.33619764 10.7070475,5.31686359 C9.62668501,5.30719656 9.05649369,4.68850698 9.11651383,3.65413534 C9.12651719,3.42212675 9.18653732,3.31578947 9.45662795,3.31578947 C11.5773396,3.3254565 13.6880478,3.30612245 15.8087594,3.33512352 C16.9891555,3.35445757 17.5993602,4.05048335 17.5193334,5.19119227 C17.4793199,5.73254565 17.3992931,6.28356606 17.2992595,6.81525242 C17.1091957,7.88829216 16.3989574,8.46831364 15.2385681,8.52631579 Z" id="Shape"></path>
                            <path d="M7.95310771,8.33198619 C7.8217349,8.55403944 7.58930608,8.52507597 7.37708847,8.52507597 C4.92142751,8.52507597 2.45566096,8.52507597 0,8.52507597 C0.202112013,6.88381282 0.414329626,5.24254966 0.596230438,3.59163202 C0.63665284,3.2537249 0.848870454,3.32130632 1.06108807,3.32130632 C3.213581,3.32130632 5.36607394,3.32130632 7.52867248,3.32130632 C8.58976055,3.32130632 8.58976055,3.32130632 8.47859894,4.33502768 C8.37754293,5.31978558 8.37754293,5.31978558 7.36698287,5.31978558 C6.17452199,5.31978558 4.97195552,5.34874905 3.77949464,5.31013109 C3.0721026,5.29082211 3.34495381,5.79285555 3.28432021,6.08249022 C3.2034754,6.4590153 3.57738263,6.28523449 3.72896664,6.29488898 C5.09322272,6.31419796 6.45747881,6.31419796 7.8217349,6.29488898 C8.12490292,6.29488898 8.24617012,6.34316143 8.18553652,6.66175957 C8.09458611,7.21206545 8.03395251,7.77202582 7.95310771,8.33198619 Z" id="Shape"></path>
                            <path d="M20.4854995,8.40616019 C19.4957035,8.55022728 18.5059076,8.58864518 17.5263158,8.38695124 C17.7303974,6.78300424 17.9344791,5.17905724 18.1283566,3.57511025 C18.1487648,3.36381184 18.2406015,3.31578947 18.4548872,3.31578947 C21.056928,3.32539395 23.6589689,3.31578947 26.2610097,3.31578947 C26.4446831,3.31578947 26.5263158,3.34460289 26.5263158,3.5559013 C26.5161117,4.6604157 25.8732546,5.29431092 24.6997852,5.30391539 C23.5773362,5.32312434 22.4548872,5.32312434 21.3324382,5.30391539 C21.0059076,5.29431092 20.9038668,5.39035565 20.8732546,5.68809432 C20.7508056,6.60051925 20.6079484,7.50333972 20.4854995,8.40616019 Z" id="Shape"></path>
                            <path d="M1.24295459,0.00343161934 C3.6725177,0.00343161934 6.10208081,0.00343161934 8.5415605,0.00343161934 C8.75972535,0.00343161934 9.02747312,-0.053785867 8.99772337,0.299055298 C8.92830728,0.880766409 8.83905802,1.46247752 8.77955852,2.04418863 C8.75972535,2.28259482 8.66055951,2.36842105 8.4126449,2.36842105 C6.02274813,2.3588848 3.63285136,2.3588848 1.25287118,2.36842105 C1.02478974,2.36842105 0.915707319,2.32073981 0.955373655,2.07279737 C1.0545395,1.37665129 1.14378875,0.690041455 1.24295459,0.00343161934 Z" id="Shape"></path>
                            <path d="M29.2389106,8.51917723 C28.4786332,8.51917723 27.7183557,8.51917723 26.9580783,8.51917723 C26.8079,8.51917723 26.6389495,8.56743388 26.5263158,8.41301262 C26.7140386,6.80124074 26.9017614,5.19912019 27.0800981,3.58734831 C27.1082566,3.3460651 27.2115041,3.30745978 27.4086131,3.31711111 C28.1125737,3.32676244 28.8165343,3.33641377 29.5111087,3.31711111 C29.8302375,3.30745978 29.8677821,3.42327572 29.8302375,3.70316425 C29.6331286,5.3052848 29.4360196,6.90740535 29.2389106,8.51917723 Z" id="Shape"></path>
                            <path d="M34.9195571,8.51665092 C34.013433,8.51665092 33.1166504,8.51665092 32.2105263,8.52631579 C32.3319656,6.85429347 32.5935272,5.21126575 32.761674,3.5489083 C32.7803569,3.35561092 32.8644303,3.30728658 33.032577,3.31695145 C33.7798959,3.32661632 34.5272147,3.32661632 35.2745336,3.31695145 C35.6014856,3.30728658 35.5267537,3.51024883 35.4987292,3.69388134 C35.3118995,5.28858471 35.1157283,6.90261781 34.9195571,8.51665092 Z" id="Shape"></path>
                        </g>
                    </g>
                    <ellipse id="Oval-18-Copy" stroke="#FFFFFF" opacity="0.300000012" cx="693.5" cy="59" rx="35.5" ry="45"></ellipse>
                    <ellipse id="Oval-18-Copy" fill="url(#linearGradient-10)" cx="685.5" cy="49" rx="35.5" ry="45"></ellipse>
                    <g id="fox" transform="translate(665.000000, 41.000000)" fill="#FFFFFF" fill-rule="nonzero">
                        <path d="M0.416666667,16.0433604 C0.0416666667,16.0634146 0,16.0333333 0,15.9430894 C0.0416666667,15.4718157 0,15.0105691 0,14.5392954 C0,9.72628726 0,4.91327913 0,0.100271003 C0.166666667,0.110298103 0.333333333,0.110298103 0.458333333,0.120325203 C0.458333333,0.250677507 0.416666667,0.391056911 0.416666667,0.521409214 C0.416666667,5.54498645 0.416666667,10.5685637 0.416666667,15.5921409 C0.416666667,15.7124661 0.458333333,15.8227642 0.5,15.9430894 C0.458333333,15.9731707 0.458333333,16.003252 0.416666667,16.0433604 Z" id="Shape"></path>
                        <path d="M0.100271003,16.0433604 C0.110298103,16.003252 0.110298103,15.9731707 0.120325203,15.9330623 C1.41382114,15.9330623 2.71734417,15.9430894 4.01084011,15.9430894 C4.50216802,15.9430894 4.50216802,15.9430894 4.50216802,15.4617886 C4.50216802,14.0780488 4.49214092,12.6943089 4.50216802,11.3205962 C4.50216802,11.1601626 4.39186992,10.9495935 4.64254743,10.8493225 C4.62249322,10.9596206 4.59241192,11.0799458 4.59241192,11.1902439 C4.59241192,12.804607 4.60243902,14.4189702 4.61246612,16.0433604 C3.10840108,16.0433604 1.60433604,16.0433604 0.100271003,16.0433604 Z" id="Shape"></path>
                        <path d="M9.76639566,8.11192412 C9.76639566,3.8102981 13.1355014,0.350948509 17.3569106,0.340921409 C21.6785908,0.330894309 24.8672087,3.8804878 24.9674797,7.83116531 C25.0777778,12.2531165 21.6685637,15.7124661 17.5273713,15.7926829 C13.2558266,15.8829268 9.85663957,12.503794 9.76639566,8.11192412 Z M16.1135501,8.04173442 C16.1135501,9.11463415 16.103523,10.1775068 16.1135501,11.2504065 C16.1235772,12.0425474 16.7552846,12.604065 17.5273713,12.5338753 C18.2392954,12.4737127 18.7306233,11.9322493 18.7406504,11.1802168 C18.7506775,9.80650407 18.7406504,8.44281843 18.7406504,7.06910569 C18.7406504,6.34715447 18.7506775,5.63523035 18.7306233,4.91327913 C18.7105691,4.13116531 18.0888889,3.50948509 17.3769648,3.5195122 C16.6850949,3.5295393 16.1536585,4.10108401 16.1135501,4.88319783 C16.103523,4.98346883 16.103523,5.08373984 16.103523,5.18401084 C16.1135501,6.13658537 16.1135501,7.08915989 16.1135501,8.04173442 Z" id="Shape"></path>
                        <path d="M37,15.9330623 C35.3254743,15.9330623 33.6609756,15.9430894 31.9864499,15.9430894 C31.2544715,14.6495935 30.5224932,13.3460705 29.7604336,11.9924119 C29.0084011,13.3560976 28.2864499,14.6495935 27.5745257,15.9430894 C26.100542,15.9430894 24.6365854,15.9430894 23.1626016,15.9430894 C23.0121951,15.9430894 22.7715447,16.0634146 22.7514905,15.7425474 C24.1552846,13.3059621 25.5490515,10.8794038 26.9528455,8.44281843 C27.3238482,7.79105691 27.3338753,7.79105691 26.9628726,7.15934959 C25.699458,4.98346883 24.4260163,2.79756098 23.1626016,0.611653117 C23.0823848,0.471273713 22.9520325,0.350948509 22.9620596,0.180487805 C23.0623306,0.0902439024 23.1626016,0.120325203 23.2528455,0.120325203 C24.6867209,0.120325203 26.1306233,0.130352304 27.5644986,0.110298103 C27.8552846,0.110298103 28.0157182,0.200542005 28.1460705,0.461246612 C28.5872629,1.32357724 29.0585366,2.16585366 29.5197832,3.01815718 C29.6,3.15853659 29.6300813,3.33902439 29.800542,3.41924119 C29.9710027,3.33902439 30.0111111,3.16856369 30.0813008,3.02818428 C30.5626016,2.16585366 31.0338753,1.30352304 31.5051491,0.441192412 C31.6054201,0.260704607 31.695664,0.110298103 31.9463415,0.110298103 C33.4704607,0.120325203 34.9845528,0.110298103 36.5186992,0.110298103 C36.5487805,0.330894309 36.398374,0.471273713 36.3181572,0.621680217 C35.0547425,2.86775068 33.7813008,5.09376694 32.4878049,7.3197832 C32.3173442,7.62059621 32.3073171,7.83116531 32.4878049,8.13197832 C33.9417344,10.6086721 35.3856369,13.095393 36.8295393,15.5821138 C36.8897019,15.6924119 36.9899729,15.7926829 37,15.9330623 Z" id="Shape"></path>
                        <path d="M4.64254743,10.8493225 C4.39186992,10.9395664 4.50216802,11.1601626 4.50216802,11.3205962 C4.49214092,12.704336 4.50216802,14.0880759 4.50216802,15.4617886 C4.50216802,15.9430894 4.50216802,15.9430894 4.01084011,15.9430894 C2.71734417,15.9430894 1.41382114,15.9330623 0.120325203,15.9330623 C0.110298103,15.8127371 0.100271003,15.702439 0.100271003,15.5821138 C0.100271003,10.5585366 0.100271003,5.53495935 0.100271003,0.511382114 C0.100271003,0.38102981 0.110298103,0.240650407 0.110298103,0.110298103 C3.16856369,0.110298103 6.23685637,0.110298103 9.29512195,0.0902439024 C9.59593496,0.0902439024 9.70623306,0.170460705 9.70623306,0.481300813 C9.71626016,0.822222222 9.68617886,1.18319783 9.80650407,1.51409214 C9.78644986,2.33631436 9.90677507,3.14850949 9.93685637,3.96070461 C9.95691057,4.43197832 10.0271003,4.43197832 9.50569106,4.43197832 C8.03170732,4.43197832 6.56775068,4.43197832 5.09376694,4.43197832 C4.60243902,4.43197832 4.60243902,4.43197832 4.59241192,4.92330623 C4.59241192,5.34444444 4.60243902,5.75555556 4.58238482,6.17669377 C4.57235772,6.44742547 4.67262873,6.51761518 4.92330623,6.51761518 C6.10650407,6.50758808 7.299729,6.51761518 8.48292683,6.51761518 C8.97425474,6.51761518 8.97425474,6.51761518 8.97425474,6.99891599 C8.97425474,8.15203252 8.96422764,9.30514905 8.98428184,10.4582656 C8.98428184,10.7691057 8.90406504,10.8593496 8.59322493,10.8493225 C7.2796748,10.8392954 5.96612466,10.8493225 4.64254743,10.8493225 Z" id="Shape"></path>
                    </g>
                    <g id="Group-96" transform="translate(158.000000, 282.000000)">
                        <g id="Group-110" transform="translate(28.000000, 0.000000)">
                            <g id="Group-112">
                                <mask id="mask-12" fill="white">
                                    <use xlink:href="#path-11"></use>
                                </mask>
                                <use id="Path-88" fill="#231F63" xlink:href="#path-11"></use>
                                <path d="M40.3955974,21.6374297 C36.4132641,23.0604823 33.0649642,23.8727787 23.3431196,20.995475 C13.621275,18.1181713 -3.13613464,25.6129429 2.95618578,35.9866205 C7.01773272,42.9024055 10.7510634,47.5114221 14.1561778,49.8136702 L23.3431196,49.8136702 L27.8829997,35.3569873 L29.9370664,38.3764132 C33.6909464,32.7851784 35.8280413,28.4423855 36.3483512,25.3480344 C41.7014041,21.9255962 43.0504862,20.688728 40.3955974,21.6374297 Z" id="Path-134" fill="#161344" mask="url(#mask-12)"></path>
                                <path d="M33.6006065,0.868672559 C30.2865687,1.99980367 25.5198761,4.99264543 19.1535478,5.57332632 C12.7872194,6.15400721 8.98899505,6.20521175 6.3546436,13.1071269 C5.25743803,8.70436489 6.02916,5.80389953 8.6698095,4.40573079 C12.6307837,2.30847768 15.5016902,2.34702179 20.1289989,1.99256713 C23.2138714,1.75626401 27.7044073,1.38163249 33.6006065,0.868672559 Z" id="Path-135" fill="#161344" mask="url(#mask-12)"></path>
                                <path d="M39.6192271,0.563875182 C41.8590216,1.14355822 57.9167746,6.62076389 44.7676067,21.3508635 L44.3821199,19.2575636 C47.1770606,14.6057323 47.7150956,10.4707084 45.9962248,6.85249182 C43.4179186,1.42516698 37.3794326,-0.0158078578 39.6192271,0.563875182 Z" id="Path-136" fill="#FFFFFF" opacity="0.5" mask="url(#mask-12)"></path>
                            </g>
                            <g id="Group-111" transform="translate(12.000000, 19.000000)">
                                <mask id="mask-15" fill="white">
                                    <use xlink:href="#path-14"></use>
                                </mask>
                                <use id="Combined-Shape" fill="url(#linearGradient-13)" xlink:href="#path-14"></use>
                                <path d="M18.3680948,15.8992039 C16.900487,10.0313579 5.88619922,6.90882132 6.54970392,17.6506767 C5.22525773,15.3952368 5.0040895,13.075442 5.88619922,10.6912924 C7.00477778,7.66801929 9.84972705,6.47599163 12.7167823,7.33806711 C18.4205692,9.05310025 20.1269609,14.1401964 18.3680948,15.8992039 Z" id="Path-137" fill="#9A1C2D" opacity="0.200000003" mask="url(#mask-15)"></path>
                                <path d="M22.8761767,30.6171517 C20.8801704,30.6171517 17.661626,31.4948794 12.9360279,29.0736698 C14.2273396,32.1577025 15.8840311,33.8183194 17.9061023,34.0555205 C22.550156,31.7632746 24.2068475,30.6171517 22.8761767,30.6171517 Z" id="Path-138" fill="#FFFFFF" opacity="0.5" mask="url(#mask-15)"></path>
                            </g>
                            <path d="M43.1080408,34.9159134 C44.9175206,34.9159134 46.3843938,32.2319722 46.3843938,28.9211629 C46.3843938,25.6103536 44.9175206,22.9264124 43.1080408,22.9264124 C41.2985611,22.9264124 39.8316879,25.6103536 39.8316879,28.9211629 C39.8316879,32.2319722 41.2985611,34.9159134 43.1080408,34.9159134 Z" id="Oval-20" stroke="#FFFFFF" stroke-width="1.5"></path>
                            <path d="M39.8009784,28.7794967 L29.3732579,28.8570822" id="Path-128" stroke="#FFFFFF" stroke-width="1.5" stroke-linecap="round" stroke-linejoin="round"></path>
                            <path d="M43.3920562,41.2306664 C41.930292,42.2328699 39.6545734,41.7771702 38.6954251,39.8614357" id="Path-130" stroke="#F17199" stroke-width="1.2" stroke-linecap="round" stroke-linejoin="round"></path>
                        </g>
                        <g id="Group-113" transform="translate(8.000000, 126.000000)">
                            <mask id="mask-17" fill="white">
                                <use xlink:href="#path-16"></use>
                            </mask>
                            <use id="Path-90" fill="#3129AC" xlink:href="#path-16"></use>
                            <polygon id="Path-144" fill="#000000" opacity="0.300000012" mask="url(#mask-17)" points="85.4168567 16.0258412 99.9248674 10.0598242 87.7143854 11.0785263"></polygon>
                            <path d="M65.7090073,17.4391811 C62.4541955,22.8713139 43.6669835,39.3479148 -0.116975253,34.7274372 L-1.62337755,23.1140659 C17.2124822,25.5964622 30.0145437,26.4234436 36.7828069,25.59501 C57.4966966,23.0596356 67.1651769,15.0089005 65.7090073,17.4391811 Z" id="Path-140" fill="#000000" opacity="0.300000012" mask="url(#mask-17)"></path>
                            <path d="M6.33791565,45.9220378 C9.80335559,50.8628809 44.2432492,57.28814 69.277335,54.3598658 C94.3114208,51.4315916 121.204857,43.4029469 127.44355,33.2995446 C117.469933,48.0722028 97.2856605,57.5465083 66.8907329,61.7224611 C36.4958053,65.8984139 16.3115329,60.6316061 6.33791565,45.9220378 Z" id="Path-141" fill="#000000" opacity="0.300000012" mask="url(#mask-17)"></path>
                            <path d="M91.7729885,3.86352048 C107.711332,2.03348961 117.916203,4.03166494 122.387601,9.85804647 C126.859,15.684428 128.594381,22.8457374 127.593745,31.3419746 C133.194632,20.5904743 131.45925,11.4309896 122.387601,3.86352048 C113.315952,-3.70394861 103.111081,-4.72097703 91.7729885,0.81243522 L91.7729885,3.86352048 Z" id="Path-142" fill="#FFFFFF" opacity="0.5" mask="url(#mask-17)"></path>
                            <path d="M64.7603006,17.3030789 C77.3037054,17.7157011 84.80774,16.9101483 87.2724045,14.8864207 L62.4448031,8.43028674 L64.7603006,17.3030789 Z" id="Path-143" fill="#000000" opacity="0.300000012" mask="url(#mask-17)"></path>
                            <path d="M45.1987223,22.319502 C46.9391853,31.6437512 52.7426585,37.3164343 62.6091419,39.3375511 C77.4088671,42.3692264 115.01764,30.8707282 121.535691,24.9320371 C128.053742,18.9933459 126.729023,12.5408932 123.059745,6.76058079" id="Path-146" stroke="#020022" opacity="0.5" mask="url(#mask-17)"></path>
                        </g>
                        <path d="M98.4878744,130.279451 L65.9357231,115.871111 L67.5647512,136.542652 C80.2722097,141.52932 88.1615817,143.546864 91.2328671,142.595284 L98.4878744,130.279451 Z" id="Path-127" fill="#ADA3E6"></path>
                        <g id="Group-109" transform="translate(0.000000, 51.000000)">
                            <mask id="mask-20" fill="white">
                                <use xlink:href="#path-19"></use>
                            </mask>
                            <use id="Path-89" fill="url(#linearGradient-18)" xlink:href="#path-19"></use>
                            <path d="M6.91966219,62.8020661 C6.14660762,65.9718772 -0.565460219,86.6811182 24.7171601,85.1620229 C12.4988746,87.5894334 4.98673839,85.8615079 2.18075147,79.9782465 C5.855395,66.4142522 7.4350319,60.6888587 6.91966219,62.8020661 Z" id="Path-131" fill="#2A229F" opacity="0.200000003" mask="url(#mask-20)"></path>
                            <path d="M74.0018537,90.9263867 C74.0018537,92.4103368 69.7082089,100.920293 36.6845542,100.920293 C3.66089945,100.920293 0.964004284,92.7866217 0.144824209,88.9232376 C-0.546211418,97.9627131 3.83170444,103.218915 13.2785718,104.691843 C27.4488728,106.901236 64.5366768,102.688694 71.2151681,96.8075405 C77.8936594,90.9263867 74.0018537,89.4424366 74.0018537,90.9263867 Z" id="Path-132" fill="#2A229F" opacity="0.200000003" mask="url(#mask-20)"></path>
                            <path d="M53.014409,0.604535218 C55.118361,0.604535218 64.479189,4.48969853 73.4762934,15.5303011 C81.4592235,25.3263816 88.3325813,42.2599361 92.9874184,55.2986562 C99.6417051,73.9380585 101.387596,85.3690346 98.2250921,89.5915845 C104.064204,90.8941495 105.523982,83.8042032 102.604426,68.3217459 C98.2250921,45.0980599 76.7548101,3.14378659 69.3940856,-0.0206823659 C62.0333611,-3.18515132 49.0436673,0.604535218 53.014409,0.604535218 Z" id="Path-133" fill="#FFFFFF" opacity="0.800000012" mask="url(#mask-20)"></path>
                            <path d="M70.4601775,69.3074622 L65.1291787,48.876326 C40.6217984,56.3124231 22.1410946,54.829129 9.6870673,44.4264436 L5.62099032,62.6288833 C17.0938087,77.9891361 44.2061496,80.5129592 70.4601775,69.3074622 Z" id="Path-139" fill="#B492FF" mask="url(#mask-20)"></path>
                        </g>
                    </g>
                    <g id="Group-103" transform="translate(252.650000, 448.300001)">
                        <mask id="mask-23" fill="white">
                            <use xlink:href="#path-22"></use>
                        </mask>
                        <use id="Combined-Shape" fill="url(#linearGradient-21)" xlink:href="#path-22"></use>
                        <path d="M-1.52095023,16.3234362 C-1.52095023,19.045272 6.04795362,22.3903448 13.8499996,22.3903448 C21.6520456,22.3903448 29.2209494,19.045272 29.2209494,16.3234362" id="Oval-19" stroke="#FFFFFF" stroke-width="5" opacity="0.5" stroke-linecap="round" stroke-linejoin="round" mask="url(#mask-23)"></path>
                        <path d="M13.8499996,9.62111303 C21.3058435,9.62111303 27.3499992,7.68320209 27.3499992,5.2926678 C27.3499992,4.44809431 28.6545783,-0.26978768 27.3499992,-0.935868582 C24.962015,-2.15510526 18.671701,0.964222568 13.8499996,0.964222568 C8.84627926,0.964222568 2.20931655,-1.60485297 -0.122537077,-0.308157949 C-1.26528544,0.327300512 0.349999964,4.50645425 0.349999964,5.2926678 C0.349999964,7.68320209 6.39415568,9.62111303 13.8499996,9.62111303 Z" id="Oval-19" fill="#FFFFFF" opacity="0.400000006" mask="url(#mask-23)"></path>
                        <polygon id="Path-152" fill="#FFFFFF" opacity="0.699999988" mask="url(#mask-23)" points="23.9207536 1.20197712 22.1708791 37.1875159 26.4395415 34.4985745 28.5774175 -2.89395358"></polygon>
                    </g>
                    <ellipse id="Oval-19" fill="#FFFFFF" cx="266.5" cy="448.992668" rx="13.4999996" ry="4.32844523"></ellipse>
                    <g id="Group-102" transform="translate(335.000000, 455.000000)">
                        <g id="Group-95" transform="translate(2.000000, 5.000000)">
                            <mask id="mask-26" fill="white">
                                <use xlink:href="#path-25"></use>
                            </mask>
                            <use id="Combined-Shape" fill="url(#linearGradient-24)" xlink:href="#path-25"></use>
                            <polygon id="Path-94" fill="#6A57CC" fill-rule="nonzero" mask="url(#mask-26)" points="111.122472 23.3994492 111.122472 21.8471543 114.077911 20.2214372 114.077911 21.8104432"></polygon>
                            <path d="M34.9817013,29.416043 L34.9817013,29.416043 C34.9817013,30.852195 36.0424315,32.0676341 37.4653752,32.2619638 L46.0076485,33.4285718 C47.3254884,33.6085476 48.5397079,32.6861265 48.7196837,31.3682867 C48.7344329,31.2602881 48.741833,31.1514128 48.741833,31.0424117 L34.9817013,29.416043 Z" id="Path-93" fill="#7D69E4" mask="url(#mask-26)"></path>
                            <polygon id="Path-94" fill="#6A57CC" fill-rule="nonzero" mask="url(#mask-26)" points="102.443896 28.2142652 102.443896 26.6619702 105.399335 25.0362531 105.399335 26.6252592"></polygon>
                        </g>
                        <g id="Group-117">
                            <mask id="mask-29" fill="white">
                                <use xlink:href="#path-28"></use>
                            </mask>
                            <use id="Path-91" fill="url(#linearGradient-27)" xlink:href="#path-28"></use>
                            <mask id="mask-32" fill="white">
                                <use xlink:href="#path-31"></use>
                            </mask>
                            <use id="Path-91" fill="url(#linearGradient-30)" xlink:href="#path-31"></use>
                        </g>
                        <ellipse id="Oval-17" fill="#FFFFFF" cx="68" cy="19.6666667" rx="6" ry="2.66666667"></ellipse>
                    </g>
                    <g id="Group-107" transform="translate(504.000000, 320.000000)">
                        <g id="Group-97" transform="translate(23.000000, 0.000000)">
                            <g id="Group-106" transform="translate(31.300001, 128.280002)">
                                <g id="Group-105" transform="translate(0.000000, 5.040000)">
                                    <mask id="mask-35" fill="white">
                                        <use xlink:href="#path-34"></use>
                                    </mask>
                                    <use id="Combined-Shape" fill="url(#linearGradient-33)" xlink:href="#path-34"></use>
                                    <path d="M-2.64066674,11.2778971 C1.62326458,16.0778966 7.87685964,18.4778964 16.1201184,18.4778964 C24.3633772,18.4778964 30.6169723,16.0778966 34.8809036,11.2778971" id="Path-121" stroke="#7B52FF" stroke-width="3.59999969" mask="url(#mask-35)"></path>
                                </g>
                                <ellipse id="Oval-19" fill="#222D9F" cx="16.1999986" cy="5.6058651" rx="16.1999986" ry="5.19413397"></ellipse>
                            </g>
                            <g id="Group-99">
                                <mask id="mask-38" fill="white">
                                    <use xlink:href="#path-37"></use>
                                </mask>
                                <use id="Path-96" fill="url(#linearGradient-36)" xlink:href="#path-37"></use>
                                <path d="M-0.47841839,2.21410452 C16.9004364,11.8614466 31.4364622,30.6705812 43.1296591,58.6415084" id="Path-104" stroke="#B1B1FF" stroke-width="0.5" stroke-linecap="round" stroke-linejoin="round" mask="url(#mask-38)"></path>
                                <polyline id="Path-105" stroke="#B1B1FF" stroke-width="0.5" stroke-linecap="round" stroke-linejoin="round" mask="url(#mask-38)" points="1.77461687 13.5763672 13.7393262 12.5698648 14.7148593 0.193404516"></polyline>
                                <polyline id="Path-106" stroke="#B1B1FF" stroke-width="0.5" stroke-linecap="round" stroke-linejoin="round" mask="url(#mask-38)" points="8.76945664 25.0385292 23.9972045 24.2136195 27.2750239 12.5001839"></polyline>
                                <polyline id="Path-107" stroke="#B1B1FF" stroke-width="0.5" stroke-linecap="round" stroke-linejoin="round" mask="url(#mask-38)" points="16.6152484 35.9685822 32.5496596 36.9124422 36.4363073 24.2833005"></polyline>
                                <polyline id="Path-108" stroke="#B1B1FF" stroke-width="0.5" stroke-linecap="round" stroke-linejoin="round" mask="url(#mask-38)" points="25.3887117 47.6285254 38.3486619 47.6285254 42.9539382 37.2101698"></polyline>
                                <path d="M29.3391404,51.3322907 C39.7447285,49.3566628 45.191662,56.0741472 45.6799409,71.4847439 L29.3391404,51.3322907 Z" id="Path-147" fill="#000000" opacity="0.200000003" mask="url(#mask-38)"></path>
                            </g>
                        </g>
                        <g id="Group-98" transform="translate(78.000000, 58.000000)">
                            <mask id="mask-41" fill="white">
                                <use xlink:href="#path-40"></use>
                            </mask>
                            <use id="Path-95" fill="url(#linearGradient-39)" xlink:href="#path-40"></use>
                            <path d="M84.2032115,2.41086632 C61.8264334,3.47368527 40.1814971,11.0109968 19.2684026,25.0228008" id="Path-99" stroke="#D3D2FF" stroke-width="0.5" stroke-linecap="round" stroke-linejoin="round" mask="url(#mask-41)"></path>
                            <polyline id="Path-100" stroke="#D3D2FF" stroke-width="0.5" stroke-linecap="round" stroke-linejoin="round" mask="url(#mask-41)" points="69.3921207 -0.703943813 64.5470478 5.10488137 76.09704 8.9651528"></polyline>
                            <polyline id="Path-101" stroke="#D3D2FF" stroke-width="0.5" stroke-linecap="round" stroke-linejoin="round" mask="url(#mask-41)" points="54.2254262 1.94299206 49.9084625 9.45229124 64.7545326 14.9634207"></polyline>
                            <polyline id="Path-102" stroke="#D3D2FF" stroke-width="0.5" stroke-linecap="round" stroke-linejoin="round" mask="url(#mask-41)" points="41.4899134 4.7508039 36.9733582 15.0325823 50.6418013 20.4959753"></polyline>
                            <polyline id="Path-103" stroke="#D3D2FF" stroke-width="0.5" stroke-linecap="round" stroke-linejoin="round" mask="url(#mask-41)" points="28.4029542 10.5697778 24.6678503 21.5976749 36.8932961 25.4444147"></polyline>
                        </g>
                        <g id="Group-100" transform="translate(0.000000, 52.000000)">
                            <mask id="mask-44" fill="white">
                                <use xlink:href="#path-43"></use>
                            </mask>
                            <use id="Path-97" fill="url(#linearGradient-42)" xlink:href="#path-43"></use>
                            <path d="M-0.37551657,20.090926 C25.5524473,9.44173085 44.3698194,5.29960837 56.0765999,7.66455861" id="Path-109" stroke="#B1B1FF" stroke-width="0.5" stroke-linecap="round" stroke-linejoin="round" mask="url(#mask-44)"></path>
                            <polyline id="Path-110" stroke="#B1B1FF" stroke-width="0.5" stroke-linecap="round" stroke-linejoin="round" mask="url(#mask-44)" points="4.85662622 11.2084295 12.4921973 15.2308082 8.67441175 22.6758049"></polyline>
                            <polyline id="Path-111" stroke="#B1B1FF" stroke-width="0.5" stroke-linecap="round" stroke-linejoin="round" mask="url(#mask-44)" points="14.513342 6.47292078 23.6145884 11.4302922 19.5243506 21.5892466"></polyline>
                            <polyline id="Path-112" stroke="#B1B1FF" stroke-width="0.5" stroke-linecap="round" stroke-linejoin="round" mask="url(#mask-44)" points="26.1412225 2.09092949 36.8308594 8.265295 29.7019967 22.1264306"></polyline>
                            <polyline id="Path-113" stroke="#B1B1FF" stroke-width="0.5" stroke-linecap="round" stroke-linejoin="round" mask="url(#mask-44)" points="39.0364834 -0.770123989 49.6785783 7.12956932 42.7285061 19.2921957"></polyline>
                        </g>
                        <g id="Group-104" transform="translate(4.000000, 90.000000)">
                            <mask id="mask-46" fill="white">
                                <use xlink:href="#path-45"></use>
                            </mask>
                            <use id="Path-98" fill="#7B52FF" xlink:href="#path-45"></use>
                            <path d="M0.103754399,26.7247949 C17.210569,11.9769617 31.9070577,4.60304506 44.1932204,4.60304506" id="Path-116" stroke="#B1B1FF" stroke-width="0.5" stroke-linecap="round" stroke-linejoin="round" mask="url(#mask-46)"></path>
                            <polyline id="Path-117" stroke="#B1B1FF" stroke-width="0.5" stroke-linecap="round" stroke-linejoin="round" mask="url(#mask-46)" points="1.43147695 19.3735862 8.57209353 20.065105 8.57209353 27.5651894"></polyline>
                            <polyline id="Path-118" stroke="#B1B1FF" stroke-width="0.5" stroke-linecap="round" stroke-linejoin="round" mask="url(#mask-46)" points="8.44980481 12.333934 16.4860448 14.4433055 16.4860448 23.6254039"></polyline>
                            <polyline id="Path-119" stroke="#B1B1FF" stroke-width="0.5" stroke-linecap="round" stroke-linejoin="round" mask="url(#mask-46)" points="19.0519319 5.77386241 26.6373138 8.86894195 26.6373138 17.8003702"></polyline>
                            <polyline id="Path-120" stroke="#B1B1FF" stroke-width="0.5" stroke-linecap="round" stroke-linejoin="round" mask="url(#mask-46)" points="30.9374377 0.585513384 38.8383332 5.05362104 37.1711159 13.1864735"></polyline>
                        </g>
                    </g>
                    <g id="Group-101" transform="translate(308.000000, 426.000000)">
                        <path d="M21.5288524,18.6644382 L46.4701338,4.47278551 C46.8737174,4.24314544 47.3446295,4.1610902 47.8020981,4.24069413 L55.5074853,5.58150581 L62.4208684,2.91961753 L62.4208684,7.17200992 C62.4214952,7.21152697 62.4194715,7.25090919 62.4125701,7.29057054 C62.3876367,7.43385775 62.3015489,7.55918717 62.1767535,7.63387988 L17.2377584,34.5308216 C16.803213,34.7909062 16.2861809,34.8764558 15.7910203,34.7702029 L0.685492496,31.5288191 C0.460058417,31.4804449 0.303005888,31.2871302 0.291028546,31.0674753 L0.283307496,31.0662818 L0.283307496,26.8446976 L21.5288524,18.6644382 Z" id="Combined-Shape" fill="#CBC8F1"></path>
                        <path d="M0.51303444,26.421998 L46.470297,0.288049469 C46.8737848,0.0586030663 47.3445161,-0.0233574644 47.8018082,0.0562157833 L62.005689,2.52782802 C62.2777433,2.57516808 62.4599101,2.83408836 62.4125701,3.10614263 C62.3876367,3.24942984 62.3015489,3.37475926 62.1767535,3.44945197 L17.2373058,30.3466646 C16.803031,30.6065873 16.2863614,30.6921981 15.7914607,30.5862374 L0.655515428,27.3455567 C0.38549275,27.2877435 0.213462971,27.02198 0.271276161,26.7519573 C0.301128097,26.6125307 0.389086947,26.4924817 0.51303444,26.421998 Z" id="Path-114" fill="#E9EBFF"></path>
                        <polygon id="Path-122" fill="#7D69E4" fill-rule="nonzero" points="44.7003968 3.49433911 47.0453595 2.26909164 56.8904725 4.21444178 54.4099374 5.52120245"></polygon>
                        <polygon id="Path-122-Copy" fill="#7D69E4" fill-rule="nonzero" points="36.0170585 8.44859312 38.3620212 7.22334565 48.2071342 9.16869578 45.7265991 10.4754565"></polygon>
                        <polygon id="Path-122-Copy-3" fill="#7D69E4" fill-rule="nonzero" points="11.9469653 22.0320411 14.291928 20.8067936 24.137041 22.7521437 21.6565059 24.0589044"></polygon>
                        <polygon id="Path-122" fill="#7D69E4" fill-rule="nonzero" points="40.4568429 6.08419788 42.8018056 4.85895041 52.6469186 6.80430055 50.1663835 8.11106122"></polygon>
                        <polygon id="Path-122-Copy-2" fill="#7D69E4" fill-rule="nonzero" points="31.7735046 11.0384519 34.1184673 9.81320441 43.9635803 11.7585546 41.4830452 13.0653152"></polygon>
                        <polygon id="Path-122-Copy-4" fill="#7D69E4" fill-rule="nonzero" points="7.70341139 24.6218998 10.0483741 23.3966524 19.8934871 25.3420025 17.412952 26.6487632"></polygon>
                        <path d="M29.5077206,18.8565673 C32.5452868,18.8565673 35.0077206,17.7621522 35.0077206,16.4121228 C35.0077206,15.0620935 32.5452868,13.9676784 29.5077206,13.9676784 C26.4701545,13.9676784 24.0077206,15.0620935 24.0077206,16.4121228 C24.0077206,17.7621522 26.4701545,18.8565673 29.5077206,18.8565673 Z" id="Oval-17" fill="#7D69E4"></path>
                    </g>
                    <g id="Group-108" transform="translate(314.000000, 315.000000)" fill="#FFFFFF" fill-rule="nonzero">
                        <polygon id="Path-123" points="0.855908561 4.91094516 0.855908561 0.970904507 34.8086235 4.93482884 34.8086235 8.89875318"></polygon>
                        <polygon id="Path-123" opacity="0.5" points="0.855908561 14.9109452 0.855908561 10.9709045 25.322525 14.1205528 25.322525 18.0844771"></polygon>
                    </g>
                    <g id="Group-114" transform="translate(647.000000, 206.000000)">
                        <path d="M0.295167029,76.0106882 L0.295167029,11.4721981 C0.295167029,10.3753426 1.17859229,9.48313983 2.27539414,9.47229583 L99.4190669,8.51184353 C100.523582,8.50092327 101.427822,9.38745739 101.438742,10.4919729 C101.438807,10.4985637 101.43884,10.5051547 101.43884,10.5117458 L101.43884,86.16922 C101.43884,87.2737895 100.543409,88.16922 99.4388398,88.16922 C99.3693617,88.16922 99.2999308,88.1655996 99.2308295,88.1583735 L2.08715678,77.9998418 C1.06867045,77.8933364 0.295167029,77.0347282 0.295167029,76.0106882 Z" id="Path-126" fill="#FFFFFF" opacity="0.200000003"></path>
                        <ellipse id="Oval-18" fill="#FFFFFF" cx="76.8888889" cy="10" rx="7.88888889" ry="10"></ellipse>
                        <path d="M14.5812737,27.3928968 L45.2611068,27.3928968" id="Path-148" stroke="#FFFFFF" stroke-width="4"></path>
                        <path d="M14.5812737,43.3928968 L73.2611068,46.3928968" id="Path-148" stroke="#FFFFFF" stroke-width="3" opacity="0.600000024"></path>
                        <path d="M14.5812737,53.3928968 L77.7799745,57.5661952" id="Path-148" stroke="#FFFFFF" stroke-width="3" opacity="0.600000024"></path>
                        <path d="M14.5812737,65.3928968 L43.768809,67.9115597" id="Path-148" stroke="#FFFFFF" stroke-width="3" opacity="0.600000024"></path>
                    </g>
                    <g id="Group-115" transform="translate(274.000000, 131.000000)">
                        <path d="M21.1337622,47.6447491 L21.1337622,70.3018898 C21.1337622,71.4064593 22.0291927,72.3018898 23.1337622,72.3018898 C23.5185287,72.3018898 23.8951282,72.1909019 24.2183987,71.982236 L41.7689049,60.6536657 C42.6969345,60.0546375 42.9636428,58.8167125 42.3646146,57.8886829 C42.2105932,57.6500691 42.0075187,57.4469946 41.7689049,57.2929732 L24.2183987,45.9644029 C23.2903691,45.3653747 22.0524441,45.632083 21.4534159,46.5601126 C21.24475,46.8833831 21.1337622,47.2599826 21.1337622,47.6447491 Z" id="Path-149" fill="#FFFFFF"></path>
                        <path d="M0.768711812,115.048207 L37.4332482,115.766167" id="Path-150" stroke="#FFFFFF" stroke-width="4"></path>
                        <path d="M0.768711812,2.04820728 L22.6532852,0.0482072805" id="Path-150" stroke="#FFFFFF" stroke-width="4"></path>
                        <path d="M0.768711812,128.048207 L58.1891402,130.782683" id="Path-150" stroke="#FFFFFF" stroke-width="3" opacity="0.600000024"></path>
                        <path d="M0.768711812,141.048207 L47.6532852,144.048207" id="Path-150" stroke="#FFFFFF" stroke-width="3" opacity="0.600000024"></path>
                    </g>
                    <polyline id="Path-151" stroke="#C5D3FF" stroke-width="3" stroke-linecap="round" stroke-linejoin="round" points="266.755153 448.348902 266.755153 438.9304 272.171943 434.62308"></polyline>
                </g>
            </g>
        </g>
    </g>
</svg>